<?xml version="1.0" standalone="no"?>
<!DOCTYPE svg PUBLIC "-//W3C//DTD SVG 1.1//EN" "http://www.w3.org/Graphics/SVG/1.1/DTD/svg11.dtd">
<svg xmlns="http://www.w3.org/2000/svg"><metadata>This SVG WebFont was generated by YouWorkForThem.
Copyright (c) 2016 by THOMAS GILLETT. All rights reserved.</metadata><defs><font horiz-adv-x="1392" id="ywftsvg"><font-face ascent="1638" bbox="-342 -547 2576 2300" cap-height="1604" descent="-410" font-family="" font-stretch="normal" font-weight="300" panose-1="0 0 0 0 0 0 0 0 0 0" underline-position="0" underline-thickness="0" unicode-range="U+0020-FB04" units-per-em="2048" x-height="1094"/><missing-glyph d="M184 1604h1352v-1604h-1352v1604zM1450 74v1448h-1192z" horiz-adv-x="1636"/><glyph d="M866 1094v268q0 137 76 224t207 87q57 0 108 -20v-76q-51 18 -108 18q-92 0 -147.5 -59t-55.5 -176v-266h301v-74h-301v-1020h-80v1020h-528v-1020h-82v1020h-201v74h201v268q0 135 77 223t208 88q55 0 108 -20v-76q-51 18 -108 18q-90 0 -146.5 -59t-56.5 -176v-266h528 z" glyph-name="uniFB00" horiz-adv-x="1277" unicode="ff"/><glyph d="M55 1020v74h201v268q0 135 77 223t208 88q55 0 108 -20v-76q-51 18 -108 18q-90 0 -146.5 -59t-56.5 -176v-266h610v-1094h-82v1020h-528v-1020h-82v1020h-201zM827 1472.5q0 34.5 23.5 58t56.5 23.5t55.5 -23.5t22.5 -58t-22.5 -58t-55.5 -23.5t-56.5 23.5t-23.5 58z " glyph-name="uniFB01" horiz-adv-x="1142" unicode="fi"/><glyph d="M55 1094h201v268q0 137 76 224t209 87q55 0 108 -20v-76q-51 18 -108 18q-92 0 -147.5 -59t-55.5 -176v-266h528v575h80v-1669h-80v1020h-528v-1020h-82v1020h-201v74z" glyph-name="uniFB02" horiz-adv-x="1142" unicode="fl"/><glyph d="M338 1020v-1020h-82v1020h-201v74h201v268q0 135 77 223t208 88q57 0 108 -20v-76q-51 18 -108 18q-90 0 -146.5 -59t-56.5 -176v-266h530v268q0 135 76 223t207 88q57 0 111 -20v-76q-51 18 -109 18q-92 0 -148.5 -59t-56.5 -176v-266h611l2 -1094h-82v1020h-531v-1020 h-80v1020h-530zM1442 1472.5q0 34.5 22.5 58t55 23.5t56 -23.5t23.5 -58t-23.5 -58t-56 -23.5t-55 23.5t-22.5 58z" glyph-name="uniFB03" horiz-adv-x="1755" unicode="ffi"/><glyph d="M338 0h-82v1020h-201v74h201v268q0 135 77 223t208 88q55 0 108 -20v-76q-51 18 -108 18q-90 0 -146.5 -59t-56.5 -176v-266h528v268q0 137 76 224t207 87q57 0 108 -20v-76q-51 18 -108 18q-92 0 -147.5 -59t-55.5 -176v-266h531v575h79v-1669h-79v1020h-531v-1020h-80 v1020h-528v-1020z" glyph-name="uniFB04" horiz-adv-x="1751" unicode="ffl"/><glyph d="M184 1604h1352v-1604h-1352v1604zM1450 74v1448h-1192z" glyph-name=".notdef" horiz-adv-x="1636"/><glyph glyph-name="glyph1" horiz-adv-x="0"/><glyph glyph-name="glyph2" horiz-adv-x="681"/><glyph glyph-name="space" horiz-adv-x="600" unicode=" "/><glyph d="M229 426l-4 1178h86l-4 -1178h-78zM186 63.5q0 32.5 23.5 57t56.5 24.5t56.5 -23.5t23.5 -58t-23.5 -58t-56.5 -23.5t-56.5 24.5t-23.5 57z" glyph-name="exclam" horiz-adv-x="534" unicode="!"/><glyph d="M236 1081h-50q-25 408 -24 443q0 70 49 69.5t49 -69.5zM541 1081h-49q-25 408 -25 443q0 70 49 69.5t49 -69.5z" glyph-name="quotedbl" horiz-adv-x="727" unicode="&quot;"/><glyph d="M377 446h-291v76h305l117 561h-293v74h307l92 447h78l-90 -447h574l92 447h80l-91 -447h277v-74h-291l-115 -561h277v-76h-293l-92 -446h-80l90 446h-571l-94 -446h-80zM1044 520l117 563h-573l-115 -563h571z" glyph-name="numbersign" horiz-adv-x="1619" unicode="#"/><glyph d="M1102 436q0 -188 -126 -310t-327 -132v-203h-82v203q-330 23 -473 397l72 37q61 -150 154.5 -247t248.5 -111v731q-229 61 -332.5 147t-103.5 254q0 176 126 295t308 131v197h82v-197q170 -10 280.5 -102t166.5 -230l-70 -39q-115 272 -379 293v-686q225 -63 340 -163.5 t115 -264.5zM217 1204q0 -129 82 -198.5t270 -120.5v665q-143 -12 -247.5 -107.5t-104.5 -238.5zM647 780v-710q158 10 264.5 105t106.5 259q0 125 -89 207t-282 139z" glyph-name="dollar" horiz-adv-x="1212" unicode="$"/><glyph d="M442.5 899q-149.5 0 -255 105.5t-105.5 255t105.5 255t255 105.5t255 -105.5t105.5 -255t-105.5 -255t-255 -105.5zM1360 1604h88l-1040 -1604h-93zM442.5 1550q-118.5 0 -204.5 -85t-86 -205.5t86 -205.5t204.5 -85t204.5 85t86 205.5t-86 205.5t-204.5 85zM1327.5 -10 q-149.5 0 -255 104.5t-105.5 254t105.5 255t255 105.5t255 -105.5t105.5 -255t-105.5 -254t-255 -104.5zM1327 639q-121 0 -206 -85t-85 -206q0 -119 85 -204t206 -85t206 85t85 204q0 121 -85 206t-206 85z" glyph-name="percent" horiz-adv-x="1769" unicode="%"/><glyph d="M1255 0l-213 231q-217 -246 -483 -245h-8q-180 0 -307 101t-127 278q0 39 10 76.5t21.5 64t41 62.5t43 52.5t56.5 51.5t53 43t60.5 44t52.5 38l43 30l-90 97q-170 188 -170 338q0 147 105.5 252.5t266.5 105.5q170 0 271.5 -104.5t101.5 -251.5q0 -109 -65.5 -191 t-178.5 -164l-129 -94l432 -467q125 168 213 393l70 -24q-94 -248 -231 -424l268 -293h-107zM559 870l141 103q205 147 205 293q0 125 -84 202.5t-215 77.5q-121 0 -205 -78.5t-84 -195.5v-4q0 -68 33 -133.5t117 -159.5zM559 59q238 0 432 228l-442 483l-86 -59 q-264 -176 -264 -338v-8q0 -143 106.5 -224.5t253.5 -81.5z" glyph-name="ampersand" horiz-adv-x="1427" unicode="&amp;"/><glyph d="M236 1081h-50q-25 408 -24 443q0 70 49 69.5t49 -69.5z" glyph-name="quotesingle" horiz-adv-x="423" unicode="'"/><glyph d="M725 1769l33 -55q-270 -162 -412.5 -391t-142.5 -555v-18q0 -616 555 -947l-33 -55q-291 166 -448.5 421t-157.5 574v33q0 319 157.5 573t448.5 420z" glyph-name="parenleft" horiz-adv-x="811" unicode="("/><glyph d="M53 1714l35 55q291 -166 448.5 -419.5t157.5 -573.5v-33q0 -319 -157.5 -574t-448.5 -421l-35 55q557 330 557 947v18q0 328 -142.5 556t-414.5 390z" glyph-name="parenright" horiz-adv-x="811" unicode=")"/><glyph d="M565 1604l-12 -396l362 131l23 -65l-375 -117l240 -299l-55 -41l-220 305l-219 -305l-55 41l240 299l-375 117l22 65l363 -131l-10 396h71z" glyph-name="asterisk" horiz-adv-x="1056" unicode="*"/><glyph d="M575 1264h80v-457h451v-76h-451v-463h-80v463h-462v76h462v457z" glyph-name="plus" horiz-adv-x="1216" unicode="+"/><glyph d="M254 -10q-39 0 -61.5 22.5t-22.5 61.5t25.5 63.5t60.5 24.5q47 0 75.5 -35t28.5 -96v-8q0 -158 -151 -269l-47 43q119 94 127 199q-15 -6 -35 -6z" glyph-name="comma" horiz-adv-x="534" unicode=","/><glyph d="M764 610h-600v78h600v-78z" glyph-name="hyphen" horiz-adv-x="927" unicode="-"/><glyph d="M252 -16q-37 0 -62.5 26.5t-25.5 63.5t25.5 62.5t62.5 25.5t63.5 -25.5t26.5 -62.5t-26.5 -63.5t-63.5 -26.5z" glyph-name="period" horiz-adv-x="503" unicode="."/><glyph d="M852 1667l-672 -1677h-88l672 1677h88z" glyph-name="slash" horiz-adv-x="940" unicode="/"/><glyph d="M782 -16q-160 0 -287.5 72.5t-205.5 191.5t-119 261t-41 291.5t41 292t119 263.5t206 193.5t287.5 72.5t288.5 -72.5t206 -191.5t118 -261.5t41 -291.5q0 -119 -25 -234.5t-78 -222t-128 -187.5t-184.5 -129t-238.5 -48zM780.5 1544q-139.5 0 -251 -66.5t-178 -176 t-101.5 -236.5t-35 -258t35 -260t101.5 -239.5t180 -179.5t253 -69t251 68t178 176.5t101.5 236.5t35 259t-35 260t-102.5 238.5t-180 178t-252 68.5z" glyph-name="zero" horiz-adv-x="1564" unicode="0"/><glyph d="M580 0h-84v1513l-416 -245l-37 61l455 275h82v-1604z" glyph-name="one" horiz-adv-x="819" unicode="1"/><glyph d="M119 78l594 543q188 174 264 294.5t76 239.5q0 164 -114 276.5t-296 112.5q-135 0 -235 -69q-133 -90 -193 -267l-76 33q49 164 183.5 272.5t322.5 108.5q215 0 353.5 -133t138.5 -332q0 -129 -70 -256q-76 -131 -303 -338l-533 -485h918v-78h-1030v78z" glyph-name="two" horiz-adv-x="1271" unicode="2"/><glyph d="M623 1622q223 0 354 -125t131 -293q0 -123 -80 -231.5t-227 -147.5q170 -37 256 -148.5t86 -256.5q0 -180 -143.5 -308t-376.5 -128q-188 0 -326.5 105.5t-194.5 268.5l72 37q63 -162 182 -250q113 -84 265 -84q184 0 311 101.5t127 257.5q0 166 -116 262t-318 96h-164 v78h162q174 0 287.5 101.5t113.5 246.5q0 141 -111.5 240.5t-291.5 99.5q-135 0 -236 -69q-131 -92 -190 -261l-74 33q49 162 182.5 268.5t319.5 106.5z" glyph-name="three" horiz-adv-x="1261" unicode="3"/><glyph d="M1012 1604v-1129h252v-78h-252v-397h-84v397h-873v88l860 1119h97zM143 475h785v1018z" glyph-name="four" horiz-adv-x="1337" unicode="4"/><glyph d="M616 -16q-170 0 -307 96q-145 106 -203 272l72 39q63 -160 180 -246q117 -84 260 -84q170 0 307.5 121t137.5 320q0 195 -127 303t-311 108q-242 0 -398 -194l-75 29l124 856h805v-78h-737l-104 -705q150 170 393 170q229 0 372.5 -134t143.5 -353q0 -225 -156 -372.5 t-377 -147.5z" glyph-name="five" horiz-adv-x="1261" unicode="5"/><glyph d="M694 -16q-283 0 -452 241q-109 158 -109 488q0 252 69.5 453.5t222.5 328.5t370 127q233 0 424 -190l-48 -64q-182 176 -378 176q-190 0 -330 -117q-244 -203 -250 -735h2q45 102 115.5 173t146.5 100.5t129 41t99 11.5q221 0 372.5 -147.5t151.5 -352.5 q0 -203 -153 -368.5t-382 -165.5zM690 942q-172 0 -314.5 -122t-142.5 -306q0 -188 139.5 -321.5t317.5 -133.5q186 0 319.5 137.5t133.5 319.5t-132.5 304t-320.5 122z" glyph-name="six" horiz-adv-x="1341" unicode="6"/><glyph d="M352 0h-94l743 1528h-948v76h1043v-76z" glyph-name="seven" horiz-adv-x="1148" unicode="7"/><glyph d="M676 -18q-231 0 -388 115.5t-157 322.5q0 131 98.5 244.5t280.5 160.5q-170 49 -251 149.5t-81 227.5q0 129 80 228.5t191.5 144.5t228.5 45q186 0 341 -113.5t155 -304.5q0 -123 -82 -225.5t-250 -151.5q182 -47 279.5 -160.5t97.5 -244.5q0 -207 -162 -322.5 t-381 -115.5zM1085 1204q0 141 -116.5 238.5t-294.5 97.5t-295 -96t-117 -242q0 -156 127 -250t287 -94q172 0 290.5 96t118.5 250zM1133 420q0 158 -135.5 261t-323.5 103q-190 0 -324.5 -101t-134.5 -265t135 -261.5t325.5 -97.5t324 97.5t133.5 263.5z" glyph-name="eight" horiz-adv-x="1349" unicode="8"/><glyph d="M645 1622q283 0 453 -242q109 -158 108 -487q0 -254 -67.5 -454.5t-217 -327.5t-362.5 -127q-141 0 -240.5 52t-193.5 146l47 64q98 -96 187.5 -140.5t201.5 -44.5q258 0 402 209q160 229 163 633h-2q-45 -102 -115.5 -173t-146.5 -100.5t-129 -40.5t-98 -11 q-223 0 -373.5 146t-150.5 363q0 203 154.5 369t379.5 166zM649 653q178 0 317.5 126t139.5 313q0 188 -139.5 321t-317.5 133q-186 0 -319 -137t-133 -319q0 -188 132 -312.5t320 -124.5z" glyph-name="nine" horiz-adv-x="1341" unicode="9"/><glyph d="M252 932q-37 0 -62.5 26.5t-25.5 63.5q0 35 25.5 61.5t62.5 26.5t63.5 -26.5t26.5 -61.5q0 -37 -26.5 -63.5t-63.5 -26.5zM252 -16q-37 0 -62.5 26.5t-25.5 63.5t25.5 62.5t62.5 25.5t63.5 -25.5t26.5 -62.5t-26.5 -63.5t-63.5 -26.5z" glyph-name="colon" horiz-adv-x="503" unicode=":"/><glyph d="M268 932q-37 0 -62.5 26.5t-25.5 63.5q0 35 25.5 61.5t62.5 26.5t63.5 -26.5t26.5 -61.5q0 -37 -26.5 -63.5t-63.5 -26.5zM264 -10q-39 0 -61.5 22.5t-22.5 61.5t25.5 63.5t60.5 24.5q47 0 76 -35t29 -96v-8q0 -158 -152 -269l-47 43q119 94 127 199q-17 -6 -35 -6z" glyph-name="semicolon" horiz-adv-x="544" unicode=";"/><glyph d="M84 725v80l1061 538v-83l-977 -494l977 -490v-88z" glyph-name="less" horiz-adv-x="1323" unicode="&lt;"/><glyph d="M1110 973h-940v78h940v-78zM1110 489h-940v78h940v-78z" glyph-name="equal" horiz-adv-x="1280" unicode="="/><glyph d="M176 188v86l977 492l-977 491v86l1061 -538v-80z" glyph-name="greater" horiz-adv-x="1320" unicode=">"/><glyph d="M395 377v119q0 123 48.5 200.5t154.5 169.5l61 52q78 68 121 138t43 173q0 131 -92 223t-235 92q-119 0 -214.5 -75.5t-138.5 -204.5l-73 36q51 150 167.5 236t258.5 86q178 0 295.5 -113.5t117.5 -279.5q0 -125 -55 -214t-166 -179q-119 -96 -164 -167t-45 -175v-117 h-84zM356 63.5q0 34.5 23.5 58t56.5 23.5t56.5 -24.5t23.5 -57t-23.5 -57t-56.5 -24.5t-56.5 23.5t-23.5 58z" glyph-name="question" horiz-adv-x="1001" unicode="?"/><glyph d="M819 260q-143 0 -236.5 104.5t-93.5 247.5q0 174 118 310.5t298 136.5q96 0 178 -51.5t115 -147.5h2l33 191h82l-94 -570q-10 -55 10 -100t88 -45q98 0 177 98t110 217q16 72 16 133q0 272 -194.5 447.5t-477.5 175.5q-313 0 -532 -225.5t-219 -534.5q0 -315 209.5 -523 t529.5 -208q113 0 237.5 43t210.5 113l41 -62q-90 -76 -229 -122t-260 -46q-350 0 -581.5 228.5t-231.5 576.5q0 342 241.5 589t581.5 247q311 0 530.5 -194.5t219.5 -502.5q0 -109 -48 -234.5t-141 -209.5q-88 -82 -202 -82q-88 0 -130 56.5t-36 113.5h-2 q-39 -68 -129.5 -119t-190.5 -51zM922 981q-154 0 -253.5 -107.5t-99.5 -263.5q0 -113 75 -192.5t190 -79.5q129 0 225 89t115 216q6 49 6 76q0 109 -74.5 185.5t-183.5 76.5z" glyph-name="at" horiz-adv-x="1785" unicode="@"/><glyph d="M1524 0h-92l-199 457h-930l-201 -457h-88l709 1604h92zM1198 535l-432 976l-428 -976h860z" glyph-name="A" horiz-adv-x="1538" unicode="A"/><glyph d="M238 1604h524q270 0 397 -117t127 -285q0 -115 -71.5 -223.5t-229.5 -153.5q186 -31 281.5 -148.5t95.5 -250.5q0 -188 -147.5 -307t-432.5 -119h-544v1604zM324 856h452q209 0 317.5 96.5t108.5 245.5q0 145 -112.5 237.5t-329.5 92.5h-436v-672zM324 78h462 q236 0 363 93t127 255q0 158 -125 255t-356 97h-471v-700z" glyph-name="B" horiz-adv-x="1482" unicode="B"/><glyph d="M1550 522l74 -35q-31 -86 -87 -168.5t-141 -160.5t-213 -126t-278 -48q-342 0 -563 235.5t-221 581.5q0 344 223 582.5t565 238.5q145 0 270.5 -46t210.5 -122t142 -160t88 -174l-74 -35q-29 82 -79 157t-125.5 145.5t-188.5 113.5t-248 43q-303 0 -500.5 -215 t-197.5 -522q0 -309 197.5 -528.5t502.5 -219.5q141 0 259 48.5t194 126t119.5 148t70.5 140.5z" glyph-name="C" horiz-adv-x="1716" unicode="C"/><glyph d="M238 1604h428q369 0 612.5 -228.5t243.5 -574.5q0 -352 -244 -576.5t-612 -224.5h-428v1604zM324 78h344q332 0 550 202.5t218 518t-219.5 522.5t-550.5 207h-342v-1450z" glyph-name="D" horiz-adv-x="1640" unicode="D"/><glyph d="M1130 856v-78h-806v-700h886v-78h-972v1604h962v-76h-876v-672h806z" glyph-name="E" horiz-adv-x="1337" unicode="E"/><glyph d="M238 0v1604h952v-76h-868v-690h798v-78h-798v-760h-84z" glyph-name="F" horiz-adv-x="1271" unicode="F"/><glyph d="M1642 748v-78q0 -293 -204.5 -489.5t-532.5 -196.5q-344 0 -564 233.5t-220 583.5q0 346 221 583.5t569 237.5q270 0 452.5 -147.5t250.5 -337.5l-74 -35q-29 80 -80 152.5t-125.5 140t-185.5 108.5t-240 41q-309 0 -505.5 -215t-196.5 -522q0 -319 195.5 -533.5 t506.5 -214.5q268 0 459 167t191 438v6h-740v78h823z" glyph-name="G" horiz-adv-x="1751" unicode="G"/><glyph d="M324 856h1040v748h86v-1604h-86v778h-1040v-778h-86v1604h86v-748z" glyph-name="H" horiz-adv-x="1687" unicode="H"/><glyph d="M324 0h-86v1604h86v-1604z" glyph-name="I" horiz-adv-x="561" unicode="I"/><glyph d="M510 59q166 0 255 98.5t89 274.5v1172h86v-1172q0 -207 -113.5 -327.5t-314.5 -120.5q-295 0 -432 344l72 41q120 -310 358 -310z" glyph-name="J" horiz-adv-x="1159" unicode="J"/><glyph d="M332 858l827 746h123l-856 -764l903 -840h-125l-872 813h-8v-813h-86v1604h86v-746h8z" glyph-name="K" horiz-adv-x="1325" unicode="K"/><glyph d="M238 0v1604h84v-1526h800v-78h-884z" glyph-name="L" horiz-adv-x="1181" unicode="L"/><glyph d="M350 1604l705 -1508l702 1508h115v-1604h-84v1483l-690 -1483h-86l-690 1477v-1477h-84v1604h112z" glyph-name="M" horiz-adv-x="2109" unicode="M"/><glyph d="M1421 1604h84v-1604h-96l-1087 1491v-1491h-84v1604h102l1081 -1483v1483z" glyph-name="N" horiz-adv-x="1742" unicode="N"/><glyph d="M907 -16q-340 0 -563 236.5t-223 580.5t223 582.5t565 238.5t565.5 -237.5t223.5 -579.5q0 -346 -224.5 -583.5t-566.5 -237.5zM907 1544q-303 0 -501.5 -215t-198.5 -522q0 -311 199.5 -529.5t504.5 -218.5q303 0 502 216.5t199 523.5t-200 526t-505 219z" glyph-name="O" horiz-adv-x="1818" unicode="O"/><glyph d="M238 1604h452q301 0 444.5 -134.5t143.5 -332.5q0 -209 -153.5 -344.5t-452.5 -135.5h-348v-657h-86v1604zM324 737h350q264 0 391 114t127 284q0 166 -122 279.5t-388 113.5h-358v-791z" glyph-name="P" horiz-adv-x="1357" unicode="P"/><glyph d="M1659 -18l-227 198q-221 -195 -525 -194q-340 0 -563 235.5t-223 579.5t223 581.5t565 237.5t565.5 -236.5t223.5 -578.5q0 -338 -209 -565l225 -197zM207 807q0 -309 198.5 -527.5t505.5 -218.5q266 0 459 172l-321 281l57 64l321 -285q184 211 185 506q0 307 -200 525 t-505 218q-303 0 -501.5 -214t-198.5 -521z" glyph-name="Q" horiz-adv-x="1822" unicode="Q"/><glyph d="M238 1604h481q299 0 438 -132.5t139 -324.5q0 -188 -124.5 -310t-364.5 -149l539 -688h-109l-530 680h-383v-680h-86v1604zM324 758h374q262 0 388 114.5t126 272.5q0 160 -117.5 271.5t-381.5 111.5h-389v-770z" glyph-name="R" horiz-adv-x="1431" unicode="R"/><glyph d="M1124 428q0 -199 -138 -321.5t-351 -122.5q-367 0 -518 399l71 37q31 -74 66 -132.5t87 -113.5t128 -85t168 -30q166 0 284.5 96.5t118.5 270.5q0 133 -102 218t-324 142q-244 63 -351 149.5t-107 258.5q0 186 140 307t335 121q186 0 307 -94t180 -240l-69 -39 q-123 295 -422 295q-154 0 -270.5 -98t-116.5 -250q0 -135 90 -205.5t301 -124.5q244 -63 368.5 -165.5t124.5 -272.5z" glyph-name="S" horiz-adv-x="1251" unicode="S"/><glyph d="M1204 1528h-530v-1528h-84v1528h-541v76h1155v-76z" glyph-name="T" horiz-adv-x="1253" unicode="T"/><glyph d="M1380 1604v-975q0 -297 -150.5 -472t-428.5 -175q-283 0 -434.5 175t-151.5 468v979h86v-977q0 -276 134 -422t368 -146q248 0 370.5 151.5t122.5 414.5v979h84z" glyph-name="U" horiz-adv-x="1597" unicode="U"/><glyph d="M813 0h-90l-666 1604h90l621 -1506l621 1506h90z" glyph-name="V" horiz-adv-x="1536" unicode="V"/><glyph d="M158 1604l458 -1495l474 1495h79l478 -1495l458 1495h86l-499 -1604h-95l-469 1466l-469 -1466h-94l-497 1604h90z" glyph-name="W" horiz-adv-x="2258" unicode="W"/><glyph d="M705 877l557 727h100l-604 -785l628 -819h-100l-581 760l-580 -760h-100l630 817l-606 787h101z" glyph-name="X" horiz-adv-x="1411" unicode="X"/><glyph d="M1305 1604h100l-629 -916v-688h-84v688l-629 916h103l569 -838z" glyph-name="Y" horiz-adv-x="1468" unicode="Y"/><glyph d="M1178 1604v-78l-1020 -1448h1022v-78h-1117v78l1020 1450h-987v76h1082z" glyph-name="Z" horiz-adv-x="1257" unicode="Z"/><glyph d="M756 -229h-533v1978h533v-72h-453v-1835h453v-71z" glyph-name="bracketleft" horiz-adv-x="831" unicode="["/><glyph d="M760 -10l-672 1677h88l672 -1677h-88z" glyph-name="backslash" horiz-adv-x="940" unicode="\"/><glyph d="M608 -229h-532v71h452v1835h-452v72h532v-1978z" glyph-name="bracketright" horiz-adv-x="831" unicode="]"/><glyph d="M924 924l-355 602l-354 -602h-90l405 680h82l402 -680h-90z" glyph-name="asciicircum" horiz-adv-x="1138" unicode="^"/><glyph d="M1071 -170v-72h-1071v72h1071z" glyph-name="underscore" horiz-adv-x="1071" unicode="_"/><glyph d="M276 1280l-247 352h92l229 -352h-74z" glyph-name="grave" horiz-adv-x="376" unicode="`"/><glyph d="M897 0v242q-61 -125 -173 -192.5t-243 -67.5q-158 0 -262 80.5t-104 230.5q0 156 128 234.5t300 78.5h354v76q0 166 -86 260t-248 94q-252 0 -364 -223l-72 41q55 119 165.5 188.5t268.5 69.5q190 0 304 -110.5t114 -313.5v-688h-82zM899 532h-352q-137 0 -242.5 -58 t-105.5 -179q0 -115 79.5 -176.5t204.5 -61.5q174 0 295 107.5t121 284.5v83z" glyph-name="a" horiz-adv-x="1157" unicode="a"/><glyph d="M274 1667v-870q57 139 180.5 227t280.5 88q231 0 381 -166t150 -397.5t-148.5 -398t-382.5 -166.5q-160 0 -282.5 87t-178.5 224v-295h-79v1667h79zM731 61q203 0 327 138.5t124 345.5v2q0 207 -126 347t-325 140q-203 0 -332 -144.5t-129 -338.5v-6q0 -197 131 -340.5 t330 -143.5z" glyph-name="b" horiz-adv-x="1376" unicode="b"/><glyph d="M659 -18q-231 0 -389.5 161.5t-158.5 401t159.5 403.5t388.5 164q184 0 307.5 -89t170.5 -228l-76 -33q-98 274 -402 274q-199 0 -330.5 -143t-131.5 -344t134 -346.5t331 -145.5q295 0 401 279l76 -33q-49 -137 -172.5 -229t-307.5 -92z" glyph-name="c" horiz-adv-x="1239" unicode="c"/><glyph d="M1104 0v299q-57 -137 -181 -226t-282 -89q-236 0 -382 165.5t-146 399t149.5 398.5t378.5 165q160 0 281.5 -86t181.5 -225v866h78v-1667h-78zM645 61q201 0 331 143.5t130 340.5v6q0 195 -129 339t-332 144q-199 0 -324.5 -137t-125.5 -344v-2q0 -209 125.5 -349.5 t324.5 -140.5z" glyph-name="d" horiz-adv-x="1376" unicode="d"/><glyph d="M1139 532h-942q2 -193 131 -334t329 -141q125 0 225.5 61.5t155.5 164.5l70 -45q-63 -117 -184 -186.5t-271 -69.5q-233 0 -387.5 166.5t-154.5 400.5v4q0 223 152.5 391t373.5 168q252 0 377 -162t125 -399v-19zM197 606h858q-4 80 -29 151.5t-73 136t-130 103.5 t-190 39q-170 0 -298 -130t-138 -300z" glyph-name="e" horiz-adv-x="1243" unicode="e"/><glyph d="M649 1653v-76q-51 18 -108 18q-90 0 -146.5 -59t-56.5 -176v-266h301v-74h-301v-1020h-82v1020h-201v74h201v268q0 135 77 223t208 88q55 0 108 -20z" glyph-name="f" horiz-adv-x="669" unicode="f"/><glyph d="M1180 1094v-1090q0 -279 -149.5 -415t-387.5 -136q-197 0 -323.5 84t-206.5 252l71 41q33 -66 66 -112t86 -92t130 -70.5t175 -24.5q211 0 335 119t124 350v307q-57 -137 -180 -224t-279 -87q-238 0 -383 163t-145 396t147.5 395t380.5 162q156 0 278.5 -84t180.5 -221 v287h80zM1104 553v4q0 195 -129 336t-332 141q-199 0 -322.5 -135t-123.5 -342v-2q0 -207 123.5 -344t322.5 -137q201 0 331 141t130 338z" glyph-name="g" horiz-adv-x="1374" unicode="g"/><glyph d="M672 1112q203 0 318.5 -126t115.5 -329v-657h-82v641q0 188 -96.5 291.5t-268.5 103.5q-162 0 -273.5 -115.5t-111.5 -291.5v-629h-79v1667h79v-815q45 119 153 189.5t245 70.5z" glyph-name="h" horiz-adv-x="1284" unicode="h"/><glyph d="M156 1472.5q0 32.5 23.5 57t56 24.5t56 -23.5t23.5 -58t-23.5 -58t-56 -23.5t-56 24.5t-23.5 57zM276 1094v-1094h-81v1094h81z" glyph-name="i" horiz-adv-x="471" unicode="i"/><glyph d="M172 1472.5q0 34.5 23.5 58t56.5 23.5t56.5 -24.5t23.5 -57t-23.5 -57t-56.5 -24.5t-56.5 23.5t-23.5 58zM211 1094h80v-1348q0 -293 -279 -293q-43 0 -71 6v74q16 -2 65 -2q205 0 205 211v1352z" glyph-name="j" horiz-adv-x="485" unicode="j"/><glyph d="M281 578h-7v-578h-79v1667h79v-1049h5l598 476h120l-630 -496l659 -598h-117z" glyph-name="k" horiz-adv-x="1038" unicode="k"/><glyph d="M276 0h-81v1667h81v-1667z" glyph-name="l" horiz-adv-x="471" unicode="l"/><glyph d="M958 0v659q0 176 -90 276.5t-241 100.5q-135 0 -244 -110.5t-109 -280.5v-645h-79v1094h79v-228q39 98 133.5 172t227.5 74q152 0 246 -78t133 -205q45 117 146.5 200t238.5 83q197 0 300 -126t103 -318v-668h-80v655q0 178 -89 279.5t-244 101.5q-137 0 -244 -108.5 t-107 -280.5v-647h-80z" glyph-name="m" horiz-adv-x="1980" unicode="m"/><glyph d="M672 1112q203 0 318.5 -126t115.5 -329v-657h-82v641q0 188 -96.5 291.5t-268.5 103.5q-162 0 -273.5 -115.5t-111.5 -291.5v-629h-79v1094h79v-242q45 119 153 189.5t245 70.5z" glyph-name="n" horiz-adv-x="1284" unicode="n"/><glyph d="M670 -18q-236 0 -397.5 161.5t-161.5 399.5q0 242 160.5 405.5t400.5 163.5q238 0 398.5 -162t160.5 -399q0 -240 -159.5 -404.5t-401.5 -164.5zM668 1036q-203 0 -337 -141t-134 -346t135 -348.5t340 -143.5t340 141.5t135 346.5q0 207 -137 349t-342 142z" glyph-name="o" horiz-adv-x="1341" unicode="o"/><glyph d="M274 1094v-297q57 139 180.5 227t280.5 88q231 0 381 -166t150 -397.5t-148.5 -398t-382.5 -166.5q-160 0 -282.5 87t-178.5 224v-834h-79v1633h79zM731 61q203 0 327 138.5t124 345.5v2q0 207 -126 347t-325 140q-203 0 -332 -144.5t-129 -338.5v-6q0 -197 131 -340.5 t330 -143.5z" glyph-name="p" horiz-adv-x="1376" unicode="p"/><glyph d="M1104 -539v838q-57 -137 -181 -226t-282 -89q-236 0 -382 165.5t-146 399t149.5 398.5t378.5 165q160 0 281.5 -86t181.5 -225v293h78v-1633h-78zM645 61q201 0 331 143.5t130 340.5v6q0 195 -129 339t-332 144q-199 0 -324.5 -137t-125.5 -344v-2q0 -209 125.5 -349.5 t324.5 -140.5z" glyph-name="q" horiz-adv-x="1376" unicode="q"/><glyph d="M682 1108q14 0 20 -2v-80h-16q-195 0 -303.5 -138t-108.5 -337v-551h-79v1094h79v-285q43 129 158 214t250 85z" glyph-name="r" horiz-adv-x="724" unicode="r"/><glyph d="M133 815q0 133 112.5 215t252.5 82q262 0 364 -229l-71 -39q-86 193 -297 192q-102 0 -190.5 -61.5t-88.5 -157.5q0 -98 66.5 -145t218.5 -78q195 -41 284.5 -110.5t89.5 -200.5q0 -133 -111.5 -217t-258.5 -84q-283 0 -404 256l72 38q55 -113 134 -166t198 -53 q111 0 201 62.5t90 161t-71 148.5t-245 89q-176 39 -261 102.5t-85 194.5z" glyph-name="s" horiz-adv-x="991" unicode="s"/><glyph d="M334 1020v-723q0 -229 205 -229q41 0 88 10v-74q-53 -12 -95 -12q-279 0 -278 297v731h-207v74h207v313h80v-313h293v-74h-293z" glyph-name="t" horiz-adv-x="706" unicode="t"/><glyph d="M612 -20q-203 0 -318.5 126.5t-115.5 327.5v660h80v-643q0 -188 97.5 -292t269.5 -104q162 0 273.5 116t111.5 294v629h80v-1094h-80v242q-45 -119 -153 -190.5t-245 -71.5z" glyph-name="u" horiz-adv-x="1284" unicode="u"/><glyph d="M625 0h-84l-486 1094h90l437 -1008l438 1008h88z" glyph-name="v" horiz-adv-x="1163" unicode="v"/><glyph d="M147 1094l340 -998l353 998h80l350 -998l348 998h80l-387 -1094h-82l-348 983l-353 -983h-82l-387 1094h88z" glyph-name="w" horiz-adv-x="1757" unicode="w"/><glyph d="M164 1094l383 -482l387 482h92l-430 -535l448 -559h-100l-397 502l-408 -502h-94l453 555l-435 539h101z" glyph-name="x" horiz-adv-x="1091" unicode="x"/><glyph d="M1141 1094l-774 -1633h-86l284 602l-514 1031h90l467 -942l447 942h86z" glyph-name="y" horiz-adv-x="1183" unicode="y"/><glyph d="M932 1022l-758 -948h760v-74h-856v74l758 946h-740v74h836v-72z" glyph-name="z" horiz-adv-x="1019" unicode="z"/><glyph d="M406 387l-33 -217q-18 -115 -3 -187.5t96 -106.5t253 -34h35v-71h-49q-152 0 -246 30.5t-130 84t-44.5 127t10.5 161.5l33 227q25 164 -54 244t-208 80h-21v70h21q129 0 207.5 79.5t54.5 243.5l-33 228q-18 88 -10 161.5t44 127t130 84t246 30.5h49v-72h-35 q-172 0 -253 -33.5t-96.5 -106.5t3.5 -187l33 -220q12 -41 6 -99t-21.5 -111.5t-70 -98.5t-140.5 -59v-2q86 -14 140.5 -60.5t70 -100.5t21.5 -112.5t-6 -99.5z" glyph-name="braceleft" horiz-adv-x="829" unicode="{"/><glyph d="M301 1825v-2063h-78v2063h78z" glyph-name="bar" horiz-adv-x="524" unicode="|"/><glyph d="M455 170l-33 217q-12 41 -6 99.5t22.5 112.5t70.5 100t138 61v2q-84 14 -138 59t-70.5 98.5t-22.5 112t6 98.5l33 220q18 115 3.5 187.5t-95 106t-252.5 33.5h-35v72h49q152 0 246 -30.5t130 -84t44 -127t-10 -161.5l-33 -228q-25 -164 54 -243.5t208 -79.5h18v-70h-18 q-129 0 -208 -80t-54 -244l33 -227q18 -88 10 -161.5t-44 -127t-130.5 -84t-245.5 -30.5h-49v71h35q172 0 252.5 34t95 106.5t-3.5 187.5z" glyph-name="braceright" horiz-adv-x="829" unicode="}"/><glyph d="M848 461q-74 0 -126 35.5t-118 113.5q-63 80 -110.5 116t-106.5 36q-162 0 -172 -297h-68q2 182 64.5 278.5t175.5 96.5q74 0 132.5 -41t135.5 -135q100 -125 193 -125q164 0 174 295h68q-2 -182 -64.5 -277.5t-177.5 -95.5z" glyph-name="asciitilde" horiz-adv-x="1236" unicode="~"/><glyph d="M348 1030q0 -33 -23.5 -57.5t-56 -24.5t-56.5 23.5t-24 58.5t24 58.5t56.5 23.5t56 -24.5t23.5 -57.5zM305 668l4 -1178h-86l4 1178h78z" glyph-name="exclamdown" horiz-adv-x="534" unicode="¡"/><glyph d="M1073 336l76 -33q-47 -133 -163 -223t-290 -98v-191h-80v193q-213 20 -354 179t-141 382q0 225 142.5 385t352.5 180v195h80v-193q174 -8 290 -95t161 -222l-76 -33q-94 264 -379 274l2 -979q277 13 379 279zM207 549q0 -186 116.5 -326.5t294.5 -161.5v973 q-180 -20 -295.5 -158.5t-115.5 -326.5z" glyph-name="cent" horiz-adv-x="1249" unicode="¢"/><glyph d="M1149 256l57 -41q-47 -109 -141 -173.5t-211 -64.5q-84 0 -201.5 53.5t-193.5 53.5q-106 0 -283 -84l-43 76q168 109 247 212t79 242q0 86 -62 205h-272v76h231q-4 6 -22.5 37t-22.5 40t-20.5 36.5t-21.5 41t-16 39t-16.5 43t-11.5 41t-8 45t-2 44.5q0 168 139.5 306 t339.5 138q186 0 302 -92t159 -227l-72 -35q-37 125 -136 200.5t-251 75.5q-158 0 -277.5 -110.5t-119.5 -255.5q0 -37 7 -73t27.5 -80t32 -66.5t43 -79t40.5 -68.5h464v-76h-424q53 -113 54 -200q0 -244 -230 -406v-2q88 33 170 33q76 0 192 -53.5t183 -53.5q193 0 291 203 z" glyph-name="sterling" horiz-adv-x="1288" unicode="£"/><glyph d="M127 43l197 197q-123 133 -123 313t121 313l-195 197l55 55l197 -196q133 104 307 104q176 0 309 -104l197 196l55 -55l-194 -195q127 -133 127 -315t-127 -315l194 -195l-55 -55l-199 198q-135 -102 -307 -102q-170 0 -305 102l-199 -198zM1096 553q0 172 -120 285.5 t-290 113.5q-168 0 -285.5 -113.5t-117.5 -285.5t117.5 -283.5t285.5 -111.5q170 0 290 111.5t120 283.5z" glyph-name="currency" horiz-adv-x="1374" unicode="¤"/><glyph d="M80 1604h94l535 -838l530 838h96l-555 -859h437v-73h-469v-289h469v-76h-469v-307h-80v307h-471v76h471v289h-471v73h438z" glyph-name="yen" horiz-adv-x="1415" unicode="¥"/><glyph d="M299 1026h-80v799h80v-799zM299 561v-799h-80v799h80z" glyph-name="brokenbar" horiz-adv-x="518" unicode="¦"/><glyph d="M1071 260q0 -131 -111.5 -204.5t-279.5 -73.5q-182 0 -298 92t-169 227l68 39q119 -285 403 -285q139 0 223 58.5t84 146.5q0 96 -106.5 157.5t-343.5 110.5q-231 47 -339 120t-108 183q0 106 104.5 178t282.5 76v5q-246 86 -245 251q0 125 119.5 203t273.5 78 q164 0 272.5 -84t159.5 -213l-68 -37q-109 260 -368 260q-125 0 -215.5 -60.5t-90.5 -146.5q0 -94 108 -156.5t343 -111.5q231 -47 337.5 -118.5t106.5 -182.5q0 -106 -104 -179t-283 -75v-4q244 -82 244 -254zM758 1004q-145 31 -260 30q-137 0 -230.5 -56t-93.5 -140 q0 -82 87 -137.5t292 -100.5q152 -33 260 -33q137 0 230.5 58.5t93.5 140.5q0 78 -88 135.5t-291 102.5z" glyph-name="section" horiz-adv-x="1300" unicode="§"/><glyph d="M33 1450q0 35 23.5 59.5t56 24.5t55 -24.5t22.5 -59.5q0 -33 -22.5 -57.5t-55 -24.5t-56 24.5t-23.5 57.5zM354 1450q0 35 23.5 59.5t56.5 24.5t56.5 -24.5t23.5 -59.5q0 -33 -23.5 -57.5t-56.5 -24.5t-56.5 24.5t-23.5 57.5z" glyph-name="dieresis" horiz-adv-x="538" unicode="¨"/><glyph d="M1733 803q0 -338 -236.5 -577.5t-570.5 -239.5t-568.5 239.5t-234.5 577.5q0 340 234.5 578.5t568.5 238.5t570.5 -238.5t236.5 -578.5zM1659 803q0 311 -214 530t-519 219t-518 -219t-213 -530q0 -309 213 -527.5t518 -218.5t519 218.5t214 527.5zM1368 590 q-43 -125 -152.5 -207t-273.5 -82q-205 0 -346 144.5t-141 355.5t142 357.5t345 146.5q166 0 273.5 -79t150.5 -206l-72 -33q-86 244 -352 244q-174 0 -289.5 -125t-115.5 -301t117.5 -304t289.5 -128q256 0 352 248z" glyph-name="copyright" horiz-adv-x="1855" unicode="©"/><glyph d="M872 979h-4q-41 -86 -122.5 -143.5t-182.5 -57.5q-166 0 -270.5 117t-104.5 278.5t106.5 277.5t270.5 116q100 0 180 -54.5t123 -144.5h4v184h74v-761h-74v188zM874 1171v3q0 129 -86 225t-221 96q-133 0 -217 -90t-84 -229v-2q0 -137 83 -230.5t218 -93.5q133 0 220 95 t87 226zM946 537v-70h-747v70h747z" glyph-name="ordfeminine" horiz-adv-x="1161" unicode="ª"/><glyph d="M109 616l372 365l51 -49l-321 -316l321 -309l-51 -49zM537 616l372 365l54 -49l-324 -316l324 -309l-54 -49z" glyph-name="guillemotleft" horiz-adv-x="1124" unicode="«"/><glyph d="M1096 987h-953v62h1018v-498h-65v436z" glyph-name="logicalnot" horiz-adv-x="1343" unicode="¬"/><glyph d="M639 563q-215 0 -367.5 154.5t-152.5 374t152.5 374t367.5 154.5q217 0 369.5 -154.5t152.5 -374t-152.5 -374t-369.5 -154.5zM639 1563q-188 0 -322.5 -138.5t-134.5 -333t134.5 -332.5t322.5 -138q190 0 323.5 138t133.5 332.5t-133.5 333t-323.5 138.5zM455 1395h209 q104 0 158.5 -50.5t54.5 -125.5q0 -74 -47.5 -119t-118.5 -56l176 -256h-76l-170 244h-125v-244h-61v607zM811 1214.5q0 51.5 -36 86t-116 34.5h-143v-243h141q78 0 116 35.5t38 87z" glyph-name="registered" horiz-adv-x="1280" unicode="®"/><glyph d="M41 1313v76h684v-76h-684z" glyph-name="macron" horiz-adv-x="765" unicode="¯"/><glyph d="M121 1262q0 147 104.5 252.5t254 105.5t254 -105.5t104.5 -252.5q0 -150 -104.5 -254.5t-254 -104.5t-254 104.5t-104.5 254.5zM193 1261.5q0 -118.5 83.5 -202.5t202.5 -84t203 84t84 202.5t-84 201.5t-203 83t-202.5 -83t-83.5 -201.5z" glyph-name="degree" horiz-adv-x="958" unicode="°"/><glyph d="M621 1264h79v-439h443v-73h-443v-445h-79v445h-453v73h453v439zM168 74h975v-74h-975v74z" glyph-name="plusminus" horiz-adv-x="1308" unicode="±"/><glyph d="M145 944l328 270q119 100 173 172t54 152q0 92 -63.5 152.5t-161.5 60.5q-80 0 -139 -41q-76 -51 -113 -156l-71 31q31 102 116.5 171t204.5 69q135 0 220 -83t85 -202q0 -88 -51 -170q-51 -78 -182 -186l-291 -240h532v-72h-641v72z" glyph-name="uni00B2" horiz-adv-x="946" unicode="²"/><glyph d="M434 856q-119 0 -205 64.5t-120 173.5l71 30q29 -88 96.5 -141t159.5 -53q102 0 173 53t71 135q0 90 -65.5 142.5t-180.5 52.5h-110v67h112q98 0 160.5 52.5t62.5 138.5q0 74 -61 127t-162 53q-76 0 -141 -41q-78 -55 -111 -151l-71 30q33 104 118.5 170t206.5 66 q129 0 213 -73t84 -179q0 -78 -52 -141.5t-126 -81.5q88 -18 143.5 -82t55.5 -156q0 -104 -91.5 -180t-230.5 -76z" glyph-name="uni00B3" horiz-adv-x="880" unicode="³"/><glyph d="M350 1632l-248 -352h-73l229 352h92z" glyph-name="acute" horiz-adv-x="366" unicode="´"/><glyph d="M299 1094v-650q0 -109 25 -174q82 -215 340 -215q162 0 273.5 116t111.5 294v629h79v-1094h-79v242q-45 -119 -153 -190.5t-245 -71.5q-256 0 -354 198v-514h-80v1430h82z" glyph-name="uni00B5" horiz-adv-x="1347" unicode="µ"/><glyph d="M725 827h-225q-174 0 -297 114t-123 275.5t123 274.5t297 113h311v-1604h-86v827z" glyph-name="paragraph" horiz-adv-x="1058" unicode="¶"/><glyph d="M252 557q-37 0 -62.5 26.5t-25.5 61.5q0 37 25.5 63.5t62.5 26.5t63.5 -26.5t26.5 -63.5q0 -35 -26.5 -61.5t-63.5 -26.5z" glyph-name="periodcentered" horiz-adv-x="503" unicode="·"/><glyph d="M102 -494q-33 0 -61 7v69q37 -4 53 -4q133 0 205 74t72 211q0 59 -15 137h68q27 -66 27 -141q0 -211 -154 -303q-80 -50 -195 -50z" glyph-name="cedilla" horiz-adv-x="491" unicode="¸"/><glyph d="M399 870h-75v852l-226 -131l-32 56l264 157h69v-934z" glyph-name="uni00B9" horiz-adv-x="577" unicode="¹"/><glyph d="M580 778q-168 0 -280 113t-112 278q0 168 112 283t282 115q166 0 278.5 -113t112.5 -278q0 -168 -111.5 -283t-281.5 -115zM578 1495q-135 0 -224.5 -92t-89.5 -229q0 -135 90 -229.5t228 -94.5q135 0 225 93t90 228.5t-91 229.5t-228 94zM963 537v-70h-764v70h764z" glyph-name="ordmasculine" horiz-adv-x="1161" unicode="º"/><glyph d="M483 616l-321 316l51 49l375 -365l-375 -358l-51 49zM911 616l-319 316l51 49l373 -365l-373 -358l-51 49z" glyph-name="guillemotright" horiz-adv-x="1124" unicode="»"/><glyph d="M334 672v850l-223 -131l-33 55l262 158h70v-932h-76zM1331 1604l-1040 -1604h-90l1042 1604h88zM1350 936v-660h157v-69h-157v-207h-74v207h-516v78l512 651h78zM838 276h438v558z" glyph-name="onequarter" horiz-adv-x="1595" unicode="¼"/><glyph d="M334 672v850l-223 -131l-33 55l262 158h70v-932h-76zM1331 1604l-1040 -1604h-90l1042 1604h88zM942 72l328 270q119 100 173 172t54 152q0 92 -63.5 152.5t-161.5 60.5q-80 0 -139 -41q-76 -51 -113 -156l-72 31q31 102 117 170.5t205 68.5q135 0 220 -83t85 -201 q0 -88 -51 -170q-51 -78 -183 -187l-290 -239h532v-72h-641v72z" glyph-name="onehalf" horiz-adv-x="1693" unicode="½"/><glyph d="M422 653q-119 0 -205 64.5t-121 173.5l72 31q29 -88 96.5 -141.5t159.5 -53.5q102 0 173 53.5t71 134.5q0 90 -65.5 142.5t-180.5 52.5h-111v68h113q98 0 160.5 52t62.5 138q0 74 -61.5 127t-161.5 53q-76 0 -141 -41q-78 -55 -111 -151l-72 30q33 104 119 170t207 66 q129 0 213 -72.5t84 -179.5q0 -78 -52.5 -141.5t-125.5 -81.5q88 -18 143 -82t55 -156q0 -104 -91 -180t-230 -76zM1550 1604l-1040 -1604h-90l1042 1604h88zM1569 936v-660h157v-69h-157v-207h-74v207h-516v78l512 651h78zM1057 276h438v558z" glyph-name="threequarters" horiz-adv-x="1810" unicode="¾"/><glyph d="M645 1030q0 -35 -23.5 -58.5t-56.5 -23.5t-56.5 24.5t-23.5 57.5t23.5 57.5t56.5 24.5t56.5 -23.5t23.5 -58.5zM606 717v-119q0 -123 -48 -201t-155 -170l-61 -51q-78 -68 -121 -138.5t-43 -172.5q0 -131 92 -223.5t236 -92.5q119 0 214 76t138 205l74 -37 q-51 -150 -168 -235.5t-258 -85.5q-178 0 -296 113.5t-118 279.5q0 125 55.5 214t165.5 179q119 96 164 167t45 175v117h84z" glyph-name="questiondown" horiz-adv-x="1001" unicode="¿"/><glyph d="M739 1749l-247 354h92l229 -354h-74zM14 0l709 1604h92l709 -1604h-92l-199 457h-930l-201 -457h-88zM766 1511l-428 -976h860z" glyph-name="Agrave" horiz-adv-x="1538" unicode="À"/><glyph d="M1053 2103l-248 -354h-76l232 354h92zM1524 0h-92l-199 457h-930l-201 -457h-88l709 1604h92zM1198 535l-432 976l-428 -976h860z" glyph-name="Aacute" horiz-adv-x="1538" unicode="Á"/><glyph d="M1008 1749l-240 291l-238 -291h-77l272 354h88l272 -354h-77zM1524 0h-92l-199 457h-930l-201 -457h-88l709 1604h92zM1198 535l-432 976l-428 -976h860z" glyph-name="Acircumflex" horiz-adv-x="1538" unicode="Â"/><glyph d="M508 1749h-66q-2 119 43 186.5t125 67.5q88 0 189 -105q74 -76 125 -75q106 0 110 178h66q2 -117 -43 -185.5t-125 -68.5q-51 0 -88 21.5t-94 78.5q-80 80 -134 80q-104 0 -108 -178zM1524 0h-92l-199 457h-930l-201 -457h-88l709 1604h92zM1198 535l-432 976l-428 -976 h860z" glyph-name="Atilde" horiz-adv-x="1538" unicode="Ã"/><glyph d="M520 1921q0 35 22.5 58.5t55.5 23.5t56.5 -23.5t23.5 -58.5t-23.5 -58.5t-56.5 -23.5t-55.5 23.5t-22.5 58.5zM862 1921q0 35 22.5 58.5t55.5 23.5q35 0 58.5 -24.5t23.5 -57.5t-23.5 -57.5t-58.5 -24.5q-33 0 -55.5 23.5t-22.5 58.5zM1524 0h-92l-199 457h-930 l-201 -457h-88l709 1604h92zM1198 535l-432 976l-428 -976h860z" glyph-name="Adieresis" horiz-adv-x="1538" unicode="Ä"/><glyph d="M561 1733q0 84 60.5 144t144.5 60t144.5 -60t60.5 -144q0 -63 -36 -112.5t-95 -72.5l684 -1548h-92l-199 457h-930l-201 -457h-88l682 1546q-59 20 -97 70.5t-38 116.5zM766 1870q-57 0 -95 -38t-38 -97q0 -57 38 -97.5t95 -40.5t95 40t38 98q0 55 -39 95t-94 40z M338 535h860l-432 976z" glyph-name="Aring" horiz-adv-x="1538" unicode="Å"/><glyph d="M1112 1528v-672h768v-78h-768v-700h848v-78h-932v457h-672l-276 -457h-92l970 1604h994v-76h-840zM401 535h627v993h-27z" glyph-name="AE" horiz-adv-x="2086" unicode="Æ"/><glyph d="M1550 522l74 -35q-29 -82 -81 -160.5t-131 -154.5t-195.5 -127t-251.5 -59l-7 -2q20 -53 21 -125q0 -213 -154 -303q-80 -49 -194 -50q-33 0 -62 7v69q37 -4 54 -4q135 0 205.5 73t70.5 212q0 59 -12 119l-6 2q-332 8 -546 242.5t-214 574.5q0 344 223 582.5t565 238.5 q145 0 270.5 -46t210.5 -122t142 -160t88 -174l-74 -35q-29 82 -79 157t-125.5 145.5t-188.5 113.5t-248 43q-303 0 -500.5 -215t-197.5 -522q0 -309 197.5 -528.5t502.5 -219.5q141 0 259 48.5t194 126t119.5 148t70.5 140.5z" glyph-name="Ccedilla" horiz-adv-x="1716" unicode="Ç"/><glyph d="M698 1749l-247 354h92l229 -354h-74zM1130 778h-806v-700h886v-78h-972v1604h962v-76h-876v-672h806v-78z" glyph-name="Egrave" horiz-adv-x="1337" unicode="È"/><glyph d="M993 2103l-248 -354h-73l229 354h92zM1130 856v-78h-806v-700h886v-78h-972v1604h962v-76h-876v-672h806z" glyph-name="Eacute" horiz-adv-x="1337" unicode="É"/><glyph d="M963 1749l-238 291l-240 -291h-77l272 354h88l272 -354h-77zM1130 856v-78h-806v-700h886v-78h-972v1604h962v-76h-876v-672h806z" glyph-name="Ecircumflex" horiz-adv-x="1337" unicode="Ê"/><glyph d="M467 1921q0 35 23.5 58.5t56.5 23.5t55.5 -23.5t22.5 -58.5t-22.5 -58.5t-55.5 -23.5t-56.5 23.5t-23.5 58.5zM809 1921q0 33 23.5 57.5t56.5 24.5t56.5 -24.5t23.5 -57.5t-23.5 -57.5t-56.5 -24.5t-56.5 24.5t-23.5 57.5zM324 1528v-672h806v-78h-806v-700h886v-78h-972 v1604h962v-76h-876z" glyph-name="Edieresis" horiz-adv-x="1337" unicode="Ë"/><glyph d="M250 1749l-250 354h92l232 -354h-74zM238 0v1604h86v-1604h-86z" glyph-name="Igrave" horiz-adv-x="561" unicode="Ì"/><glyph d="M561 2103l-250 -354h-73l231 354h92zM324 0h-86v1604h86v-1604z" glyph-name="Iacute" horiz-adv-x="561" unicode="Í"/><glyph d="M518 1749l-237 291l-238 -291h-80l273 354h90l272 -354h-80zM324 0h-86v1604h86v-1604z" glyph-name="Icircumflex" horiz-adv-x="561" unicode="Î"/><glyph d="M41 1919q0 35 23.5 59.5t56.5 24.5t55.5 -24.5t22.5 -59.5q0 -33 -22.5 -57.5t-55.5 -24.5t-56.5 24.5t-23.5 57.5zM362 1919q0 35 24 59.5t56.5 24.5t56 -24.5t23.5 -59.5q0 -33 -23.5 -57.5t-56 -24.5t-56.5 24.5t-24 57.5zM324 0h-86v1604h86v-1604z" glyph-name="Idieresis" horiz-adv-x="561" unicode="Ï"/><glyph d="M240 1604h426q369 0 613.5 -228.5t244.5 -574.5q0 -352 -244 -576.5t-614 -224.5h-426v778h-168v78h168v748zM324 78h344q332 0 551 202.5t219 518t-220.5 522.5t-551.5 207h-342v-672h557v-78h-557v-700z" glyph-name="Eth" horiz-adv-x="1642" unicode="Ð"/><glyph d="M610 1749h-65q-2 119 43 186.5t125 67.5q88 0 188 -105q74 -76 125 -75q106 0 111 178h65q2 -117 -43 -185.5t-125 -68.5q-51 0 -88 21.5t-94 78.5q-80 80 -133 80q-105 0 -109 -178zM322 0h-84v1604h102l1081 -1483v1483h84v-1604h-96l-1087 1491v-1491z" glyph-name="Ntilde" horiz-adv-x="1742" unicode="Ñ"/><glyph d="M879 1749l-250 354h92l231 -354h-73zM907 -16q-340 0 -563 236.5t-223 580.5t223 582.5t565 238.5t565.5 -237.5t223.5 -579.5q0 -346 -224.5 -583.5t-566.5 -237.5zM907 1544q-303 0 -501.5 -215t-198.5 -522q0 -311 199.5 -529.5t504.5 -218.5q303 0 502 216.5 t199 523.5t-200 526t-505 219z" glyph-name="Ograve" horiz-adv-x="1818" unicode="Ò"/><glyph d="M1190 2103l-250 -354h-74l232 354h92zM907 -16q-340 0 -563 236.5t-223 580.5t223 582.5t565 238.5t565.5 -237.5t223.5 -579.5q0 -346 -224.5 -583.5t-566.5 -237.5zM907 1544q-303 0 -501.5 -215t-198.5 -522q0 -311 199.5 -529.5t504.5 -218.5q303 0 502 216.5 t199 523.5t-200 526t-505 219z" glyph-name="Oacute" horiz-adv-x="1816" unicode="Ó"/><glyph d="M1147 1749l-240 291l-237 -291h-78l270 354h90l273 -354h-78zM907 -16q-340 0 -563 236.5t-223 580.5t223 582.5t565 238.5t565.5 -237.5t223.5 -579.5q0 -346 -224.5 -583.5t-566.5 -237.5zM907 1544q-303 0 -501.5 -215t-198.5 -522q0 -311 199.5 -529.5t504.5 -218.5 q303 0 502 216.5t199 523.5t-200 526t-505 219z" glyph-name="Ocircumflex" horiz-adv-x="1816" unicode="Ô"/><glyph d="M647 1749h-65q-2 119 43 186.5t125 67.5q88 0 188 -105q74 -76 125 -75q106 0 111 178h65q2 -117 -43 -185.5t-125 -68.5q-51 0 -88 21.5t-94 78.5q-80 80 -133 80q-105 0 -109 -178zM907 -16q-340 0 -563 236.5t-223 580.5t223 582.5t565 238.5t565.5 -237.5 t223.5 -579.5q0 -346 -224.5 -583.5t-566.5 -237.5zM907 1544q-303 0 -501.5 -215t-198.5 -522q0 -311 199.5 -529.5t504.5 -218.5q303 0 502 216.5t199 523.5t-200 526t-505 219z" glyph-name="Otilde" horiz-adv-x="1816" unicode="Õ"/><glyph d="M659 1921q0 35 23 58.5t55.5 23.5t56 -23.5t23.5 -58.5t-23.5 -58.5t-56 -23.5t-55.5 23.5t-23 58.5zM1001 1921q0 35 23 58.5t55.5 23.5t56 -23.5t23.5 -58.5t-23.5 -58.5t-56 -23.5t-55.5 23.5t-23 58.5zM907 -16q-340 0 -563 236.5t-223 580.5t223 582.5t565 238.5 t565.5 -237.5t223.5 -579.5q0 -346 -224.5 -583.5t-566.5 -237.5zM907 1544q-303 0 -501.5 -215t-198.5 -522q0 -311 199.5 -529.5t504.5 -218.5q303 0 502 216.5t199 523.5t-200 526t-505 219z" glyph-name="Odieresis" horiz-adv-x="1816" unicode="Ö"/><glyph d="M596 711l420 432l53 -53l-422 -435l422 -432l-53 -53l-420 432l-410 -420l-53 54l410 419l-418 432l53 52z" glyph-name="multiply" horiz-adv-x="1200" unicode="×"/><glyph d="M1706 1630l-225 -250q221 -233 221 -575q0 -346 -224.5 -583.5t-566.5 -237.5q-299 0 -510 184l-223 -250l-55 51l223 250q-221 238 -221 582t223 582.5t565 238.5q297 0 514 -190l224 249zM211 807q0 -309 192 -524l969 1085q-197 176 -461 176q-303 0 -501.5 -215 t-198.5 -522zM915 59q303 0 502 216.5t199 523.5q0 299 -193 518l-968 -1086q194 -172 460 -172z" glyph-name="Oslash" horiz-adv-x="1824" unicode="Ø"/><glyph d="M778 1749l-248 354h93l231 -354h-76zM1296 1604h84v-975q0 -297 -150.5 -472t-428.5 -175q-283 0 -434.5 175t-151.5 468v979h86v-977q0 -276 134 -422t368 -146q248 0 370.5 151.5t122.5 414.5v979z" glyph-name="Ugrave" horiz-adv-x="1597" unicode="Ù"/><glyph d="M1069 2103l-248 -354h-73l231 354h90zM1380 1604v-975q0 -297 -150.5 -472t-428.5 -175q-283 0 -434.5 175t-151.5 468v979h86v-977q0 -276 134 -422t368 -146q248 0 370.5 151.5t122.5 414.5v979h84z" glyph-name="Uacute" horiz-adv-x="1597" unicode="Ú"/><glyph d="M1036 1749l-237 291l-238 -291h-80l273 354h90l272 -354h-80zM1380 1604v-975q0 -297 -150.5 -472t-428.5 -175q-283 0 -434.5 175t-151.5 468v979h86v-977q0 -276 134 -422t368 -146q248 0 370.5 151.5t122.5 414.5v979h84z" glyph-name="Ucircumflex" horiz-adv-x="1597" unicode="Û"/><glyph d="M549 1921q0 33 23.5 57.5t56.5 24.5t56.5 -24.5t23.5 -57.5t-23.5 -57.5t-56.5 -24.5t-56.5 24.5t-23.5 57.5zM893 1921q0 35 22.5 58.5t55.5 23.5t56.5 -23.5t23.5 -58.5t-23.5 -58.5t-56.5 -23.5t-55.5 23.5t-22.5 58.5zM1380 1604v-975q0 -297 -150.5 -472 t-428.5 -175q-283 0 -434.5 175t-151.5 468v979h86v-977q0 -276 134 -422t368 -146q248 0 370.5 151.5t122.5 414.5v979h84z" glyph-name="Udieresis" horiz-adv-x="1597" unicode="Ü"/><glyph d="M1004 2103l-250 -354h-74l231 354h93zM1305 1604h100l-629 -916v-688h-84v688l-629 916h103l569 -838z" glyph-name="Yacute" horiz-adv-x="1468" unicode="Ý"/><glyph d="M322 1286h368q301 0 444.5 -135t143.5 -330q0 -211 -153.5 -346t-452.5 -135h-350v-340h-84v1606h84v-320zM322 418h350q266 0 393 114.5t127 282.5q0 166 -122 279.5t-388 113.5h-360v-790z" glyph-name="Thorn" horiz-adv-x="1355" unicode="Þ"/><glyph d="M1130 279q0 90 -57 153.5t-186 126.5q-154 78 -217.5 135.5t-63.5 136.5q0 72 44 134.5t145 146.5q92 78 131 128t39 103q0 113 -86 183.5t-228 70.5q-176 0 -276.5 -125.5t-100.5 -334.5v-1137h-79v1133q0 248 123.5 394t332.5 146q182 0 291 -93t109 -234 q0 -74 -45 -135.5t-156 -151.5q-88 -72 -124 -122t-36 -103.5t52.5 -95.5t193.5 -115q158 -80 217 -160q59 -82 59 -180q0 -137 -102 -219t-240 -82q-262 0 -381 223l68 45q102 -193 315 -193q100 0 179 61t79 161z" glyph-name="germandbls" horiz-adv-x="1284" unicode="ß"/><glyph d="M567 1280l-250 352h93l231 -352h-74zM897 0v242q-61 -125 -173 -192.5t-243 -67.5q-158 0 -262 80.5t-104 230.5q0 156 128 234.5t300 78.5h354v76q0 166 -86 260t-248 94q-252 0 -364 -223l-72 41q55 119 165.5 188.5t268.5 69.5q190 0 304 -110.5t114 -313.5v-688h-82z M899 532h-352q-137 0 -242.5 -58t-105.5 -179q0 -115 79.5 -176.5t204.5 -61.5q174 0 295 107.5t121 284.5v83z" glyph-name="agrave" horiz-adv-x="1157" unicode="à"/><glyph d="M846 1632l-250 -352h-74l232 352h92zM897 0v242q-61 -125 -173 -192.5t-243 -67.5q-158 0 -262 80.5t-104 230.5q0 156 128 234.5t300 78.5h354v76q0 166 -86 260t-248 94q-252 0 -364 -223l-72 41q55 119 165.5 188.5t268.5 69.5q190 0 304 -110.5t114 -313.5v-688h-82z M899 532h-352q-137 0 -242.5 -58t-105.5 -179q0 -115 79.5 -176.5t204.5 -61.5q174 0 295 107.5t121 284.5v83z" glyph-name="aacute" horiz-adv-x="1157" unicode="á"/><glyph d="M803 1280l-240 291l-237 -291h-78l270 352h90l273 -352h-78zM897 0v242q-61 -125 -173 -192.5t-243 -67.5q-158 0 -262 80.5t-104 230.5q0 156 128 234.5t300 78.5h354v76q0 166 -86 260t-248 94q-252 0 -364 -223l-72 41q55 119 165.5 188.5t268.5 69.5 q190 0 304 -110.5t114 -313.5v-688h-82zM899 532h-352q-137 0 -242.5 -58t-105.5 -179q0 -115 79.5 -176.5t204.5 -61.5q174 0 295 107.5t121 284.5v83z" glyph-name="acircumflex" horiz-adv-x="1157" unicode="â"/><glyph d="M299 1280h-66q-2 119 43.5 186.5t124.5 67.5q88 0 189 -104q74 -76 125 -76q106 0 110 178h66q2 -117 -43 -185.5t-125 -68.5q-51 0 -88 21.5t-94 78.5q-80 80 -133 80q-105 0 -109 -178zM897 0v242q-61 -125 -173 -192.5t-243 -67.5q-158 0 -262 80.5t-104 230.5 q0 156 128 234.5t300 78.5h354v76q0 166 -86 260t-248 94q-252 0 -364 -223l-72 41q55 119 165.5 188.5t268.5 69.5q190 0 304 -110.5t114 -313.5v-688h-82zM899 532h-352q-137 0 -242.5 -58t-105.5 -179q0 -115 79.5 -176.5t204.5 -61.5q174 0 295 107.5t121 284.5v83z" glyph-name="atilde" horiz-adv-x="1157" unicode="ã"/><glyph d="M309 1450q0 35 23.5 59.5t56.5 24.5t56.5 -24.5t23.5 -59.5q0 -33 -23.5 -57.5t-56.5 -24.5t-56.5 24.5t-23.5 57.5zM633 1450q0 35 23.5 59.5t56 24.5t56.5 -24.5t24 -59.5q0 -33 -24 -57.5t-56.5 -24.5t-56 24.5t-23.5 57.5zM897 0v242q-61 -125 -173 -192.5 t-243 -67.5q-158 0 -262 80.5t-104 230.5q0 156 128 234.5t300 78.5h354v76q0 166 -86 260t-248 94q-252 0 -364 -223l-72 41q55 119 165.5 188.5t268.5 69.5q190 0 304 -110.5t114 -313.5v-688h-82zM899 532h-352q-137 0 -242.5 -58t-105.5 -179q0 -115 79.5 -176.5 t204.5 -61.5q174 0 295 107.5t121 284.5v83z" glyph-name="adieresis" horiz-adv-x="1157" unicode="ä"/><glyph d="M700 1094q131 -35 205 -139.5t74 -266.5v-688h-82v242q-61 -125 -173 -192.5t-243 -67.5q-158 0 -262 80.5t-104 230.5q0 156 128 234.5t300 78.5h354v76q0 166 -86 260t-248 94q-252 0 -364 -223l-72 41q90 188 293 242q-66 55 -66 137q0 84 60.5 143.5t144.5 59.5 q86 0 145.5 -59.5t59.5 -143.5q-1 -82 -64 -139zM559 1366q-57 0 -95 -38t-38 -97.5t38 -97t95 -37.5t95 37.5t38 97.5q0 55 -39 95t-94 40zM899 532h-352q-137 0 -242.5 -58t-105.5 -179q0 -115 79.5 -176.5t204.5 -61.5q174 0 295 107.5t121 284.5v83z" glyph-name="aring" horiz-adv-x="1157" unicode="å"/><glyph d="M885 805q-59 231 -322 231q-252 0 -364 -223l-72 41q55 119 165.5 188.5t268.5 69.5q270 0 373 -223q70 100 180.5 161.5t235.5 61.5q131 0 229 -47t155.5 -128t86 -178t28.5 -208v-19h-944q4 -193 134 -334t329 -141q125 0 225.5 61.5t155.5 164.5l70 -45 q-63 -117 -183 -186.5t-270 -69.5q-143 0 -261 67.5t-190 181.5q-61 -119 -176.5 -184t-253.5 -65h-4q-158 0 -262 80.5t-104 230.5q0 156 128 234.5t300 78.5h286q11 107 56 199zM905 606h858q-8 174 -109.5 302t-307.5 128q-172 0 -301.5 -130t-139.5 -300zM874 307 q-45 106 -47 225h-280q-137 0 -242.5 -58t-105.5 -179q0 -115 79.5 -176.5t204.5 -61.5q123 0 235.5 67.5t155.5 182.5z" glyph-name="ae" horiz-adv-x="1955" unicode="æ"/><glyph d="M1063 336l76 -33q-45 -125 -150.5 -214t-265.5 -105q18 -55 18 -125q0 -211 -151 -303q-80 -49 -197 -50q-35 0 -59 7v69q33 -4 51 -4q135 0 206 73t71 212q0 59 -13 119q-227 4 -382.5 165.5t-155.5 397.5q0 240 159.5 403.5t388.5 163.5q184 0 307.5 -89t170.5 -228 l-76 -33q-98 274 -402 274q-199 0 -330.5 -143t-131.5 -344t134 -346.5t331 -145.5q295 0 401 279z" glyph-name="ccedilla" horiz-adv-x="1239" unicode="ç"/><glyph d="M449 1632l231 -352h-74l-250 352h93zM1139 532h-942q2 -193 131 -334t329 -141q125 0 225.5 61.5t155.5 164.5l70 -45q-63 -117 -184 -186.5t-271 -69.5q-233 0 -387.5 166.5t-154.5 400.5v4q0 223 152.5 391t373.5 168q252 0 377 -162t125 -399v-19zM197 606h858 q-4 80 -29 151.5t-73 136t-130 103.5t-190 39q-170 0 -298 -130t-138 -300z" glyph-name="egrave" horiz-adv-x="1243" unicode="è"/><glyph d="M911 1632l-249 -352h-74l231 352h92zM1139 532h-942q2 -193 131 -334t329 -141q125 0 225.5 61.5t155.5 164.5l70 -45q-63 -117 -184 -186.5t-271 -69.5q-233 0 -387.5 166.5t-154.5 400.5v4q0 223 152.5 391t373.5 168q252 0 377 -162t125 -399v-19zM197 606h858 q-4 80 -29 151.5t-73 136t-130 103.5t-190 39q-170 0 -298 -130t-138 -300z" glyph-name="eacute" horiz-adv-x="1243" unicode="é"/><glyph d="M879 1280l-240 291l-238 -291h-77l272 352h88l272 -352h-77zM1139 532h-942q2 -193 131 -334t329 -141q125 0 225.5 61.5t155.5 164.5l70 -45q-63 -117 -184 -186.5t-271 -69.5q-233 0 -387.5 166.5t-154.5 400.5v4q0 223 152.5 391t373.5 168q252 0 377 -162t125 -399 v-19zM197 606h858q-4 80 -29 151.5t-73 136t-130 103.5t-190 39q-170 0 -298 -130t-138 -300z" glyph-name="ecircumflex" horiz-adv-x="1243" unicode="ê"/><glyph d="M391 1450q0 35 23.5 59.5t56.5 24.5t56.5 -24.5t23.5 -59.5q0 -33 -23.5 -57.5t-56.5 -24.5t-56.5 24.5t-23.5 57.5zM715 1450q0 35 23.5 59.5t56 24.5t56 -24.5t23.5 -59.5q0 -33 -23.5 -57.5t-56 -24.5t-56 24.5t-23.5 57.5zM1139 532h-942q2 -193 131 -334t329 -141 q125 0 225.5 61.5t155.5 164.5l70 -45q-63 -117 -184 -186.5t-271 -69.5q-233 0 -387.5 166.5t-154.5 400.5v4q0 223 152.5 391t373.5 168q252 0 377 -162t125 -399v-19zM197 606h858q-4 80 -29 151.5t-73 136t-130 103.5t-190 39q-170 0 -298 -130t-138 -300z" glyph-name="edieresis" horiz-adv-x="1243" unicode="ë"/><glyph d="M205 1280l-250 352h92l232 -352h-74zM276 1094v-1094h-81v1094h81z" glyph-name="igrave" horiz-adv-x="471" unicode="ì"/><glyph d="M516 1632l-248 -352h-73l231 352h90zM279 1094v-1094h-84v1094h84z" glyph-name="iacute" horiz-adv-x="473" unicode="í"/><glyph d="M475 1280l-239 291l-238 -291h-80l272 352h93l272 -352h-80zM279 1094v-1094h-84v1094h84z" glyph-name="icircumflex" horiz-adv-x="473" unicode="î"/><glyph d="M-2 1450q0 35 23.5 59.5t56.5 24.5t56.5 -24.5t23.5 -59.5q0 -33 -23.5 -57.5t-56.5 -24.5t-56.5 24.5t-23.5 57.5zM322 1450q0 35 22.5 59.5t55 24.5t56 -24.5t23.5 -59.5q0 -33 -23.5 -57.5t-56 -24.5t-55 24.5t-22.5 57.5zM279 1094v-1094h-84v1094h84z" glyph-name="idieresis" horiz-adv-x="473" unicode="ï"/><glyph d="M981 1567l-244 -113q487 -395 488 -864v-15q0 -248 -162 -420.5t-397.5 -172.5t-395 161.5t-159.5 399.5q0 231 155.5 397t390.5 166q260 0 449 -234h2q-119 289 -453 545l-346 -157l-33 63l314 143q-41 31 -215 144l43 63q168 -102 256 -168l274 125zM668 57 q199 0 338 146.5t139 351.5q0 109 -21 184q-41 104 -177 196.5t-283 92.5q-203 0 -335 -139t-132 -340q0 -207 133 -349.5t338 -142.5z" glyph-name="eth" horiz-adv-x="1345" unicode="ð"/><glyph d="M389 1280h-65q-2 119 43 186.5t125 67.5q88 0 188 -104q74 -76 125 -76q106 0 110 178h66q2 -117 -43 -185.5t-125 -68.5q-51 0 -88 21.5t-94 78.5q-80 80 -133 80q-105 0 -109 -178zM672 1112q205 0 319.5 -126t114.5 -329v-657h-80v641q0 188 -96 291.5t-271 103.5 q-160 0 -271.5 -115.5t-111.5 -291.5v-629h-81v1094h81v-242q45 119 152 189.5t244 70.5z" glyph-name="ntilde" horiz-adv-x="1284" unicode="ñ"/><glyph d="M643 1280l-250 352h92l232 -352h-74zM672 -18q-238 0 -399.5 162.5t-161.5 398.5q0 240 161.5 404.5t401.5 164.5q238 0 398.5 -162t160.5 -399q0 -240 -159.5 -404.5t-401.5 -164.5zM668 1036q-203 0 -337 -141t-134 -346t135 -348.5t340 -143.5t340 141.5t135 346.5 q0 207 -137 349t-342 142z" glyph-name="ograve" horiz-adv-x="1343" unicode="ò"/><glyph d="M956 1632l-247 -352h-74l229 352h92zM672 -18q-238 0 -399.5 161.5t-161.5 399.5q0 240 161.5 404.5t401.5 164.5q236 0 396.5 -162t160.5 -399q0 -240 -159.5 -404.5t-399.5 -164.5zM668 1036q-203 0 -337 -141t-134 -346t135 -348.5t340 -143.5t340 141.5t135 346.5 q0 207 -137 349t-342 142z" glyph-name="oacute" horiz-adv-x="1341" unicode="ó"/><glyph d="M909 1280l-237 291l-240 -291h-78l273 352h90l270 -352h-78zM672 -18q-238 0 -399.5 161.5t-161.5 399.5q0 240 161.5 404.5t401.5 164.5q236 0 396.5 -162t160.5 -399q0 -240 -159.5 -404.5t-399.5 -164.5zM668 1036q-203 0 -337 -141t-134 -346t135 -348.5t340 -143.5 t340 141.5t135 346.5q0 207 -137 349t-342 142z" glyph-name="ocircumflex" horiz-adv-x="1341" unicode="ô"/><glyph d="M410 1280h-66q-2 119 43 186.5t125 67.5q88 0 188 -104q74 -76 125 -76q106 0 111 178h65q2 -117 -43 -185.5t-124 -68.5q-51 0 -88 21.5t-95 78.5q-80 80 -133 80q-104 0 -108 -178zM672 -18q-238 0 -399.5 161.5t-161.5 399.5q0 240 161.5 404.5t401.5 164.5 q236 0 396.5 -162t160.5 -399q0 -240 -159.5 -404.5t-399.5 -164.5zM668 1036q-203 0 -337 -141t-134 -346t135 -348.5t340 -143.5t340 141.5t135 346.5q0 207 -137 349t-342 142z" glyph-name="otilde" horiz-adv-x="1341" unicode="õ"/><glyph d="M432 1450q0 35 23.5 59.5t56.5 24.5t56.5 -24.5t23.5 -59.5q0 -33 -23.5 -57.5t-56.5 -24.5t-56.5 24.5t-23.5 57.5zM756 1450q0 35 23.5 59.5t56 24.5t56 -24.5t23.5 -59.5q0 -33 -23.5 -57.5t-56 -24.5t-56 24.5t-23.5 57.5zM670 -18q-236 0 -397.5 161.5t-161.5 399.5 q0 242 160.5 405.5t400.5 163.5q238 0 398.5 -162t160.5 -399q0 -240 -159.5 -404.5t-401.5 -164.5zM668 1036q-203 0 -337 -141t-134 -346t135 -348.5t340 -143.5t340 141.5t135 346.5q0 207 -137 349t-342 142z" glyph-name="odieresis" horiz-adv-x="1341" unicode="ö"/><glyph d="M768 1176q0 -35 -26.5 -60.5t-61.5 -25.5t-60.5 25.5t-25.5 60.5q0 37 25.5 62.5t60.5 25.5t61.5 -25.5t26.5 -62.5zM1178 731h-994v76h994v-76zM768 356q0 -37 -26.5 -62.5t-61.5 -25.5t-60.5 25.5t-25.5 62.5q0 35 25.5 60.5t60.5 25.5t61.5 -25.5t26.5 -60.5z" glyph-name="divide" horiz-adv-x="1361" unicode="÷"/><glyph d="M1235 1116l-158 -172q156 -162 156 -393q0 -240 -160 -404.5t-399 -164.5q-203 0 -355 122l-153 -170l-51 48l153 170q-154 160 -153 391q0 242 160.5 405.5t400.5 163.5q203 0 352 -123l158 172zM672 1036q-205 0 -338 -141t-133 -346q0 -201 123 -336l653 715 q-131 108 -305 108zM676 57q205 0 340 141.5t135 346.5q0 199 -127 338l-653 -717q129 -109 305 -109z" glyph-name="oslash" horiz-adv-x="1347" unicode="ø"/><glyph d="M618 1280l-247 352h92l229 -352h-74zM612 -20q-203 0 -318.5 126.5t-115.5 327.5v660h80v-643q0 -188 97.5 -292t269.5 -104q162 0 273.5 116t111.5 294v629h80v-1094h-80v242q-45 -119 -153 -190.5t-245 -71.5z" glyph-name="ugrave" horiz-adv-x="1284" unicode="ù"/><glyph d="M909 1632l-250 -352h-73l231 352h92zM614 -20q-205 0 -320.5 125.5t-115.5 328.5v660h82v-643q0 -188 97.5 -292t269.5 -104q160 0 271.5 116t111.5 294v629h80v-1094h-80v242q-45 -119 -153 -190.5t-243 -71.5z" glyph-name="uacute" horiz-adv-x="1284" unicode="ú"/><glyph d="M872 1280l-237 291l-240 -291h-78l271 352h92l270 -352h-78zM614 -20q-205 0 -320.5 125.5t-115.5 328.5v660h82v-643q0 -188 97.5 -292t269.5 -104q160 0 271.5 116t111.5 294v629h80v-1094h-80v242q-45 -119 -153 -190.5t-243 -71.5z" glyph-name="ucircumflex" horiz-adv-x="1284" unicode="û"/><glyph d="M393 1450q0 35 23.5 59.5t56.5 24.5t56.5 -24.5t23.5 -59.5q0 -33 -23.5 -57.5t-56.5 -24.5t-56.5 24.5t-23.5 57.5zM717 1450q0 35 23.5 59.5t56 24.5t56.5 -24.5t24 -59.5q0 -33 -24 -57.5t-56.5 -24.5t-56 24.5t-23.5 57.5zM612 -20q-203 0 -318.5 126.5t-115.5 327.5 v660h80v-643q0 -188 97.5 -292t269.5 -104q162 0 273.5 116t111.5 294v629h80v-1094h-80v242q-45 -119 -153 -190.5t-245 -71.5z" glyph-name="udieresis" horiz-adv-x="1284" unicode="ü"/><glyph d="M868 1632l-250 -352h-73l231 352h92zM1143 1094l-776 -1633h-86l284 602l-514 1031h92l467 -942l447 942h86z" glyph-name="yacute" horiz-adv-x="1185" unicode="ý"/><glyph d="M274 1667v-870q57 139 180.5 227t280.5 88q231 0 381 -166t150 -397.5t-148.5 -398t-382.5 -166.5q-160 0 -282.5 87t-178.5 224v-834h-79v2206h79zM731 61q203 0 327 138.5t124 345.5v2q0 207 -126 347t-325 140q-203 0 -332 -144.5t-129 -338.5v-6q0 -197 131 -340.5 t330 -143.5z" glyph-name="thorn" horiz-adv-x="1376" unicode="þ"/><glyph d="M358 1450q0 35 24 59.5t56.5 24.5t56 -24.5t23.5 -59.5q0 -33 -23.5 -57.5t-56 -24.5t-56.5 24.5t-24 57.5zM682 1450q0 35 23.5 59.5t56.5 24.5t56.5 -24.5t23.5 -59.5q0 -33 -23.5 -57.5t-56.5 -24.5t-56.5 24.5t-23.5 57.5zM1141 1094l-774 -1633h-86l284 602 l-514 1031h90l467 -942l447 942h86z" glyph-name="ydieresis" horiz-adv-x="1183" unicode="ÿ"/><glyph d="M426 1802v76h684v-76h-684zM1524 0h-92l-199 457h-930l-201 -457h-88l709 1604h92zM1198 535l-432 976l-428 -976h860z" glyph-name="Amacron" horiz-adv-x="1538" unicode="Ā"/><glyph d="M213 1313v76h684v-76h-684zM897 0v242q-61 -125 -173 -192.5t-243 -67.5q-158 0 -262 80.5t-104 230.5q0 156 128 234.5t300 78.5h354v76q0 166 -86 260t-248 94q-252 0 -364 -223l-72 41q55 119 165.5 188.5t268.5 69.5q190 0 304 -110.5t114 -313.5v-688h-82zM899 532 h-352q-137 0 -242.5 -58t-105.5 -179q0 -115 79.5 -176.5t204.5 -61.5q174 0 295 107.5t121 284.5v83z" glyph-name="amacron" horiz-adv-x="1157" unicode="ā"/><glyph d="M1010 2099h59q0 -152 -85 -239.5t-220 -87.5q-137 0 -222 88t-85 239h59q6 -117 69.5 -185.5t178.5 -68.5t178.5 69.5t67.5 184.5zM1524 0h-92l-199 457h-930l-201 -457h-88l709 1604h92zM1198 535l-432 976l-428 -976h860z" glyph-name="Abreve" horiz-adv-x="1538" unicode="Ă"/><glyph d="M803 1608h59q0 -152 -85 -240t-220 -88q-137 0 -222 88t-85 240h59q6 -117 69.5 -185.5t178.5 -68.5t178.5 69.5t67.5 184.5zM897 0v242q-61 -125 -173 -192.5t-243 -67.5q-158 0 -262 80.5t-104 230.5q0 156 128 234.5t300 78.5h354v76q0 166 -86 260t-248 94 q-252 0 -364 -223l-72 41q55 119 165.5 188.5t268.5 69.5q190 0 304 -110.5t114 -313.5v-688h-82zM899 532h-352q-137 0 -242.5 -58t-105.5 -179q0 -115 79.5 -176.5t204.5 -61.5q174 0 295 107.5t121 284.5v83z" glyph-name="abreve" horiz-adv-x="1157" unicode="ă"/><glyph d="M1593 -422v-72q-31 -6 -59 -6q-111 0 -188.5 60.5t-77.5 171.5q0 133 176 268h-12l-199 457h-930l-201 -457h-88l709 1604h92l709 -1604q-68 -51 -121 -117.5t-53 -132.5q0 -94 72.5 -136t170.5 -36zM1198 535l-432 976l-428 -976h860z" glyph-name="Aogonek" horiz-adv-x="1538" unicode="Ą"/><glyph d="M805 -250q0 -94 72.5 -136t171.5 -36v-72q-31 -6 -60 -6q-111 0 -188.5 60.5t-77.5 171.5q0 137 176 268h-2v242q-61 -125 -173 -192.5t-243 -67.5q-158 0 -262 80.5t-104 230.5q0 156 128 234.5t300 78.5h354v76q0 166 -86 260t-248 94q-252 0 -364 -223l-72 41 q55 119 165.5 188.5t268.5 69.5q190 0 304 -110.5t114 -313.5v-688q-68 -51 -121 -117.5t-53 -132.5zM483 57q174 0 295 107.5t121 284.5v83h-352q-137 0 -242.5 -58t-105.5 -179q0 -115 79.5 -176.5t204.5 -61.5z" glyph-name="aogonek" horiz-adv-x="1157" unicode="ą"/><glyph d="M1188 2103l-250 -354h-74l232 354h92zM1550 522l74 -35q-31 -86 -87 -168.5t-141 -160.5t-213 -126t-278 -48q-342 0 -563 235.5t-221 581.5q0 344 223 582.5t565 238.5q145 0 270.5 -46t210.5 -122t142 -160t88 -174l-74 -35q-29 82 -79 157t-125.5 145.5t-188.5 113.5 t-248 43q-303 0 -500.5 -215t-197.5 -522q0 -309 197.5 -528.5t502.5 -219.5q141 0 259 48.5t194 126t119.5 148t70.5 140.5z" glyph-name="Cacute" horiz-adv-x="1716" unicode="Ć"/><glyph d="M938 1632l-248 -352h-74l232 352h90zM659 -18q-231 0 -389.5 161.5t-158.5 401t159.5 403.5t388.5 164q184 0 307.5 -89t170.5 -228l-76 -33q-98 274 -402 274q-199 0 -330.5 -143t-131.5 -344t134 -346.5t331 -145.5q295 0 401 279l76 -33q-49 -137 -172.5 -229 t-307.5 -92z" glyph-name="cacute" horiz-adv-x="1239" unicode="ć"/><glyph d="M1155 1749l-237 291l-238 -291h-80l272 354h91l272 -354h-80zM1550 522l74 -35q-31 -86 -87 -168.5t-141 -160.5t-213 -126t-278 -48q-342 0 -563 235.5t-221 581.5q0 344 223 582.5t565 238.5q145 0 270.5 -46t210.5 -122t142 -160t88 -174l-74 -35q-29 82 -79 157 t-125.5 145.5t-188.5 113.5t-248 43q-303 0 -500.5 -215t-197.5 -522q0 -309 197.5 -528.5t502.5 -219.5q141 0 259 48.5t194 126t119.5 148t70.5 140.5z" glyph-name="Ccircumflex" horiz-adv-x="1716" unicode="Ĉ"/><glyph d="M899 1280l-237 291l-238 -291h-80l272 352h91l272 -352h-80zM659 -18q-231 0 -389.5 161.5t-158.5 401t159.5 403.5t388.5 164q184 0 307.5 -89t170.5 -228l-76 -33q-98 274 -402 274q-199 0 -330.5 -143t-131.5 -344t134 -346.5t331 -145.5q295 0 401 279l76 -33 q-49 -137 -172.5 -229t-307.5 -92z" glyph-name="ccircumflex" horiz-adv-x="1239" unicode="ĉ"/><glyph d="M840 1923q0 35 22.5 58.5t57.5 23.5q33 0 55 -23.5t22 -58.5t-22.5 -58.5t-55 -23.5t-56 23.5t-23.5 58.5zM1550 522l74 -35q-31 -86 -87 -168.5t-141 -160.5t-213 -126t-278 -48q-342 0 -563 235.5t-221 581.5q0 344 223 582.5t565 238.5q145 0 270.5 -46t210.5 -122 t142 -160t88 -174l-74 -35q-29 82 -79 157t-125.5 145.5t-188.5 113.5t-248 43q-303 0 -500.5 -215t-197.5 -522q0 -309 197.5 -528.5t502.5 -219.5q141 0 259 48.5t194 126t119.5 148t70.5 140.5z" glyph-name="Cdotaccent" horiz-adv-x="1716" unicode="Ċ"/><glyph d="M584 1450q0 35 22.5 59.5t55 24.5t56 -24.5t23.5 -59.5q0 -33 -23.5 -57.5t-56 -24.5t-55 24.5t-22.5 57.5zM659 -18q-231 0 -389.5 161.5t-158.5 401t159.5 403.5t388.5 164q184 0 307.5 -89t170.5 -228l-76 -33q-98 274 -402 274q-199 0 -330.5 -143t-131.5 -344 t134 -346.5t331 -145.5q295 0 401 279l76 -33q-49 -137 -172.5 -229t-307.5 -92z" glyph-name="cdotaccent" horiz-adv-x="1239" unicode="ċ"/><glyph d="M1235 2103l-272 -354h-91l-274 354h82l238 -291l237 291h80zM1550 522l74 -35q-31 -86 -87 -168.5t-141 -160.5t-213 -126t-278 -48q-342 0 -563 235.5t-221 581.5q0 344 223 582.5t565 238.5q145 0 270.5 -46t210.5 -122t142 -160t88 -174l-74 -35q-29 82 -79 157 t-125.5 145.5t-188.5 113.5t-248 43q-303 0 -500.5 -215t-197.5 -522q0 -309 197.5 -528.5t502.5 -219.5q141 0 259 48.5t194 126t119.5 148t70.5 140.5z" glyph-name="Ccaron" horiz-adv-x="1716" unicode="Č"/><glyph d="M981 1614l-272 -354h-91l-272 354h80l238 -291l237 291h80zM659 -18q-231 0 -389.5 161.5t-158.5 401t159.5 403.5t388.5 164q184 0 307.5 -89t170.5 -228l-76 -33q-98 274 -402 274q-199 0 -330.5 -143t-131.5 -344t134 -346.5t331 -145.5q295 0 401 279l76 -33 q-49 -137 -172.5 -229t-307.5 -92z" glyph-name="ccaron" horiz-adv-x="1239" unicode="č"/><glyph d="M999 2093l-272 -352h-90l-272 352h79l238 -291l238 291h79zM238 0v1604h430q369 0 612.5 -228.5t243.5 -574.5q0 -352 -244 -576.5t-612 -224.5h-430zM324 1528v-1450h346q330 0 549 202.5t219 518t-220.5 522.5t-549.5 207h-344z" glyph-name="Dcaron" horiz-adv-x="1642" unicode="Ď"/><glyph d="M1470 1669l-69 -409h-60l31 409h98zM1104 0v299q-57 -137 -181 -226t-282 -89q-236 0 -382 165.5t-146 399t149.5 398.5t378.5 165q160 0 281.5 -86t181.5 -225v866h78v-1667h-78zM645 61q201 0 331 143.5t130 340.5v6q0 195 -129 339t-332 144q-199 0 -324.5 -137 t-125.5 -344v-2q0 -209 125.5 -349.5t324.5 -140.5z" glyph-name="dcaron" horiz-adv-x="1417" unicode="ď"/><glyph d="M240 1604h426q369 0 613.5 -228.5t244.5 -574.5q0 -352 -244 -576.5t-614 -224.5h-426v778h-168v78h168v748zM324 78h344q332 0 551 202.5t219 518t-220.5 522.5t-551.5 207h-342v-672h557v-78h-557v-700z" glyph-name="Dcroat" horiz-adv-x="1642" unicode="Đ"/><glyph d="M1104 0v299q-57 -137 -181 -226t-282 -89q-236 0 -382 165.5t-146 399t149.5 398.5t380.5 165q160 0 280.5 -86t180.5 -225v545h-449v71h449v250h80v-250h131v-71h-131v-1346h-80zM647 61q199 0 330 143.5t131 340.5v6q0 195 -129 339t-332 144q-201 0 -326.5 -137 t-125.5 -344v-2q0 -209 125.5 -349.5t326.5 -140.5z" glyph-name="dcroat" horiz-adv-x="1378" unicode="đ"/><glyph d="M383 1802v76h684v-76h-684zM1130 856v-78h-806v-700h886v-78h-972v1604h962v-76h-876v-672h806z" glyph-name="Emacron" horiz-adv-x="1337" unicode="Ē"/><glyph d="M295 1313v76h682v-76h-682zM1139 532h-942q2 -193 131 -334t329 -141q125 0 225.5 61.5t155.5 164.5l70 -45q-63 -117 -184 -186.5t-271 -69.5q-233 0 -387.5 166.5t-154.5 400.5v4q0 223 152.5 391t373.5 168q252 0 377 -162t125 -399v-19zM197 606h858q-4 80 -29 151.5 t-73 136t-130 103.5t-190 39q-170 0 -298 -130t-138 -300z" glyph-name="emacron" horiz-adv-x="1243" unicode="ē"/><glyph d="M645 1923q0 35 22.5 58.5t57.5 23.5q33 0 55.5 -23.5t22.5 -58.5t-22.5 -58.5t-55.5 -23.5t-56.5 23.5t-23.5 58.5zM1130 856v-78h-806v-700h886v-78h-972v1604h962v-76h-876v-672h806z" glyph-name="Edotaccent" horiz-adv-x="1337" unicode="Ė"/><glyph d="M557 1450q0 35 23.5 59.5t56.5 24.5t55.5 -24.5t22.5 -59.5q0 -33 -22.5 -57.5t-55.5 -24.5t-56.5 24.5t-23.5 57.5zM1139 532h-942q2 -193 131 -334t329 -141q125 0 225.5 61.5t155.5 164.5l70 -45q-63 -117 -184 -186.5t-271 -69.5q-233 0 -387.5 166.5t-154.5 400.5v4 q0 223 152.5 391t373.5 168q252 0 377 -162t125 -399v-19zM197 606h858q-4 80 -29 151.5t-73 136t-130 103.5t-190 39q-170 0 -298 -130t-138 -300z" glyph-name="edotaccent" horiz-adv-x="1243" unicode="ė"/><glyph d="M1280 -422v-72q-31 -6 -59 -6q-111 0 -189 60.5t-78 171.5q0 137 176 268h-892v1604h962v-76h-876v-672h806v-78h-806v-700h886v-78q-68 -51 -121 -117.5t-53 -132.5q0 -94 73 -136t171 -36z" glyph-name="Eogonek" horiz-adv-x="1337" unicode="Ę"/><glyph d="M1139 532h-942q2 -193 131 -334t329 -141q125 0 225.5 61.5t155.5 164.5l70 -45q-82 -150 -248 -218q-98 -41 -167.5 -119.5t-69.5 -150.5q0 -94 72.5 -136t168.5 -36v-72q-29 -6 -57 -6q-113 0 -190.5 61.5t-77.5 170.5q0 121 155 252l-41 -2q-233 0 -387.5 166.5 t-154.5 400.5v4q0 223 152.5 391t373.5 168q252 0 377 -162t125 -399v-19zM197 606h858q-4 80 -29 151.5t-73 136t-130 103.5t-190 39q-170 0 -298 -130t-138 -300z" glyph-name="eogonek" horiz-adv-x="1243" unicode="ę"/><glyph d="M1042 2103l-272 -354h-90l-272 354h79l238 -291l238 291h79zM1200 1528h-876v-672h806v-78h-806v-700h886v-78h-972v1604h962v-76z" glyph-name="Ecaron" horiz-adv-x="1337" unicode="Ě"/><glyph d="M956 1614l-272 -354h-90l-272 354h79l238 -291l238 291h79zM1139 532h-942q2 -193 131 -334t329 -141q125 0 225.5 61.5t155.5 164.5l70 -45q-63 -117 -184 -186.5t-271 -69.5q-233 0 -387.5 166.5t-154.5 400.5v4q0 223 152.5 391t373.5 168q252 0 377 -162t125 -399 v-19zM197 606h858q-4 80 -29 151.5t-73 136t-130 103.5t-190 39q-170 0 -298 -130t-138 -300z" glyph-name="ecaron" horiz-adv-x="1243" unicode="ě"/><glyph d="M1151 1749l-238 291l-237 -291h-80l272 354h90l273 -354h-80zM1642 748v-78q0 -293 -204.5 -489.5t-532.5 -196.5q-344 0 -564 233.5t-220 583.5q0 346 221 583.5t569 237.5q270 0 452.5 -147.5t250.5 -337.5l-74 -35q-29 80 -80 152.5t-125.5 140t-185.5 108.5t-240 41 q-309 0 -505.5 -215t-196.5 -522q0 -319 195.5 -533.5t506.5 -214.5q268 0 459 167t191 438v6h-740v78h823z" glyph-name="Gcircumflex" horiz-adv-x="1753" unicode="Ĝ"/><glyph d="M885 1280l-238 291l-237 -291h-80l272 352h90l273 -352h-80zM1180 1094v-1090q0 -279 -149.5 -415t-387.5 -136q-197 0 -323.5 84t-206.5 252l71 41q33 -66 66 -112t86 -92t130 -70.5t175 -24.5q211 0 335 119t124 350v307q-57 -137 -180 -224t-279 -87q-238 0 -383 163 t-145 396t147.5 395t380.5 162q156 0 278.5 -84t180.5 -221v287h80zM1104 553v4q0 195 -129 336t-332 141q-199 0 -322.5 -135t-123.5 -342v-2q0 -207 123.5 -344t322.5 -137q201 0 331 141t130 338z" glyph-name="gcircumflex" horiz-adv-x="1374" unicode="ĝ"/><glyph d="M1159 2099h62q0 -152 -85 -239.5t-222.5 -87.5t-222.5 88t-85 239h62q6 -117 69.5 -185.5t175.5 -68.5q115 0 178.5 69.5t67.5 184.5zM1642 748v-78q0 -293 -204.5 -489.5t-532.5 -196.5q-344 0 -564 233.5t-220 583.5q0 346 221 583.5t569 237.5q270 0 452.5 -147.5 t250.5 -337.5l-74 -35q-29 80 -80 152.5t-125.5 140t-185.5 108.5t-240 41q-309 0 -505.5 -215t-196.5 -522q0 -319 195.5 -533.5t506.5 -214.5q268 0 459 167t191 438v6h-740v78h823z" glyph-name="Gbreve" horiz-adv-x="1753" unicode="Ğ"/><glyph d="M893 1608h59q0 -152 -85 -240t-220 -88q-137 0 -222 88t-85 240h59q6 -117 69.5 -185.5t178.5 -68.5t178.5 69.5t67.5 184.5zM1180 1094v-1090q0 -279 -149.5 -415t-387.5 -136q-197 0 -323.5 84t-206.5 252l71 41q33 -66 66 -112t86 -92t130 -70.5t175 -24.5 q211 0 335 119t124 350v307q-57 -137 -180 -224t-279 -87q-238 0 -383 163t-145 396t147.5 395t380.5 162q156 0 278.5 -84t180.5 -221v287h80zM1104 553v4q0 195 -129 336t-332 141q-199 0 -322.5 -135t-123.5 -342v-2q0 -207 123.5 -344t322.5 -137q201 0 331 141t130 338 z" glyph-name="gbreve" horiz-adv-x="1374" unicode="ğ"/><glyph d="M829 1923q0 35 22.5 58.5t57.5 23.5q33 0 55.5 -23.5t22.5 -58.5t-22.5 -58.5t-55 -23.5t-56.5 23.5t-24 58.5zM1642 748v-78q0 -293 -204.5 -489.5t-532.5 -196.5q-344 0 -564 233.5t-220 583.5q0 346 221 583.5t569 237.5q270 0 452.5 -147.5t250.5 -337.5l-74 -35 q-29 80 -80 152.5t-125.5 140t-185.5 108.5t-240 41q-309 0 -505.5 -215t-196.5 -522q0 -319 195.5 -533.5t506.5 -214.5q268 0 459 167t191 438v6h-740v78h823z" glyph-name="Gdotaccent" horiz-adv-x="1751" unicode="Ġ"/><glyph d="M588 1450q0 35 23.5 59.5t56 24.5t55 -24.5t22.5 -59.5q0 -33 -22.5 -57.5t-55 -24.5t-56 24.5t-23.5 57.5zM1180 1094v-1090q0 -279 -149.5 -415t-387.5 -136q-197 0 -323.5 84t-206.5 252l71 41q33 -66 66 -112t86 -92t130 -70.5t175 -24.5q211 0 335 119t124 350v307 q-57 -137 -180 -224t-279 -87q-238 0 -383 163t-145 396t147.5 395t380.5 162q156 0 278.5 -84t180.5 -221v287h80zM1104 553v4q0 195 -129 336t-332 141q-199 0 -322.5 -135t-123.5 -342v-2q0 -207 123.5 -344t322.5 -137q201 0 331 141t130 338z" glyph-name="gdotaccent" horiz-adv-x="1374" unicode="ġ"/><glyph d="M1642 748v-78q0 -293 -204.5 -489.5t-532.5 -196.5q-344 0 -564 233.5t-220 583.5q0 346 221 583.5t569 237.5q270 0 452.5 -147.5t250.5 -337.5l-74 -35q-29 80 -80 152.5t-125.5 140t-185.5 108.5t-240 41q-309 0 -505.5 -215t-196.5 -522q0 -319 195.5 -533.5 t506.5 -214.5q268 0 459 167t191 438v6h-740v78h823zM889 -295q-33 0 -52.5 19.5t-19.5 52.5q0 35 21.5 56.5t52.5 21.5q41 0 65.5 -31t24.5 -84v-6q0 -141 -131 -234l-43 41q102 74 111 168q-9 -4 -29 -4z" glyph-name="Gcommaaccent" horiz-adv-x="1751" unicode="Ģ"/><glyph d="M684 1438q74 0 74 -72q0 -35 -22.5 -56.5t-53.5 -21.5q-41 0 -65.5 31t-24.5 84v8q0 139 131 231l43 -38q-102 -78 -111 -170q11 4 29 4zM1180 1094v-1090q0 -279 -149.5 -415t-387.5 -136q-197 0 -323.5 84t-206.5 252l71 41q33 -66 66 -112t86 -92t130 -70.5t175 -24.5 q211 0 335 119t124 350v307q-57 -137 -180 -224t-279 -87q-238 0 -383 163t-145 396t147.5 395t380.5 162q156 0 278.5 -84t180.5 -221v287h80zM1104 553v4q0 195 -129 336t-332 141q-199 0 -322.5 -135t-123.5 -342v-2q0 -207 123.5 -344t322.5 -137q201 0 331 141t130 338 z" glyph-name="gcommaaccent" horiz-adv-x="1374" unicode="ģ"/><glyph d="M72 1284h168v320h84v-320h1042v320h84v-320h168v-76h-168v-1208h-84v778h-1042v-778h-84v1208h-168v76zM1366 1208h-1042v-352h1042v352z" glyph-name="Hbar" horiz-adv-x="1689" unicode="Ħ"/><glyph d="M1024 0v641q0 188 -96.5 291.5t-268.5 103.5q-162 0 -273.5 -115.5t-111.5 -291.5v-629h-79v1346h-160v71h160v252h79v-252h418v-71h-418v-494q45 119 153 189.5t245 70.5q203 0 318.5 -126t115.5 -329v-657h-82z" glyph-name="hbar" horiz-adv-x="1284" unicode="ħ"/><glyph d="M23 1749h-66q-2 119 43 186.5t125 67.5q88 0 188 -105q74 -76 125 -75q106 0 111 178h65q2 -117 -43 -185.5t-125 -68.5q-51 0 -87.5 21.5t-94.5 78.5q-80 80 -133 80q-104 0 -108 -178zM238 0v1604h86v-1604h-86z" glyph-name="Itilde" horiz-adv-x="561" unicode="Ĩ"/><glyph d="M-27 1280h-65q-2 119 43 186.5t125 67.5q88 0 188 -104q74 -76 125 -76q106 0 111 178h65q2 -117 -43 -185.5t-125 -68.5q-51 0 -88 21.5t-94 78.5q-80 80 -133 80q-105 0 -109 -178zM276 0h-81v1094h81v-1094z" glyph-name="itilde" horiz-adv-x="471" unicode="ĩ"/><glyph d="M4 1802v76h551v-76h-551zM324 0h-86v1604h86v-1604z" glyph-name="Imacron" horiz-adv-x="561" unicode="Ī"/><glyph d="M-37 1313v76h543v-76h-543zM276 1094v-1094h-81v1094h81z" glyph-name="imacron" horiz-adv-x="471" unicode="ī"/><glyph d="M526 2099h60q0 -152 -85 -239.5t-220 -87.5q-137 0 -222.5 88t-85.5 239h60q6 -117 69.5 -185.5t178 -68.5t178 69.5t67.5 184.5zM324 0h-86v1604h86v-1604z" glyph-name="Ibreve" horiz-adv-x="561" unicode="Ĭ"/><glyph d="M481 1608h62q0 -152 -85 -240t-222.5 -88t-222.5 88t-85 240h62q6 -117 69.5 -185.5t176.5 -68.5q115 0 178 69.5t67 184.5zM279 1094v-1094h-84v1094h84z" glyph-name="ibreve" horiz-adv-x="473" unicode="ĭ"/><glyph d="M369 -528q-111 0 -187 60t-76 169q0 127 158 299h-26v1604h86v-1604q-139 -162 -140 -293q0 -76 57.5 -120t135.5 -44q57 0 135 19v-72q-82 -18 -143 -18z" glyph-name="Iogonek" horiz-adv-x="561" unicode="Į"/><glyph d="M156 1472.5q0 32.5 23.5 57t56 24.5t56 -23.5t23.5 -58t-23.5 -58t-56 -23.5t-56 24.5t-23.5 57zM346 -422v-72q-31 -6 -59 -6q-111 0 -189 60.5t-78 171.5q0 133 177 268h-2v1094h81v-1094q-68 -51 -121 -117.5t-53 -132.5q0 -94 73 -136t171 -36z" glyph-name="iogonek" horiz-adv-x="471" unicode="į"/><glyph d="M201 1923q0 35 22.5 58.5t57.5 23.5q33 0 55 -23.5t22 -58.5t-22.5 -58.5t-55 -23.5t-56 23.5t-23.5 58.5zM324 0h-86v1604h86v-1604z" glyph-name="Idotaccent" horiz-adv-x="561" unicode="İ"/><glyph d="M276 1094v-1094h-81v1094h81z" glyph-name="dotlessi" horiz-adv-x="471" unicode="ı"/><glyph d="M324 0h-86v1604h86v-1604zM1071 59q166 0 255 98.5t89 274.5v1172h86v-1172q0 -207 -113.5 -327.5t-314.5 -120.5q-295 0 -432 344l72 41q120 -310 358 -310z" glyph-name="IJ" horiz-adv-x="1720" unicode="Ĳ"/><glyph d="M156 1472.5q0 32.5 23.5 57t56 24.5t56 -23.5t23.5 -58t-23.5 -58t-56 -23.5t-56 24.5t-23.5 57zM643 1472.5q0 34.5 23.5 58t56.5 23.5t56.5 -24.5t23.5 -57t-23.5 -57t-56.5 -24.5t-56.5 23.5t-23.5 58zM276 1094v-1094h-81v1094h81zM682 1094h80v-1348 q0 -293 -279 -293q-43 0 -71 6v74q16 -2 65 -2q205 0 205 211v1352z" glyph-name="ij" horiz-adv-x="956" unicode="ĳ"/><glyph d="M332 858l827 746h123l-856 -764l903 -840h-125l-872 813h-8v-813h-86v1604h86v-746h8zM688 -295q-33 0 -52.5 19.5t-19.5 52.5q0 35 21.5 56.5t52.5 21.5q41 0 65.5 -31t24.5 -84v-6q0 -141 -131 -234l-43 41q102 74 111 168q-9 -4 -29 -4z" glyph-name="Kcommaaccent" horiz-adv-x="1325" unicode="Ķ"/><glyph d="M281 578h-7v-578h-79v1667h79v-1049h5l598 476h120l-630 -496l659 -598h-117zM537 -295q-33 0 -52.5 19.5t-19.5 52.5q0 35 21.5 56.5t52.5 21.5q41 0 65.5 -31t24.5 -84v-6q0 -141 -131 -234l-43 41q102 74 110 168q-8 -4 -28 -4z" glyph-name="kcommaaccent" horiz-adv-x="1038" unicode="ķ"/><glyph d="M565 2103l-250 -354h-73l231 354h92zM238 0v1604h84v-1526h800v-78h-884z" glyph-name="Lacute" horiz-adv-x="1181" unicode="Ĺ"/><glyph d="M518 2163l-250 -355h-73l231 355h92zM276 0h-81v1667h81v-1667z" glyph-name="lacute" horiz-adv-x="471" unicode="ĺ"/><glyph d="M238 0v1604h84v-1526h800v-78h-884zM668 -295q-33 0 -52.5 19.5t-19.5 52.5q0 35 21.5 56.5t52.5 21.5q41 0 65.5 -31t24.5 -84v-6q0 -141 -131 -234l-43 41q102 74 110 168q-8 -4 -28 -4z" glyph-name="Lcommaaccent" horiz-adv-x="1181" unicode="Ļ"/><glyph d="M276 0h-81v1667h81v-1667zM219 -295q-33 0 -52.5 19.5t-19.5 52.5q0 35 21.5 56.5t52.5 21.5q41 0 65.5 -31t24.5 -84v-6q0 -141 -131 -234l-43 41q102 74 111 168q-9 -4 -29 -4z" glyph-name="lcommaaccent" horiz-adv-x="471" unicode="ļ"/><glyph d="M1016 1638l-70 -407h-57l29 407h98zM238 0v1604h84v-1526h800v-78h-884z" glyph-name="Lcaron" horiz-adv-x="1191" unicode="Ľ"/><glyph d="M563 1669l-69 -409h-58l31 409h96zM276 0h-81v1667h81v-1667z" glyph-name="lcaron" horiz-adv-x="512" unicode="ľ"/><glyph d="M238 0v1604h84v-1526h800v-78h-884zM965 772q0 35 23.5 58.5t56 23.5t55 -23.5t22.5 -58.5t-22.5 -58.5t-55 -23.5t-56 23.5t-23.5 58.5z" glyph-name="Ldot" horiz-adv-x="1216" unicode="Ŀ"/><glyph d="M276 0h-81v1667h81v-1667zM475 772q0 33 23.5 57.5t56.5 24.5t56.5 -23.5t23.5 -58.5t-23.5 -58.5t-56.5 -23.5t-56.5 24.5t-23.5 57.5z" glyph-name="ldot" horiz-adv-x="655" unicode="ŀ"/><glyph d="M342 1604v-787l504 227v-83l-504 -228v-655h803v-78h-887v694l-215 -96v84l215 98v824h84z" glyph-name="Lslash" horiz-adv-x="1206" unicode="Ł"/><glyph d="M358 932l209 104v-88l-209 -100v-848h-82v807l-208 -102v86l208 102v774h82v-735z" glyph-name="lslash" horiz-adv-x="626" unicode="ł"/><glyph d="M1153 2103l-248 -354h-74l232 354h90zM1421 1604h84v-1604h-96l-1085 1491v-1491h-86v1604h102l1081 -1483v1483z" glyph-name="Nacute" horiz-adv-x="1744" unicode="Ń"/><glyph d="M934 1632l-250 -352h-74l232 352h92zM676 1112q205 0 319.5 -126t114.5 -329v-657h-80v641q0 188 -96 291.5t-270 103.5q-162 0 -275 -115.5t-113 -291.5v-629h-81v1094h81v-242q45 119 154 189.5t246 70.5z" glyph-name="nacute" horiz-adv-x="1288" unicode="ń"/><glyph d="M1421 1604h84v-1604h-96l-1087 1491v-1491h-84v1604h102l1081 -1483v1483zM848 -295q-33 0 -52.5 19.5t-19.5 52.5q0 35 21.5 56.5t52.5 21.5q41 0 65.5 -31t24.5 -84v-6q0 -141 -131 -234l-43 41q102 74 111 168q-9 -4 -29 -4z" glyph-name="Ncommaaccent" horiz-adv-x="1742" unicode="Ņ"/><glyph d="M672 1112q203 0 318.5 -126t115.5 -329v-657h-82v641q0 188 -96.5 291.5t-268.5 103.5q-162 0 -273.5 -115.5t-111.5 -291.5v-629h-79v1094h79v-242q45 119 153 189.5t245 70.5zM633 -295q-33 0 -52.5 19.5t-19.5 52.5q0 35 21.5 56.5t52.5 21.5q41 0 65.5 -31t24.5 -84 v-6q0 -141 -131 -234l-43 41q102 74 111 168q-9 -4 -29 -4z" glyph-name="ncommaaccent" horiz-adv-x="1284" unicode="ņ"/><glyph d="M1221 2083l-273 -352h-90l-272 352h80l237 -291l238 291h80zM326 0h-88v1604h104l1081 -1483v1483h84v-1604h-96l-1085 1491v-1491z" glyph-name="Ncaron" horiz-adv-x="1746" unicode="Ň"/><glyph d="M961 1614l-273 -354h-90l-270 354h78l237 -291l240 291h78zM672 1112q203 0 318.5 -126t115.5 -329v-657h-82v641q0 188 -96.5 291.5t-268.5 103.5q-162 0 -273.5 -115.5t-111.5 -291.5v-629h-79v1094h79v-242q45 119 153 189.5t245 70.5z" glyph-name="ncaron" horiz-adv-x="1284" unicode="ň"/><glyph d="M238 0v1604h102l1081 -1471v1471h84v-1860q0 -150 -65.5 -219.5t-216.5 -69.5q-53 0 -95 8v76q57 -8 89 -8q119 0 161.5 51t42.5 170v248l-1099 1491v-1491h-84z" glyph-name="Eng" horiz-adv-x="1742" unicode="Ŋ"/><glyph d="M1024 -248v889q0 188 -96.5 291.5t-268.5 103.5q-162 0 -273.5 -115.5t-111.5 -291.5v-629h-79v1094h79v-242q45 119 153 189.5t245 70.5q203 0 318.5 -126t115.5 -329v-913q0 -152 -64.5 -220.5t-216.5 -68.5q-51 0 -94 8v76q61 -8 90 -8q117 0 160 51t43 170z" glyph-name="eng" horiz-adv-x="1284" unicode="ŋ"/><glyph d="M565 1802v76h682v-76h-682zM907 -16q-340 0 -563 236.5t-223 580.5t223 582.5t565 238.5t565.5 -237.5t223.5 -579.5q0 -346 -224.5 -583.5t-566.5 -237.5zM907 1544q-303 0 -501.5 -215t-198.5 -522q0 -311 199.5 -529.5t504.5 -218.5q303 0 502 216.5t199 523.5 t-200 526t-505 219z" glyph-name="Omacron" horiz-adv-x="1816" unicode="Ō"/><glyph d="M332 1313v76h684v-76h-684zM674 -18q-238 0 -400.5 161.5t-162.5 399.5q0 242 161.5 405.5t403.5 163.5q236 0 397.5 -162t161.5 -399q0 -240 -159.5 -404.5t-401.5 -164.5zM672 1036q-205 0 -341 -141t-136 -346t138 -348.5t343 -143.5t340 141.5t135 346.5 q0 207 -137 349t-342 142z" glyph-name="omacron" horiz-adv-x="1345" unicode="ō"/><glyph d="M1038 2103l-247 -354h-74l229 354h92zM1331 2103l-248 -354h-73l229 354h92zM907 -16q-340 0 -563 236.5t-223 580.5t223 582.5t565 238.5t565.5 -237.5t223.5 -579.5q0 -346 -224.5 -583.5t-566.5 -237.5zM907 1544q-303 0 -501.5 -215t-198.5 -522q0 -311 199.5 -529.5 t504.5 -218.5q303 0 502 216.5t199 523.5t-200 526t-505 219z" glyph-name="Ohungarumlaut" horiz-adv-x="1818" unicode="Ő"/><glyph d="M801 1632l-248 -352h-74l230 352h92zM1096 1632l-248 -352h-76l232 352h92zM670 -18q-236 0 -397.5 161.5t-161.5 399.5q0 242 160.5 405.5t400.5 163.5q238 0 398.5 -162t160.5 -399q0 -240 -159.5 -404.5t-401.5 -164.5zM668 1036q-203 0 -337 -141t-134 -346 t135 -348.5t340 -143.5t340 141.5t135 346.5q0 207 -137 349t-342 142z" glyph-name="ohungarumlaut" horiz-adv-x="1341" unicode="ő"/><glyph d="M907 -14q-340 0 -563 235.5t-223 579.5t223 581.5t565 237.5q242 0 429.5 -130t263.5 -353h2v467h962v-76h-878v-672h809v-78h-809v-700h888v-78h-972v463h-2q-74 -215 -259.5 -346t-435.5 -131zM911 61q303 0 502 214t199 516v12q0 303 -200 521t-505 218 q-303 0 -501.5 -214t-198.5 -521q0 -309 199.5 -527.5t504.5 -218.5z" glyph-name="OE" horiz-adv-x="2703" unicode="Œ"/><glyph d="M2165 532h-944q4 -193 134 -334t328 -141q125 0 225.5 61.5t155.5 164.5l70 -45q-63 -117 -184 -186.5t-271 -69.5q-174 0 -312 105.5t-183 268.5q-47 -164 -190.5 -269t-321.5 -105q-238 0 -399.5 161.5t-161.5 399.5q0 242 160.5 405.5t402.5 163.5q178 0 318.5 -101.5 t191.5 -269.5q47 162 180 266.5t299 104.5q252 0 377 -162t125 -399v-19zM674 57q203 0 338 140.5t135 341.5v12q0 201 -137.5 343t-339.5 142q-205 0 -339 -141t-134 -346t136 -348.5t341 -143.5zM1221 606h860q-4 80 -28.5 152.5t-72 136t-130.5 102.5t-191 39 q-170 0 -299 -130t-139 -300z" glyph-name="oe" horiz-adv-x="2269" unicode="œ"/><glyph d="M862 2103h92l-247 -354h-74zM238 1604h481q299 0 438 -132.5t139 -324.5q0 -188 -124.5 -310t-364.5 -149l539 -688h-109l-530 680h-383v-680h-86v1604zM324 758h374q262 0 388 114.5t126 272.5q0 160 -117.5 271.5t-381.5 111.5h-389v-770z" glyph-name="Racute" horiz-adv-x="1431" unicode="Ŕ"/><glyph d="M639 1632l-248 -352h-74l232 352h90zM682 1108q14 0 20 -2v-80h-16q-195 0 -303.5 -138t-108.5 -337v-551h-79v1094h79v-285q43 129 158 214t250 85z" glyph-name="racute" horiz-adv-x="724" unicode="ŕ"/><glyph d="M238 1604h481q299 0 438 -132.5t139 -324.5q0 -188 -124.5 -310t-364.5 -149l539 -688h-109l-530 680h-383v-680h-86v1604zM324 758h374q262 0 388 114.5t126 272.5q0 160 -117.5 271.5t-381.5 111.5h-389v-770zM688 -295q-33 0 -52.5 19.5t-19.5 52.5q0 35 21.5 56.5 t52.5 21.5q41 0 65.5 -31t24.5 -84v-6q0 -141 -131 -234l-43 41q102 74 111 168q-9 -4 -29 -4z" glyph-name="Rcommaaccent" horiz-adv-x="1431" unicode="Ŗ"/><glyph d="M682 1108q14 0 20 -2v-80h-16q-195 0 -303.5 -138t-108.5 -337v-551h-79v1094h79v-285q43 129 158 214t250 85zM229 -295q-33 0 -52 19.5t-19 52.5q0 35 21.5 56.5t51.5 21.5q41 0 66 -31t25 -84v-6q0 -141 -132 -234l-43 41q102 74 111 168q-9 -4 -29 -4z" glyph-name="rcommaaccent" horiz-adv-x="724" unicode="ŗ"/><glyph d="M1014 2103l-273 -354h-90l-272 354h80l237 -291l238 291h80zM238 1604h481q299 0 438 -132.5t139 -324.5q0 -188 -124.5 -310t-364.5 -149l539 -688h-109l-530 680h-383v-680h-86v1604zM324 758h374q262 0 388 114.5t126 272.5q0 160 -117.5 271.5t-381.5 111.5h-389 v-770z" glyph-name="Rcaron" horiz-adv-x="1431" unicode="Ř"/><glyph d="M764 1614l-272 -354h-91l-272 354h80l237 -291l238 291h80zM682 1108q14 0 20 -2v-80h-16q-195 0 -303.5 -138t-108.5 -337v-551h-79v1094h79v-285q43 129 158 214t250 85z" glyph-name="rcaron" horiz-adv-x="724" unicode="ř"/><glyph d="M899 2103l-248 -354h-76l232 354h92zM1124 428q0 -199 -138 -321.5t-351 -122.5q-367 0 -518 399l71 37q31 -74 66 -132.5t87 -113.5t128 -85t168 -30q166 0 284.5 96.5t118.5 270.5q0 133 -102 218t-324 142q-244 63 -351 149.5t-107 258.5q0 186 140 307t335 121 q186 0 307 -94t180 -240l-69 -39q-123 295 -422 295q-154 0 -270.5 -98t-116.5 -250q0 -135 90 -205.5t301 -124.5q244 -63 368.5 -165.5t124.5 -272.5z" glyph-name="Sacute" horiz-adv-x="1251" unicode="Ś"/><glyph d="M766 1632l-250 -352h-74l232 352h92zM133 815q0 133 112.5 215t252.5 82q262 0 364 -229l-71 -39q-86 193 -297 192q-102 0 -190.5 -61.5t-88.5 -157.5q0 -98 66.5 -145t218.5 -78q195 -41 284.5 -110.5t89.5 -200.5q0 -133 -111.5 -217t-258.5 -84q-283 0 -404 256 l72 38q55 -113 134 -166t198 -53q111 0 201 62.5t90 161t-71 148.5t-245 89q-176 39 -261 102.5t-85 194.5z" glyph-name="sacute" horiz-adv-x="991" unicode="ś"/><glyph d="M891 1749l-238 291l-237 -291h-80l272 354h90l273 -354h-80zM1145 428q0 -199 -138.5 -321.5t-351.5 -122.5q-367 0 -518 399l72 37q31 -74 65.5 -132.5t87 -113.5t128 -85t167.5 -30q166 0 285 96.5t119 270.5q0 133 -102.5 218t-323.5 142q-244 63 -351.5 149.5 t-107.5 258.5q0 186 140.5 307t334.5 121q186 0 307 -94t181 -240l-70 -39q-123 295 -422 295q-154 0 -270.5 -98t-116.5 -250q0 -135 90 -205.5t301 -124.5q244 -63 369 -165.5t125 -272.5z" glyph-name="Scircumflex" horiz-adv-x="1271" unicode="Ŝ"/><glyph d="M731 1280l-237 291l-240 -291h-80l275 352h90l270 -352h-78zM133 815q0 133 112.5 215t252.5 82q262 0 364 -229l-71 -39q-86 193 -297 192q-102 0 -190.5 -61.5t-88.5 -157.5q0 -98 66.5 -145t218.5 -78q195 -41 284.5 -110.5t89.5 -200.5q0 -133 -111.5 -217 t-258.5 -84q-283 0 -404 256l72 38q55 -113 134 -166t198 -53q111 0 201 62.5t90 161t-71 148.5t-245 89q-176 39 -261 102.5t-85 194.5z" glyph-name="scircumflex" horiz-adv-x="991" unicode="ŝ"/><glyph d="M1145 428q0 -182 -119 -303t-309 -139q20 -61 20 -127q0 -209 -151 -303q-84 -49 -199 -50q-35 0 -59 7v69q33 -4 51 -4q135 0 206.5 74t71.5 211q0 39 -12 121q-362 6 -508 399l72 37q31 -74 65.5 -132.5t87 -113.5t128 -85t167.5 -30q166 0 285 96.5t119 270.5 q0 133 -102.5 218t-323.5 142q-244 63 -351.5 149.5t-107.5 258.5q0 186 140.5 307t334.5 121q186 0 307 -94t181 -240l-70 -39q-123 295 -422 295q-154 0 -270.5 -98t-116.5 -250q0 -135 90 -205.5t301 -124.5q244 -63 369 -165.5t125 -272.5z" glyph-name="Scedilla" horiz-adv-x="1271" unicode="Ş"/><glyph d="M874 283q0 -123 -93 -204t-228 -95q20 -68 20 -125q0 -211 -153 -303q-80 -49 -197 -50q-35 0 -59 7v69q33 -4 51 -4q135 0 207 74t72 211q0 37 -13 119q-266 8 -381 256l72 38q55 -113 134 -166t198 -53q111 0 201 62.5t90 161t-71 148.5t-245 89q-176 39 -261 102.5 t-85 194.5q0 133 112.5 215t252.5 82q262 0 364 -229l-71 -39q-86 193 -297 192q-102 0 -190.5 -61.5t-88.5 -157.5q0 -98 66.5 -145t218.5 -78q195 -41 284.5 -110.5t89.5 -200.5z" glyph-name="scedilla" horiz-adv-x="991" unicode="ş"/><glyph d="M936 2105l-272 -352h-91l-272 352h80l237 -288l238 288h80zM1124 428q0 -199 -138 -321.5t-351 -122.5q-367 0 -518 399l71 37q31 -74 66 -132.5t87 -113.5t128 -85t168 -30q166 0 284.5 96.5t118.5 270.5q0 133 -102 218t-324 142q-244 63 -351 149.5t-107 258.5 q0 186 140 307t335 121q186 0 307 -94t180 -240l-69 -39q-123 295 -422 295q-154 0 -270.5 -98t-116.5 -250q0 -135 90 -205.5t301 -124.5q244 -63 368.5 -165.5t124.5 -272.5z" glyph-name="Scaron" horiz-adv-x="1251" unicode="Š"/><glyph d="M805 1614l-273 -354h-90l-272 354h80l237 -291l238 291h80zM133 815q0 133 112.5 215t252.5 82q262 0 364 -229l-71 -39q-86 193 -297 192q-102 0 -190.5 -61.5t-88.5 -157.5q0 -98 66.5 -145t218.5 -78q195 -41 284.5 -110.5t89.5 -200.5q0 -133 -111.5 -217t-258.5 -84 q-283 0 -404 256l72 38q55 -113 134 -166t198 -53q111 0 201 62.5t90 161t-71 148.5t-245 89q-176 39 -261 102.5t-85 194.5z" glyph-name="scaron" horiz-adv-x="991" unicode="š"/><glyph d="M350 -494q-35 0 -59 7v69q33 -4 51 -4q135 0 207 74t72 211q0 66 -17 137h-14v1526h-541v78h1155v-78h-530v-1526q27 -66 26 -141q0 -209 -151 -303q-82 -50 -199 -50z" glyph-name="Tcommaaccent" horiz-adv-x="1253" unicode="Ţ"/><glyph d="M334 1020v-723q0 -229 205 -229q41 0 88 10v-74q-53 -12 -95 -12q-57 0 -90 12q33 -57 33 -145q0 -211 -151 -303q-80 -49 -197 -50q-35 0 -59 7v69q33 -4 51 -4q135 0 205.5 73t70.5 212q0 145 -53 188q-88 70 -88 238v731h-207v74h207v313h80v-313h293v-74h-293z" glyph-name="tcommaaccent" horiz-adv-x="706" unicode="ţ"/><glyph d="M944 2103l-270 -354h-90l-273 354h88l230 -291l227 291h88zM678 1528v-1528h-86v1528h-543v76h1157v-76h-528z" glyph-name="Tcaron" horiz-adv-x="1255" unicode="Ť"/><glyph d="M692 1669l-69 -409h-58l31 409h96zM334 1020v-723q0 -229 205 -229q41 0 88 10v-74q-53 -12 -95 -12q-279 0 -278 297v731h-207v74h207v313h80v-313h293v-74h-293z" glyph-name="tcaron" horiz-adv-x="706" unicode="ť"/><glyph d="M612 1528h-538v76h1155v-76h-531v-672h340v-78h-340v-778h-86v778h-340v78h340v672z" glyph-name="Tbar" horiz-adv-x="1302" unicode="Ŧ"/><glyph d="M334 1020v-379h262v-72h-262v-272q0 -229 205 -229q41 0 88 10v-74q-53 -12 -95 -12q-279 0 -278 297v280h-197v72h197v379h-207v74h207v313h80v-313h293v-74h-293z" glyph-name="tbar" horiz-adv-x="706" unicode="ŧ"/><glyph d="M530 1749h-65q-2 119 43 186.5t125 67.5q88 0 188 -105q74 -76 125 -75q106 0 111 178h65q2 -117 -43 -185.5t-125 -68.5q-51 0 -88 21.5t-94 78.5q-80 80 -133 80q-105 0 -109 -178zM1296 1604h84v-975q0 -297 -150.5 -472t-428.5 -175q-283 0 -434.5 175t-151.5 468 v979h86v-977q0 -276 134 -422t368 -146q248 0 370.5 151.5t122.5 414.5v979z" glyph-name="Utilde" horiz-adv-x="1597" unicode="Ũ"/><glyph d="M373 1280h-66q-2 119 43 186.5t125 67.5q88 0 189 -104q74 -76 124 -76q106 0 111 178h66q2 -117 -43 -185.5t-125 -68.5q-51 0 -88 21.5t-95 78.5q-80 80 -133 80q-104 0 -108 -178zM614 -20q-205 0 -320.5 125.5t-115.5 328.5v660h80v-643q0 -188 98.5 -292t270.5 -104 q160 0 271.5 116t111.5 294v629h80v-1094h-80v242q-45 -119 -153 -190.5t-243 -71.5z" glyph-name="utilde" horiz-adv-x="1284" unicode="ũ"/><glyph d="M459 1802v76h682v-76h-682zM1382 1604v-975q0 -297 -150.5 -472t-430.5 -175q-283 0 -434.5 175t-151.5 468v979h86v-977q0 -276 134 -422t370 -146q248 0 369.5 151.5t121.5 414.5v979h86z" glyph-name="Umacron" horiz-adv-x="1597" unicode="Ū"/><glyph d="M295 1313v76h682v-76h-682zM616 -20q-205 0 -321.5 126.5t-116.5 327.5v660h82v-643q0 -188 98.5 -292t270.5 -104q160 0 271.5 116t111.5 294v629h80v-1094h-80v242q-45 -119 -153 -190.5t-243 -71.5z" glyph-name="umacron" horiz-adv-x="1286" unicode="ū"/><glyph d="M598 1913q0 84 59.5 144.5t145.5 60.5q84 0 144.5 -60.5t60.5 -144.5q0 -86 -60.5 -145.5t-144.5 -59.5q-86 0 -145.5 59.5t-59.5 145.5zM803 2048q-57 0 -95 -38t-38 -97q0 -57 37.5 -96t95 -39t95.5 38.5t38 96.5q0 55 -40 95t-93 40zM1384 1604v-975 q0 -297 -150.5 -472t-430.5 -175q-283 0 -435.5 175t-152.5 468v979h88v-977q0 -276 134 -422t370 -146q248 0 369.5 151.5t121.5 414.5v979h86z" glyph-name="Uring" horiz-adv-x="1599" unicode="Ů"/><glyph d="M430 1442q0 84 60.5 144.5t144.5 60.5t144.5 -60.5t60.5 -144.5q0 -86 -60.5 -145.5t-144.5 -59.5t-144.5 59.5t-60.5 145.5zM635 1579q-57 0 -95 -39t-38 -98q0 -57 38 -96t95 -39t95 38.5t38 96.5q0 55 -39 96t-94 41zM616 -20q-205 0 -321.5 126.5t-116.5 327.5v660 h82v-643q0 -188 98.5 -292t270.5 -104q160 0 271.5 116t111.5 294v629h80v-1094h-80v242q-45 -119 -153 -190.5t-243 -71.5z" glyph-name="uring" horiz-adv-x="1286" unicode="ů"/><glyph d="M969 2103h92l-248 -354h-74zM1384 1604v-975q0 -297 -150.5 -472t-430.5 -175q-283 0 -435.5 175t-152.5 468v979h88v-977q0 -276 134 -422t370 -146q248 0 369.5 151.5t121.5 414.5v979h86z" glyph-name="Uhungarumlaut" horiz-adv-x="1599" unicode="Ű"/><glyph d="M760 1632l-248 -352h-74l230 352h92zM1055 1632l-248 -352h-76l232 352h92zM612 -20q-203 0 -318.5 126.5t-115.5 327.5v660h80v-643q0 -188 97.5 -292t269.5 -104q162 0 273.5 116t111.5 294v629h80v-1094h-80v242q-45 -119 -153 -190.5t-245 -71.5z" glyph-name="uhungarumlaut" horiz-adv-x="1284" unicode="ű"/><glyph d="M1030 -422v-72q-29 -6 -57 -6q-113 0 -190.5 60.5t-77.5 171.5q0 121 157 254q-41 -4 -61 -4q-283 0 -434.5 175t-151.5 468v979h86v-977q0 -276 134 -422t368 -146q248 0 370.5 151.5t122.5 414.5v979h84v-975q0 -252 -107.5 -417t-311.5 -212q-68 -51 -121.5 -117.5 t-53.5 -132.5q0 -94 73 -136t171 -36z" glyph-name="Uogonek" horiz-adv-x="1597" unicode="Ų"/><glyph d="M1157 -422v-72q-29 -6 -57 -6q-111 0 -188.5 60.5t-77.5 171.5q0 137 176 268v242q-45 -119 -152.5 -190.5t-245.5 -71.5q-203 0 -318.5 126.5t-115.5 327.5v660h80v-643q0 -188 97.5 -292t269.5 -104q162 0 273.5 116t111.5 294v629h80v-1094q-68 -51 -121.5 -117.5 t-53.5 -132.5q0 -94 73 -136t169 -36z" glyph-name="uogonek" horiz-adv-x="1284" unicode="ų"/><glyph d="M1366 1751l-238 291l-237 -291h-80l272 352h91l272 -352h-80zM158 1604l458 -1495l474 1495h79l478 -1495l458 1495h86l-499 -1604h-95l-469 1466l-469 -1466h-94l-497 1604h90z" glyph-name="Wcircumflex" horiz-adv-x="2258" unicode="Ŵ"/><glyph d="M1118 1280l-237 291l-238 -291h-80l273 352h90l272 -352h-80zM147 1094l340 -998l353 998h80l350 -998l348 998h80l-387 -1094h-82l-348 983l-353 -983h-82l-387 1094h88z" glyph-name="wcircumflex" horiz-adv-x="1757" unicode="ŵ"/><glyph d="M977 1751l-240 291l-237 -291h-78l270 352h90l273 -352h-78zM1305 1604h100l-629 -916v-688h-84v688l-629 916h103l569 -838z" glyph-name="Ycircumflex" horiz-adv-x="1468" unicode="Ŷ"/><glyph d="M848 1280l-240 291l-237 -291h-78l270 352h90l273 -352h-78zM1141 1094l-774 -1633h-86l284 602l-514 1031h90l467 -942l447 942h86z" glyph-name="ycircumflex" horiz-adv-x="1183" unicode="ŷ"/><glyph d="M485 1921q0 35 23.5 58.5t56.5 23.5t55.5 -23.5t22.5 -58.5t-22.5 -58.5t-55.5 -23.5t-56.5 23.5t-23.5 58.5zM827 1921q0 35 23.5 58.5t56.5 23.5t56.5 -24.5t23.5 -57.5t-23.5 -57.5t-56.5 -24.5t-56.5 23.5t-23.5 58.5zM1305 1604h100l-629 -916v-688h-84v688 l-629 916h103l569 -838z" glyph-name="Ydieresis" horiz-adv-x="1468" unicode="Ÿ"/><glyph d="M903 2103l-248 -354h-73l229 354h92zM1178 1604v-78l-1018 -1448h1022v-78h-1119v78l1020 1450h-987v76h1082z" glyph-name="Zacute" horiz-adv-x="1257" unicode="Ź"/><glyph d="M768 1632l-250 -352h-74l232 352h92zM934 1022l-760 -948h762v-74h-858v74l760 946h-742v74h838v-72z" glyph-name="zacute" horiz-adv-x="1021" unicode="ź"/><glyph d="M543 1923q0 35 22.5 58.5t57.5 23.5q33 0 55 -23.5t22 -58.5t-22.5 -58.5t-55 -23.5t-56 23.5t-23.5 58.5zM1178 1604v-78l-1018 -1448h1022v-78h-1119v78l1020 1450h-987v76h1082z" glyph-name="Zdotaccent" horiz-adv-x="1257" unicode="Ż"/><glyph d="M426 1450q0 35 23.5 59.5t56.5 24.5t55.5 -24.5t22.5 -59.5q0 -33 -22.5 -57.5t-55.5 -24.5t-56.5 24.5t-23.5 57.5zM932 1022l-758 -948h760v-74h-856v74l758 946h-740v74h836v-72z" glyph-name="zdotaccent" horiz-adv-x="1019" unicode="ż"/><glyph d="M954 2103l-272 -354h-90l-273 354h80l238 -291l237 291h80zM63 0v78l1020 1450h-987v76h1082v-78l-1020 -1448h1022v-78h-1117z" glyph-name="Zcaron" horiz-adv-x="1257" unicode="Ž"/><glyph d="M829 1614l-272 -354h-90l-272 354h79l238 -291l238 291h79zM932 1022l-758 -948h760v-74h-856v74l758 946h-740v74h836v-72z" glyph-name="zcaron" horiz-adv-x="1019" unicode="ž"/><glyph d="M1130 1532h-40q-139 0 -224.5 -81t-109.5 -220l-25 -137h299v-74h-313l-131 -682q-33 -162 -136.5 -259t-265.5 -97q-8 0 -24.5 1t-26.5 1v75h41q274 -8 336 310l125 651h-250v74h262l31 153q33 162 135 262.5t264 100.5q8 0 26.5 -1t26.5 -1v-76z" glyph-name="florin" horiz-adv-x="1200" unicode="ƒ"/><glyph d="M715 856h471v-78h-524l-494 -700h1022v-78h-1118v78l493 700h-456v78h512l471 672h-988v76h1082v-78z" glyph-name="uni01B5" horiz-adv-x="1280" unicode="Ƶ"/><glyph d="M938 1022l-350 -436h348v-74h-408l-350 -438h760v-74h-856v74l352 438h-332v74h390l350 434h-742v74h838v-72z" glyph-name="uni01B6" horiz-adv-x="1030" unicode="ƶ"/><glyph d="M1083 2083l-272 -352h-88l-274 352h79l240 -291l238 291h77zM1524 0h-92l-199 457h-930l-201 -457h-88l709 1604h92zM1198 535l-432 976l-428 -976h860z" glyph-name="uni01CD" horiz-adv-x="1538" unicode="Ǎ"/><glyph d="M879 1614l-273 -354h-90l-270 354h78l237 -291l240 291h78zM897 0v242q-61 -125 -173 -192.5t-243 -67.5q-158 0 -262 80.5t-104 230.5q0 156 128 234.5t300 78.5h354v76q0 166 -86 260t-248 94q-252 0 -364 -223l-72 41q55 119 165.5 188.5t268.5 69.5q190 0 304 -110.5 t114 -313.5v-688h-82zM899 532h-352q-137 0 -242.5 -58t-105.5 -179q0 -115 79.5 -176.5t204.5 -61.5q174 0 295 107.5t121 284.5v83z" glyph-name="uni01CE" horiz-adv-x="1157" unicode="ǎ"/><glyph d="M598 2103l-272 -354h-90l-273 354h80l238 -291l237 291h80zM238 0v1604h86v-1604h-86z" glyph-name="uni01CF" horiz-adv-x="561" unicode="Ǐ"/><glyph d="M553 1614l-272 -354h-91l-272 354h80l238 -291l237 291h80zM276 1094v-1094h-81v1094h81z" glyph-name="uni01D0" horiz-adv-x="471" unicode="ǐ"/><glyph d="M1227 2103l-273 -354h-90l-272 354h80l237 -291l238 291h80zM907 -16q-340 0 -563 236.5t-223 580.5t223 582.5t565 238.5t565.5 -237.5t223.5 -579.5q0 -346 -224.5 -583.5t-566.5 -237.5zM907 1544q-303 0 -501.5 -215t-198.5 -522q0 -311 199.5 -529.5t504.5 -218.5 q303 0 502 216.5t199 523.5t-200 526t-505 219z" glyph-name="uni01D1" horiz-adv-x="1816" unicode="Ǒ"/><glyph d="M985 1614l-270 -354h-90l-273 354h78l240 -291l237 291h78zM670 -18q-236 0 -397.5 161.5t-161.5 399.5q0 242 160.5 405.5t400.5 163.5q238 0 398.5 -162t160.5 -399q0 -240 -159.5 -404.5t-401.5 -164.5zM668 1036q-203 0 -337 -141t-134 -346t135 -348.5t340 -143.5 t340 141.5t135 346.5q0 207 -137 349t-342 142z" glyph-name="uni01D2" horiz-adv-x="1341" unicode="ǒ"/><glyph d="M1116 2103l-272 -354h-90l-273 354h80l238 -291l237 291h80zM1380 1604v-975q0 -297 -150.5 -472t-428.5 -175q-283 0 -434.5 175t-151.5 468v979h86v-977q0 -276 134 -422t368 -146q248 0 370.5 151.5t122.5 414.5v979h84z" glyph-name="uni01D3" horiz-adv-x="1597" unicode="Ǔ"/><glyph d="M950 1614l-270 -354h-90l-273 354h78l240 -291l237 291h78zM612 -20q-203 0 -318.5 126.5t-115.5 327.5v660h80v-643q0 -188 97.5 -292t269.5 -104q162 0 273.5 116t111.5 294v629h80v-1094h-80v242q-45 -119 -153 -190.5t-245 -71.5z" glyph-name="uni01D4" horiz-adv-x="1284" unicode="ǔ"/><glyph d="M459 1974v74h682v-74h-682zM549 1761q0 35 23.5 58.5t56.5 23.5t55.5 -23.5t22.5 -58.5t-22.5 -58.5t-55.5 -23.5t-56.5 23.5t-23.5 58.5zM891 1761q0 35 23.5 58.5t56.5 23.5t56.5 -24.5t23.5 -57t-23.5 -57.5t-56.5 -25t-56.5 23.5t-23.5 58.5zM1380 1604v-975 q0 -297 -150.5 -472t-428.5 -175q-283 0 -434.5 175t-151.5 468v979h86v-977q0 -276 134 -422t368 -146q248 0 370.5 151.5t122.5 414.5v979h84z" glyph-name="uni01D5" horiz-adv-x="1597" unicode="Ǖ"/><glyph d="M293 1651v75h682v-75h-682zM393 1378q0 35 22.5 58.5t57.5 23.5q33 0 56.5 -23.5t23.5 -58.5q0 -33 -23.5 -57.5t-56.5 -24.5t-56.5 23.5t-23.5 58.5zM717 1378q0 35 22.5 58.5t55.5 23.5q35 0 57 -23.5t22 -58.5t-23.5 -58.5t-56 -23.5t-55 23.5t-22.5 58.5zM612 -20 q-203 0 -318.5 126.5t-115.5 327.5v660h80v-643q0 -188 97.5 -292t269.5 -104q162 0 273.5 116t111.5 294v629h80v-1094h-80v242q-45 -119 -153 -190.5t-245 -71.5z" glyph-name="uni01D6" horiz-adv-x="1284" unicode="ǖ"/><glyph d="M858 1966h-84l217 334h92zM549 1761q0 35 23.5 58.5t56.5 23.5t55.5 -23.5t22.5 -58.5t-22.5 -58.5t-55.5 -23.5t-56.5 23.5t-23.5 58.5zM891 1761q0 35 23.5 58.5t56.5 23.5t56.5 -24.5t23.5 -57t-23.5 -57.5t-56.5 -25t-56.5 23.5t-23.5 58.5zM1380 1604v-975 q0 -297 -150.5 -472t-428.5 -175q-283 0 -434.5 175t-151.5 468v979h86v-977q0 -276 134 -422t368 -146q248 0 370.5 151.5t122.5 414.5v979h84z" glyph-name="uni01D7" horiz-adv-x="1597" unicode="Ǘ"/><glyph d="M918 1942l-234 -332h-74l217 332h91zM393 1378q0 35 22.5 58.5t57.5 23.5q33 0 56.5 -23.5t23.5 -58.5q0 -33 -23.5 -57.5t-56.5 -24.5t-56.5 23.5t-23.5 58.5zM717 1378q0 35 22.5 58.5t55.5 23.5q35 0 57 -23.5t22 -58.5t-23.5 -58.5t-56 -23.5t-55 23.5t-22.5 58.5z M612 -20q-203 0 -318.5 126.5t-115.5 327.5v660h80v-643q0 -188 97.5 -292t269.5 -104q162 0 273.5 116t111.5 294v629h80v-1094h-80v242q-45 -119 -153 -190.5t-245 -71.5z" glyph-name="uni01D8" horiz-adv-x="1284" unicode="ǘ"/><glyph d="M1102 2300l-256 -332h-90l-256 332h90l211 -268l211 268h90zM549 1761q0 35 23.5 58.5t56.5 23.5t55.5 -23.5t22.5 -58.5t-22.5 -58.5t-55.5 -23.5t-56.5 23.5t-23.5 58.5zM891 1761q0 35 23.5 58.5t56.5 23.5t56.5 -24.5t23.5 -57t-23.5 -57.5t-56.5 -25t-56.5 23.5 t-23.5 58.5zM1380 1604v-975q0 -297 -150.5 -472t-428.5 -175q-283 0 -434.5 175t-151.5 468v979h86v-977q0 -276 134 -422t368 -146q248 0 370.5 151.5t122.5 414.5v979h84z" glyph-name="uni01D9" horiz-adv-x="1597" unicode="Ǚ"/><glyph d="M410 1942l225 -269l223 269h78l-256 -332h-90l-256 332h76zM393 1378q0 35 22.5 58.5t57.5 23.5q33 0 56.5 -23.5t23.5 -58.5q0 -33 -23.5 -57.5t-56.5 -24.5t-56.5 23.5t-23.5 58.5zM717 1378q0 35 22.5 58.5t55.5 23.5q35 0 57 -23.5t22 -58.5t-23.5 -58.5t-56 -23.5 t-55 23.5t-22.5 58.5zM612 -20q-203 0 -318.5 126.5t-115.5 327.5v660h80v-643q0 -188 97.5 -292t269.5 -104q162 0 273.5 116t111.5 294v629h80v-1094h-80v242q-45 -119 -153 -190.5t-245 -71.5z" glyph-name="uni01DA" horiz-adv-x="1284" unicode="ǚ"/><glyph d="M852 1966h-84l-225 334h92zM549 1761q0 35 23.5 58.5t56.5 23.5t55.5 -23.5t22.5 -58.5t-22.5 -58.5t-55.5 -23.5t-56.5 23.5t-23.5 58.5zM891 1761q0 35 23.5 58.5t56.5 23.5t56.5 -24.5t23.5 -57t-23.5 -57.5t-56.5 -25t-56.5 23.5t-23.5 58.5zM1380 1604v-975 q0 -297 -150.5 -472t-428.5 -175q-283 0 -434.5 175t-151.5 468v979h86v-977q0 -276 134 -422t368 -146q248 0 370.5 151.5t122.5 414.5v979h84z" glyph-name="uni01DB" horiz-adv-x="1597" unicode="Ǜ"/><glyph d="M586 1610l-236 332h92l217 -332h-73zM553 1378q0 -33 -23.5 -57.5t-56.5 -24.5t-55.5 23.5t-22.5 58.5t22.5 58.5t55.5 23.5t56.5 -23.5t23.5 -58.5zM877 1378q0 -35 -24 -58.5t-56.5 -23.5t-56 25t-23.5 57q0 35 23.5 58.5t56.5 23.5q35 0 57.5 -23.5t22.5 -58.5z M612 -20q-203 0 -318.5 126.5t-115.5 327.5v660h80v-643q0 -188 97.5 -292t269.5 -104q162 0 273.5 116t111.5 294v629h80v-1094h-80v242q-45 -119 -153 -190.5t-245 -71.5z" glyph-name="uni01DC" horiz-adv-x="1284" unicode="ǜ"/><glyph d="M1231 2103l-273 -354h-90l-272 354h80l237 -291l238 291h80zM1642 748v-78q0 -293 -204.5 -489.5t-532.5 -196.5q-344 0 -564 233.5t-220 583.5q0 346 221 583.5t569 237.5q270 0 452.5 -147.5t250.5 -337.5l-74 -35q-29 80 -80 152.5t-125.5 140t-185.5 108.5t-240 41 q-309 0 -505.5 -215t-196.5 -522q0 -319 195.5 -533.5t506.5 -214.5q268 0 459 167t191 438v6h-740v78h823z" glyph-name="Gcaron" horiz-adv-x="1753" unicode="Ǧ"/><glyph d="M956 1614l-272 -354h-90l-272 354h79l238 -291l238 291h79zM1180 1094v-1090q0 -279 -149.5 -415t-387.5 -136q-197 0 -323.5 84t-206.5 252l71 41q33 -66 66 -112t86 -92t130 -70.5t175 -24.5q211 0 335 119t124 350v307q-57 -137 -180 -224t-279 -87q-238 0 -383 163 t-145 396t147.5 395t380.5 162q156 0 278.5 -84t180.5 -221v287h80zM1104 553v4q0 195 -129 336t-332 141q-199 0 -322.5 -135t-123.5 -342v-2q0 -207 123.5 -344t322.5 -137q201 0 331 141t130 338z" glyph-name="gcaron" horiz-adv-x="1374" unicode="ǧ"/><glyph d="M1040 2083l-272 -352h-88l-272 352h77l240 -291l238 291h77zM334 858l825 746h123l-856 -764l903 -840h-123l-872 813h-10v-813h-86v1604h86v-746h10z" glyph-name="uni01E8" horiz-adv-x="1327" unicode="Ǩ"/><glyph d="M281 578h-7v-578h-79v1667h79v-1049h5l598 476h120l-630 -496l659 -598h-117zM1061 1614l-273 -354h-90l-272 354h80l237 -291l238 291h80z" glyph-name="uni01E9" horiz-adv-x="1038" unicode="ǩ"/><glyph d="M1194 2103l-250 -354h-72l232 354h90zM1642 748v-78q0 -293 -204.5 -489.5t-532.5 -196.5q-344 0 -564 233.5t-220 583.5q0 346 221 583.5t569 237.5q270 0 452.5 -147.5t250.5 -337.5l-74 -35q-29 80 -80 152.5t-125.5 140t-185.5 108.5t-240 41q-309 0 -505.5 -215 t-196.5 -522q0 -319 195.5 -533.5t506.5 -214.5q268 0 459 167t191 438v6h-740v78h823z" glyph-name="uni01F4" horiz-adv-x="1753" unicode="Ǵ"/><glyph d="M928 1632l-248 -352h-76l232 352h92zM1180 1094v-1090q0 -279 -149.5 -415t-387.5 -136q-197 0 -323.5 84t-206.5 252l71 41q33 -66 66 -112t86 -92t130 -70.5t175 -24.5q211 0 335 119t124 350v307q-57 -137 -180 -224t-279 -87q-238 0 -383 163t-145 396t147.5 395 t380.5 162q156 0 278.5 -84t180.5 -221v287h80zM1104 553v4q0 195 -129 336t-332 141q-199 0 -322.5 -135t-123.5 -342v-2q0 -207 123.5 -344t322.5 -137q201 0 331 141t130 338z" glyph-name="uni01F5" horiz-adv-x="1376" unicode="ǵ"/><glyph d="M1087 2222l-213 -315q96 -59 97 -174q0 -63 -36 -112.5t-95 -72.5l684 -1548h-92l-199 457h-930l-201 -457h-88l682 1546q-59 20 -97 70.5t-38 116.5q0 84 60.5 144t144.5 60q29 0 41 -4l188 289h92zM766 1870q-57 0 -95 -38t-38 -97q0 -57 38 -97.5t95 -40.5t95 40 t38 98q0 55 -39 95t-94 40zM766 1511l-428 -976h860z" glyph-name="Aringacute" horiz-adv-x="1538" unicode="Ǻ"/><glyph d="M700 1094q131 -35 205 -139.5t74 -266.5v-688h-82v242q-61 -125 -173 -192.5t-243 -67.5q-158 0 -262 80.5t-104 230.5q0 156 128 234.5t300 78.5h354v76q0 166 -86 260t-248 94q-252 0 -364 -223l-72 41q90 188 293 242q-66 55 -66 137q0 84 60.5 143.5t144.5 59.5 q16 0 45 -4l191 288h92l-217 -317q94 -61 94 -170q-1 -82 -64 -139zM559 1096q57 0 95 37.5t38 97.5q0 55 -39 95t-94 40q-57 0 -95 -38t-38 -97.5t38 -97t95 -37.5zM899 532h-352q-137 0 -242.5 -58t-105.5 -179q0 -115 79.5 -176.5t204.5 -61.5q174 0 295 107.5t121 284.5 v83z" glyph-name="aringacute" horiz-adv-x="1157" unicode="ǻ"/><glyph d="M1483 2103l-250 -354h-74l232 354h92zM1112 1528v-672h768v-78h-768v-700h848v-78h-932v457h-672l-276 -457h-92l970 1604h994v-76h-840zM401 535h627v993h-27z" glyph-name="AEacute" horiz-adv-x="2086" unicode="Ǽ"/><glyph d="M1217 1632l-248 -352h-74l229 352h93zM885 805q-59 231 -322 231q-252 0 -364 -223l-72 41q55 119 165.5 188.5t268.5 69.5q270 0 373 -223q70 100 180.5 161.5t235.5 61.5q131 0 229 -47t155.5 -128t86 -178t28.5 -208v-19h-944q4 -193 134 -334t329 -141 q125 0 225.5 61.5t155.5 164.5l70 -45q-63 -117 -183 -186.5t-270 -69.5q-143 0 -261 67.5t-190 181.5q-61 -119 -176.5 -184t-253.5 -65h-4q-158 0 -262 80.5t-104 230.5q0 156 128 234.5t300 78.5h286q11 107 56 199zM905 606h858q-8 174 -109.5 302t-307.5 128 q-172 0 -301.5 -130t-139.5 -300zM874 307q-45 106 -47 225h-280q-137 0 -242.5 -58t-105.5 -179q0 -115 79.5 -176.5t204.5 -61.5q123 0 235.5 67.5t155.5 182.5z" glyph-name="aeacute" horiz-adv-x="1955" unicode="ǽ"/><glyph d="M1194 2103l-250 -354h-74l232 354h92zM1706 1630l-225 -250q221 -233 221 -575q0 -346 -224.5 -583.5t-566.5 -237.5q-299 0 -510 184l-223 -250l-55 51l223 250q-221 238 -221 582t223 582.5t565 238.5q297 0 514 -190l224 249zM211 807q0 -309 192 -524l969 1085 q-197 176 -461 176q-303 0 -501.5 -215t-198.5 -522zM915 59q303 0 502 216.5t199 523.5q0 299 -193 518l-968 -1086q194 -172 460 -172z" glyph-name="Oslashacute" horiz-adv-x="1824" unicode="Ǿ"/><glyph d="M961 1632l-248 -352h-74l229 352h93zM1235 1116l-158 -172q156 -162 156 -393q0 -240 -160 -404.5t-399 -164.5q-203 0 -355 122l-153 -170l-51 48l153 170q-154 160 -153 391q0 242 160.5 405.5t400.5 163.5q203 0 352 -123l158 172zM672 1036q-205 0 -338 -141 t-133 -346q0 -201 123 -336l653 715q-131 108 -305 108zM676 57q205 0 340 141.5t135 346.5q0 199 -127 338l-653 -717q129 -109 305 -109z" glyph-name="oslashacute" horiz-adv-x="1347" unicode="ǿ"/><glyph d="M1124 428q0 -199 -138 -321.5t-351 -122.5q-367 0 -518 399l71 37q31 -74 66 -132.5t87 -113.5t128 -85t168 -30q166 0 284.5 96.5t118.5 270.5q0 133 -102 218t-324 142q-244 63 -351 149.5t-107 258.5q0 186 140 307t335 121q186 0 307 -94t180 -240l-69 -39 q-123 295 -422 295q-154 0 -270.5 -98t-116.5 -250q0 -135 90 -205.5t301 -124.5q244 -63 368.5 -165.5t124.5 -272.5zM604 -295q-33 0 -52.5 19.5t-19.5 52.5q0 35 21.5 56.5t52.5 21.5q41 0 65.5 -31t24.5 -84v-6q0 -141 -131 -234l-43 41q102 74 111 168q-9 -4 -29 -4z " glyph-name="Scommaaccent" horiz-adv-x="1251" unicode="Ș"/><glyph d="M133 815q0 133 112.5 215t252.5 82q262 0 364 -229l-71 -39q-86 193 -297 192q-102 0 -190.5 -61.5t-88.5 -157.5q0 -98 66.5 -145t218.5 -78q195 -41 284.5 -110.5t89.5 -200.5q0 -133 -111.5 -217t-258.5 -84q-283 0 -404 256l72 38q55 -113 134 -166t198 -53 q111 0 201 62.5t90 161t-71 148.5t-245 89q-176 39 -261 102.5t-85 194.5zM483 -295q-33 0 -52 19.5t-19 52.5q0 35 21.5 56.5t51.5 21.5q41 0 65.5 -31t24.5 -84v-6q0 -141 -131 -234l-43 41q102 74 111 168q-9 -4 -29 -4z" glyph-name="scommaaccent" horiz-adv-x="991" unicode="ș"/><glyph d="M1204 1528h-530v-1528h-84v1528h-541v76h1155v-76zM614 -295q-33 0 -52 19.5t-19 52.5q0 35 21.5 56.5t51.5 21.5q41 0 66 -31t25 -84v-6q0 -141 -132 -234l-43 41q102 74 111 168q-9 -4 -29 -4z" glyph-name="uni021A" horiz-adv-x="1253" unicode="Ț"/><glyph d="M334 1020v-723q0 -229 205 -229q41 0 88 10v-74q-53 -12 -95 -12q-279 0 -278 297v731h-207v74h207v313h80v-313h293v-74h-293zM403 -295q-33 0 -52 19.5t-19 52.5q0 35 21.5 56.5t52.5 21.5q41 0 65.5 -31t24.5 -84v-6q0 -141 -131 -234l-43 41q102 74 110 168 q-9 -4 -29 -4z" glyph-name="uni021B" horiz-adv-x="706" unicode="ț"/><glyph d="M291 1094v-1348q0 -293 -279 -293q-43 0 -71 6v74q16 -2 65 -2q205 0 205 211v1352h80z" glyph-name="uni0237" horiz-adv-x="485" unicode="ȷ"/><glyph d="M575 1280l-237 291l-240 -291h-78l273 352h90l270 -352h-78z" glyph-name="circumflex" horiz-adv-x="669" unicode="ˆ"/><glyph d="M594 1608h59q0 -152 -85 -240t-220 -88q-137 0 -222 88t-85 240h59q6 -117 69.5 -185.5t178.5 -68.5t178.5 69.5t67.5 184.5z" glyph-name="breve" horiz-adv-x="694" unicode="˘"/><glyph d="M41 1450q0 35 23.5 59.5t56.5 24.5t56.5 -24.5t23.5 -59.5q0 -33 -23.5 -57.5t-56.5 -24.5t-56.5 24.5t-23.5 57.5z" glyph-name="dotaccent" horiz-adv-x="241" unicode="˙"/><glyph d="M111 1280h-66q-2 119 43 186.5t125 67.5q88 0 188 -104q74 -76 125 -76q106 0 111 178h65q2 -117 -43 -185.5t-124 -68.5q-51 0 -88 21.5t-95 78.5q-80 80 -133 80q-104 0 -108 -178z" glyph-name="tilde" horiz-adv-x="749" unicode="˜"/><glyph d="M362 1632l-247 -352h-74l229 352h92zM655 1632l-247 -352h-74l229 352h92z" glyph-name="hungarumlaut" horiz-adv-x="696" unicode="˝"/><glyph d="M88 1280l-250 352h92l232 -352h-74z" glyph-name="gravecomb" horiz-adv-x="0" unicode="̀"/><glyph d="M233 1632l-247 -352h-74l229 352h92z" glyph-name="acutecomb" horiz-adv-x="0" unicode="́"/><glyph d="M-264 1280h-66q-2 119 43 186.5t125 67.5q88 0 189 -104q74 -76 125 -76q106 0 110 178h66q2 -117 -43 -185.5t-125 -68.5q-51 0 -88 21.5t-95 78.5q-80 80 -133 80q-104 0 -108 -178z" glyph-name="tildecomb" horiz-adv-x="0" unicode="̃"/><glyph d="M-342 1313v76h684v-76h-684z" glyph-name="uni0304" horiz-adv-x="0" unicode="̄"/><glyph d="M246 1608h59q0 -152 -85 -240t-220 -88q-137 0 -222 88t-85 240h59q6 -117 69.5 -185.5t178.5 -68.5t178.5 69.5t67.5 184.5z" glyph-name="uni0306" horiz-adv-x="0" unicode="̆"/><glyph d="M-80 1450q0 35 23.5 59.5t56.5 24.5t56.5 -24.5t23.5 -59.5q0 -33 -23.5 -57.5t-56.5 -24.5t-56.5 24.5t-23.5 57.5z" glyph-name="uni0307" horiz-adv-x="0" unicode="̇"/><glyph d="M-242 1450q0 35 23.5 59.5t56.5 24.5t56.5 -24.5t23.5 -59.5q0 -33 -23.5 -57.5t-56.5 -24.5t-56.5 24.5t-23.5 57.5zM82 1450q0 35 23.5 59.5t56.5 24.5t56.5 -24.5t23.5 -59.5q0 -33 -23.5 -57.5t-56.5 -24.5t-56.5 24.5t-23.5 57.5z" glyph-name="uni0308" horiz-adv-x="0" unicode="̈"/><glyph d="M-205 1442q0 84 60.5 144.5t144.5 60.5t144.5 -60.5t60.5 -144.5q0 -86 -60.5 -145.5t-144.5 -59.5t-144.5 59.5t-60.5 145.5zM0 1579q-57 0 -95 -39t-38 -98q0 -57 38 -96t95 -39t95 38.5t38 96.5q0 55 -39 96t-94 41z" glyph-name="uni030A" horiz-adv-x="0" unicode="̊"/><glyph d="M14 1632l-247 -352h-74l229 352h92zM307 1632l-248 -352h-73l229 352h92z" glyph-name="uni030B" horiz-adv-x="0" unicode="̋"/><glyph d="M317 1614l-272 -354h-90l-272 354h79l238 -291l238 291h79z" glyph-name="uni030C" horiz-adv-x="0" unicode="̌"/><glyph d="M8 1438q74 0 74 -72q0 -35 -22.5 -56.5t-53.5 -21.5q-41 0 -65.5 31t-24.5 84v8q0 139 131 231l43 -38q-102 -78 -110 -170q10 4 28 4z" glyph-name="uni0312" horiz-adv-x="0" unicode="̒"/><glyph d="M-10 -295q-33 0 -52.5 19.5t-19.5 52.5q0 35 21.5 56.5t52.5 21.5q41 0 65.5 -31t24.5 -84v-6q0 -141 -131 -234l-43 41q102 74 110 168q-8 -4 -28 -4z" glyph-name="uni0326" horiz-adv-x="0" unicode="̦"/><glyph d="M-143 -494q-35 0 -62 7v69q37 -4 53 -4q133 0 205 74t72 211q0 59 -14 137h67q27 -66 27 -141q0 -211 -154 -303q-79 -50 -194 -50z" glyph-name="uni0327" horiz-adv-x="0" unicode="̧"/><glyph d="M164 -422v-72q-31 -6 -60 -6q-113 0 -190.5 61.5t-77.5 170.5q0 135 178 268h78q-174 -133 -174 -250q0 -94 73 -136t173 -36z" glyph-name="uni0328" horiz-adv-x="0" unicode="̨"/><glyph d="M907 -16q-340 0 -563 236.5t-223 580.5t223 582.5t565 238.5t565.5 -237.5t223.5 -579.5q0 -346 -224.5 -583.5t-566.5 -237.5zM907 1544q-303 0 -501.5 -215t-198.5 -522q0 -311 199.5 -529.5t504.5 -218.5q303 0 502 216.5t199 523.5t-200 526t-505 219zM385 856h1047 v-78h-1047v78z" glyph-name="Theta" horiz-adv-x="1818" unicode="Θ"/><glyph d="M1565 856q0 285 -195.5 486.5t-478.5 201.5t-478.5 -199.5t-195.5 -484.5q0 -252 131 -420t377 -215v-225h-586v78h508v88q-252 61 -384 251.5t-132 446.5q0 317 225.5 537.5t538.5 220.5q307 0 531.5 -221t224.5 -533q0 -260 -136.5 -451.5t-379.5 -250.5v-88h507v-78 h-585v225q246 47 377 214t131 417z" glyph-name="Omega" horiz-adv-x="1781" unicode="Ω"/><glyph d="M741 -16q-201 0 -346 130t-209.5 316t-64.5 397q0 154 39 301.5t112.5 271.5t195.5 198.5t273 74.5q154 0 276 -74.5t195.5 -196.5t112.5 -268.5t39 -302.5q0 -154 -39 -301t-112.5 -271t-196.5 -199.5t-275 -75.5zM205 868h1073q-4 133 -40 258t-99.5 232.5t-167 172 t-232.5 64.5t-232.5 -64.5t-165.5 -171t-97 -232.5t-39 -259zM1280 797h-1075q4 -133 39 -260t98.5 -235.5t167.5 -175.5t235 -67q129 0 233.5 67t167 175.5t96.5 235.5t38 260z" glyph-name="theta" horiz-adv-x="1484" unicode="θ"/><glyph d="M1176 -8h-43q-152 0 -215.5 68.5t-63.5 220.5v739h-502v-1020h-80v1020h-239v74h1143v-74h-242v-731q0 -121 43 -171t160 -50q25 0 39 2v-78z" glyph-name="pi" horiz-adv-x="1261" unicode="π"/><glyph d="M467 1921q0 35 23.5 58.5t56.5 23.5t55.5 -23.5t22.5 -58.5t-22.5 -58.5t-55.5 -23.5t-56.5 23.5t-23.5 58.5zM809 1921q0 33 23.5 57.5t56.5 24.5t56.5 -24.5t23.5 -57.5t-23.5 -57.5t-56.5 -24.5t-56.5 24.5t-23.5 57.5zM324 1528v-672h806v-78h-806v-700h886v-78h-972 v1604h962v-76h-876z" glyph-name="afii10023" horiz-adv-x="1337" unicode="Ё"/><glyph d="M1083 -16q-109 0 -223 49l29 69q92 -41 201 -41q78 0 147.5 24t132 73t99 140t36.5 214q0 193 -115.5 313.5t-304.5 120.5q-160 0 -285.5 -51t-252.5 -166v-729h-84v1528h-416v76h1073v-76h-573v-699q246 195 532 195q227 0 368.5 -136t141.5 -376q0 -248 -142.5 -388 t-363.5 -140z" glyph-name="afii10051" horiz-adv-x="1679" unicode="Ђ"/><glyph d="M897 2103l-250 -354h-74l232 354h92zM238 1604h874v-76h-790v-1528h-84v1604z" glyph-name="afii10052" horiz-adv-x="1171" unicode="Ѓ"/><glyph d="M1550 522l74 -35q-31 -86 -87 -168.5t-141 -160.5t-213 -126t-278 -48q-342 0 -563 235.5t-221 581.5q0 344 223 582.5t565 238.5q145 0 270.5 -46t210.5 -122t142 -160t88 -174l-74 -35q-29 82 -79 157t-125.5 145.5t-188.5 113.5t-248 43q-289 0 -484.5 -198.5 t-211.5 -489.5h825v-78h-827q10 -301 206.5 -510t493.5 -209q141 0 259 48.5t194 126t119.5 148t70.5 140.5z" glyph-name="afii10053" horiz-adv-x="1716" unicode="Є"/><glyph d="M1124 428q0 -199 -138 -321.5t-351 -122.5q-367 0 -518 399l71 37q31 -74 66 -132.5t87 -113.5t128 -85t168 -30q166 0 284.5 96.5t118.5 270.5q0 133 -102 218t-324 142q-244 63 -351 149.5t-107 258.5q0 186 140 307t335 121q186 0 307 -94t180 -240l-69 -39 q-123 295 -422 295q-154 0 -270.5 -98t-116.5 -250q0 -135 90 -205.5t301 -124.5q244 -63 368.5 -165.5t124.5 -272.5z" glyph-name="afii10054" horiz-adv-x="1251" unicode="Ѕ"/><glyph d="M324 0h-86v1604h86v-1604z" glyph-name="afii10055" horiz-adv-x="561" unicode="І"/><glyph d="M66 1921q0 33 23.5 57.5t56 24.5t56 -23.5t23.5 -58.5t-23.5 -58.5t-56 -23.5t-56 24.5t-23.5 57.5zM381 1921q0 35 22.5 58.5t55.5 23.5t56.5 -23.5t23.5 -58.5t-23.5 -58.5t-56.5 -23.5t-55.5 23.5t-22.5 58.5zM324 0h-86v1604h86v-1604z" glyph-name="afii10056" horiz-adv-x="561" unicode="Ї"/><glyph d="M510 59q166 0 255 98.5t89 274.5v1172h86v-1172q0 -207 -113.5 -327.5t-314.5 -120.5q-295 0 -432 344l72 41q120 -310 358 -310z" glyph-name="afii10057" horiz-adv-x="1159" unicode="Ј"/><glyph d="M557 1528l-94 -879q-10 -94 -40 -198.5t-80 -211t-132 -175t-178 -68.5h-8v76q82 0 150.5 66.5t109.5 170t65.5 197.5t32.5 176l96 922h901v-674h451q250 -2 410.5 -115t160.5 -330q0 -231 -157.5 -358t-403.5 -127h-545v1528h-739zM1382 78h455q199 0 339 97t140 306 q0 104 -43 179t-116.5 115t-156.5 58.5t-177 18.5h-441v-774z" glyph-name="afii10058" horiz-adv-x="2482" unicode="Љ"/><glyph d="M1364 895v709h86v-709h469q240 0 395.5 -107.5t155.5 -320.5q0 -227 -154.5 -347t-384.5 -120h-567v815h-1040v-815h-86v1604h86v-709h1040zM1450 78h471q94 0 171 18.5t145.5 59.5t107.5 118.5t39 186.5q0 104 -42 177t-116 109.5t-151.5 52t-169.5 15.5h-455v-737z" glyph-name="afii10059" horiz-adv-x="2547" unicode="Њ"/><glyph d="M1505 0v549q0 166 -105.5 269.5t-314.5 103.5q-160 0 -285.5 -51.5t-252.5 -165.5v-705h-84v1528h-416v76h1073v-76h-573v-723q246 195 532 194q231 0 370.5 -115.5t139.5 -338.5v-545h-84z" glyph-name="afii10060" horiz-adv-x="1705" unicode="Ћ"/><glyph d="M967 2103l-250 -354h-74l231 354h93zM324 1604v-746h10l825 746h123l-856 -764l903 -840h-123l-872 813h-10v-813h-86v1604h86z" glyph-name="afii10061" horiz-adv-x="1327" unicode="Ќ"/><glyph d="M717 1772q-123 0 -208 80.5t-122 215.5l64 15q72 -238 266 -238t266 238l66 -15q-39 -137 -123 -216.5t-209 -79.5zM49 74l43 65q102 -78 203 -78q82 0 148.5 29t116.5 84t82 103.5t69 121.5l-686 1205h96l633 -1121l546 1121h93l-605 -1229q-92 -190 -204.5 -290.5 t-284.5 -100.5q-144 0 -250 90z" glyph-name="afii10062" horiz-adv-x="1404" unicode="Ў"/><glyph d="M238 1604h84v-1526h1015v1526h86v-1604h-551v-330h-84v330h-550v1604z" glyph-name="afii10145" horiz-adv-x="1660" unicode="Џ"/><glyph d="M1524 0h-92l-199 457h-930l-201 -457h-88l709 1604h92zM1198 535l-432 976l-428 -976h860z" glyph-name="afii10017" horiz-adv-x="1538" unicode="А"/><glyph d="M324 901h477q252 0 407.5 -106.5t155.5 -329.5q0 -238 -151.5 -351.5t-401.5 -113.5h-573v1604h1042v-76h-956v-627zM324 78h485q94 0 172 17.5t147.5 59.5t109.5 120.5t40 189.5q0 102 -43 175t-115.5 112t-153.5 55t-173 16h-469v-745z" glyph-name="afii10018" horiz-adv-x="1464" unicode="Б"/><glyph d="M238 1604h524q270 0 397 -117t127 -285q0 -115 -71.5 -223.5t-229.5 -153.5q186 -31 281.5 -148.5t95.5 -250.5q0 -188 -147.5 -307t-432.5 -119h-544v1604zM324 856h452q209 0 317.5 96.5t108.5 245.5q0 145 -112.5 237.5t-329.5 92.5h-436v-672zM324 78h462 q236 0 363 93t127 255q0 158 -125 255t-356 97h-471v-700z" glyph-name="afii10019" horiz-adv-x="1482" unicode="В"/><glyph d="M322 1528v-1528h-84v1604h874v-76h-790z" glyph-name="afii10020" horiz-adv-x="1171" unicode="Г"/><glyph d="M111 -330h-86v406h2q86 0 155.5 65.5t111.5 168t65.5 196.5t31.5 178l98 920h842v-1526h174v-408h-86v330h-1308v-330zM565 1528l-92 -879q-18 -176 -81.5 -335.5t-182.5 -235.5h1038v1450h-682z" glyph-name="afii10021" horiz-adv-x="1603" unicode="Д"/><glyph d="M1130 856v-78h-806v-700h886v-78h-972v1604h962v-76h-876v-672h806z" glyph-name="afii10022" horiz-adv-x="1337" unicode="Е"/><glyph d="M934 856h10v748h84v-748h10l781 748h118l-804 -762l837 -842h-121l-809 815h-12v-815h-84v815h-10l-811 -815h-119l838 842l-805 762h119z" glyph-name="afii10024" horiz-adv-x="1972" unicode="Ж"/><glyph d="M627 1622q227 0 358 -125t131 -293q0 -121 -82 -230.5t-229 -148.5q170 -37 258 -148.5t88 -256.5q0 -180 -143.5 -308t-380.5 -128q-190 0 -329.5 106.5t-195.5 269.5l72 37q68 -170 184 -252q117 -84 267 -84q188 0 315 100.5t127 258.5q0 166 -115.5 262t-324.5 96 h-203v78h201q180 0 293.5 101.5t113.5 246.5q0 141 -111.5 240.5t-295.5 99.5q-137 0 -238 -69q-131 -86 -192 -263l-74 33q49 164 183.5 270.5t322.5 106.5z" glyph-name="afii10025" horiz-adv-x="1269" unicode="З"/><glyph d="M1380 0v1495l-1036 -1495h-106v1604h86v-1493l1038 1493h102v-1604h-84z" glyph-name="afii10026" horiz-adv-x="1703" unicode="И"/><glyph d="M852 1772q-123 0 -208 80.5t-122 215.5l64 15q72 -238 266.5 -238t265.5 238l66 -15q-39 -137 -123 -216.5t-209 -79.5zM324 1604v-1493l1038 1493h102v-1604h-84v1495l-1036 -1495h-106v1604h86z" glyph-name="afii10027" horiz-adv-x="1703" unicode="Й"/><glyph d="M332 858l827 746h123l-856 -764l903 -840h-125l-872 813h-8v-813h-86v1604h86v-746h8z" glyph-name="afii10028" horiz-adv-x="1325" unicode="К"/><glyph d="M557 1528l-94 -879q-10 -94 -40 -198.5t-80 -211t-132 -175t-178 -68.5h-8v76q82 0 150.5 67.5t109.5 170t65.5 196.5t32.5 176l96 922h901v-1604h-84v1528h-739z" glyph-name="afii10029" horiz-adv-x="1619" unicode="Л"/><glyph d="M350 1604l705 -1508l702 1508h115v-1604h-84v1483l-690 -1483h-86l-690 1477v-1477h-84v1604h112z" glyph-name="afii10030" horiz-adv-x="2109" unicode="М"/><glyph d="M324 856h1040v748h86v-1604h-86v778h-1040v-778h-86v1604h86v-748z" glyph-name="afii10031" horiz-adv-x="1687" unicode="Н"/><glyph d="M907 -16q-340 0 -563 236.5t-223 580.5t223 582.5t565 238.5t565.5 -237.5t223.5 -579.5q0 -346 -224.5 -583.5t-566.5 -237.5zM907 1544q-303 0 -501.5 -215t-198.5 -522q0 -311 199.5 -529.5t504.5 -218.5q303 0 502 216.5t199 523.5t-200 526t-505 219z" glyph-name="afii10032" horiz-adv-x="1818" unicode="О"/><glyph d="M1423 0h-86v1528h-1013v-1528h-86v1604h1185v-1604z" glyph-name="afii10033" horiz-adv-x="1660" unicode="П"/><glyph d="M238 1604h452q301 0 444.5 -134.5t143.5 -332.5q0 -209 -153.5 -344.5t-452.5 -135.5h-348v-657h-86v1604zM324 737h350q264 0 391 114t127 284q0 166 -122 279.5t-388 113.5h-358v-791z" glyph-name="afii10034" horiz-adv-x="1357" unicode="Р"/><glyph d="M1550 522l74 -35q-31 -86 -87 -168.5t-141 -160.5t-213 -126t-278 -48q-342 0 -563 235.5t-221 581.5q0 344 223 582.5t565 238.5q145 0 270.5 -46t210.5 -122t142 -160t88 -174l-74 -35q-29 82 -79 157t-125.5 145.5t-188.5 113.5t-248 43q-303 0 -500.5 -215 t-197.5 -522q0 -309 197.5 -528.5t502.5 -219.5q141 0 259 48.5t194 126t119.5 148t70.5 140.5z" glyph-name="afii10035" horiz-adv-x="1716" unicode="С"/><glyph d="M1204 1528h-530v-1528h-84v1528h-541v76h1155v-76z" glyph-name="afii10036" horiz-adv-x="1253" unicode="Т"/><glyph d="M49 74l43 65q102 -78 203 -78q82 0 148.5 29t116.5 84t82 103.5t69 121.5l-686 1205h96l633 -1121l546 1121h93l-605 -1229q-92 -190 -204.5 -290.5t-284.5 -100.5q-144 0 -250 90z" glyph-name="afii10037" horiz-adv-x="1404" unicode="У"/><glyph d="M909 117h-39q-344 0 -557 187.5t-213 500.5q0 311 212 499.5t558 188.5h39v162h84v-162h39q346 0 559 -188.5t213 -499.5q0 -313 -213 -500.5t-559 -187.5h-39v-166h-84v166zM909 1417h-39q-307 0 -495.5 -168t-188.5 -444q0 -279 190.5 -445.5t493.5 -166.5h39v1224z M993 193h39q305 0 495.5 166.5t190.5 445.5q0 276 -188.5 444t-497.5 168h-39v-1224z" glyph-name="afii10038" horiz-adv-x="1904" unicode="Ф"/><glyph d="M705 877l557 727h100l-604 -785l628 -819h-100l-581 760l-580 -760h-100l630 817l-606 787h101z" glyph-name="afii10039" horiz-adv-x="1411" unicode="Х"/><glyph d="M322 1604v-1526h1015v1526h86v-1526h172v-408h-84v330h-1273v1604h84z" glyph-name="afii10040" horiz-adv-x="1695" unicode="Ц"/><glyph d="M1180 0v762q-104 -61 -258 -113.5t-281 -52.5q-256 0 -385 117.5t-129 324.5v566h84v-568q0 -174 110.5 -269t315.5 -95q117 0 266.5 51t276.5 123v758h86v-1604h-86z" glyph-name="afii10041" horiz-adv-x="1503" unicode="Ч"/><glyph d="M322 1604v-1526h880v1526h86v-1526h881v1526h84v-1604h-2015v1604h84z" glyph-name="afii10042" horiz-adv-x="2490" unicode="Ш"/><glyph d="M322 1604v-1526h880v1526h86v-1526h881v1526h84v-1526h174v-408h-86v330h-2103v1604h84z" glyph-name="afii10043" horiz-adv-x="2525" unicode="Щ"/><glyph d="M506 930h448q252 0 412 -112.5t160 -332.5q0 -231 -158 -358t-401 -127h-545v1528h-391v76h475v-674zM506 78h457q199 0 338 97t139 306q0 104 -43 179t-117 115t-157 58.5t-177 18.5h-440v-774z" glyph-name="afii10044" horiz-adv-x="1605" unicode="Ъ"/><glyph d="M324 930h448q250 0 410.5 -112.5t160.5 -332.5q0 -231 -157.5 -358t-403.5 -127h-544v1604h86v-674zM1784 0h-86v1604h86v-1604zM324 78h454q199 0 339 97t140 306q0 102 -43 178t-117.5 116t-156.5 58.5t-176 18.5h-440v-774z" glyph-name="afii10045" horiz-adv-x="2021" unicode="Ы"/><glyph d="M324 930h448q250 0 410.5 -112.5t160.5 -332.5q0 -231 -157.5 -358t-403.5 -127h-544v1604h86v-674zM324 78h454q199 0 339 97t140 306q0 102 -43 178t-117.5 116t-156.5 58.5t-176 18.5h-440v-774z" glyph-name="afii10046" horiz-adv-x="1423" unicode="Ь"/><glyph d="M813 1622q340 0 561 -237.5t221 -579.5q0 -346 -222 -583.5t-564 -237.5q-150 0 -276.5 47t-211.5 123.5t-141.5 159.5t-87.5 173l74 35q27 -74 71 -143.5t118.5 -147t193.5 -125t262 -47.5q299 0 493.5 208t204.5 511h-827v78h825q-18 289 -213.5 488.5t-482.5 199.5 q-131 0 -241.5 -42t-187.5 -112.5t-128 -145.5t-84 -159l-74 35q35 92 92.5 176t143.5 160t211 121t270 45z" glyph-name="afii10047" horiz-adv-x="1716" unicode="Э"/><glyph d="M1427 1622q332 0 544 -237.5t212 -581.5q0 -346 -212 -582.5t-548 -236.5q-326 0 -534.5 223t-222.5 555h-342v-762h-86v1604h86v-764h342q12 330 223.5 556t537.5 226zM1427 59q295 0 482.5 215t187.5 524.5t-187.5 527.5t-484.5 218q-299 0 -486 -217t-187 -528 q0 -309 191 -524.5t484 -215.5z" glyph-name="afii10048" horiz-adv-x="2306" unicode="Ю"/><glyph d="M197 0h-109l522 668q-229 29 -351 154.5t-122 318.5q0 86 31 163.5t95.5 147.5t181 111t272.5 41h479v-1604h-84v657h-397l-4 2zM1112 1528h-389q-137 0 -239.5 -36t-157 -95.5t-79 -125t-24.5 -136.5q0 -74 28 -141.5t86 -127t161.5 -95.5t238.5 -36h375v793z" glyph-name="afii10049" horiz-adv-x="1435" unicode="Я"/><glyph d="M897 0v242q-61 -125 -173 -192.5t-243 -67.5q-158 0 -262 80.5t-104 230.5q0 156 128 234.5t300 78.5h354v76q0 166 -86 260t-248 94q-252 0 -364 -223l-72 41q55 119 165.5 188.5t268.5 69.5q190 0 304 -110.5t114 -313.5v-688h-82zM899 532h-352q-137 0 -242.5 -58 t-105.5 -179q0 -115 79.5 -176.5t204.5 -61.5q174 0 295 107.5t121 284.5v83z" glyph-name="afii10065" horiz-adv-x="1157" unicode="а"/><glyph d="M1198 1561l-422 -109q-106 -27 -190 -68t-139.5 -82.5t-96.5 -101t-62.5 -103.5t-35.5 -113t-18.5 -106.5t-8.5 -105.5h4q61 166 192.5 251t295.5 85q219 0 378.5 -155.5t159.5 -399.5q0 -256 -156.5 -414.5t-393.5 -158.5q-160 0 -291 78.5t-199 230.5q-57 131 -57 344 q0 154 10 256t46 213.5t102.5 185.5t182 139.5t281.5 106.5l398 98zM707 1034q-207 0 -337 -140t-130 -345q0 -209 130 -350.5t336.5 -141.5t337 140.5t130.5 351.5q0 213 -135 349t-332 136z" glyph-name="afii10066" horiz-adv-x="1366" unicode="б"/><glyph d="M195 1094h505q145 0 251 -66.5t106 -206.5q0 -174 -187 -252q109 -29 177.5 -96t68.5 -174q0 -133 -104.5 -216t-286.5 -83h-530v1094zM274 598h420q150 0 215.5 68.5t65.5 156.5t-70.5 142.5t-204.5 54.5h-426v-422zM274 74h443q145 0 230 62.5t85 170.5q0 96 -84 156.5 t-260 60.5h-414v-450z" glyph-name="afii10067" horiz-adv-x="1228" unicode="в"/><glyph d="M274 0h-79v1094h694v-74h-615v-1020z" glyph-name="afii10068" horiz-adv-x="929" unicode="г"/><glyph d="M139 -338h-80v412h13q53 0 97 44t69.5 110.5t40 127t20.5 113.5l68 625h700v-1020h129v-412h-80v338h-977v-338zM440 1020l-61 -565q-29 -268 -166 -381h774v946h-547z" glyph-name="afii10069" horiz-adv-x="1300" unicode="д"/><glyph d="M1139 532h-942q2 -193 131 -334t329 -141q125 0 225.5 61.5t155.5 164.5l70 -45q-63 -117 -184 -186.5t-271 -69.5q-233 0 -387.5 166.5t-154.5 400.5v4q0 223 152.5 391t373.5 168q252 0 377 -162t125 -399v-19zM197 606h858q-4 80 -29 151.5t-73 136t-130 103.5 t-190 39q-170 0 -298 -130t-138 -300z" glyph-name="afii10070" horiz-adv-x="1243" unicode="е"/><glyph d="M1520 0h-115l-582 563h-8v-563h-80v563h-8l-580 -563h-114l604 586l-588 508h115l563 -492h8v492h80v-492h8l563 492h115l-588 -508z" glyph-name="afii10072" horiz-adv-x="1552" unicode="ж"/><glyph d="M479 -18q-141 0 -245.5 67.5t-159.5 188.5l71 36q109 -217 336 -217q127 0 216 68t89 170q0 98 -82.5 161.5t-218.5 63.5h-163v72h157q127 0 207 60.5t80 160.5q0 92 -79 157.5t-208 65.5q-221 0 -329 -215l-72 37q57 125 163.5 189.5t237.5 64.5q158 0 263.5 -86 t105.5 -209q0 -90 -60.5 -158.5t-158.5 -99.5q240 -63 239 -268q0 -125 -110.5 -217t-278.5 -92z" glyph-name="afii10073" horiz-adv-x="976" unicode="з"/><glyph d="M1118 1094v-1094h-80v977l-764 -977h-79v1094h79v-975l764 975h80z" glyph-name="afii10074" horiz-adv-x="1314" unicode="и"/><glyph d="M655 1280q-123 0 -208 81t-121 216l63 14q72 -238 266.5 -237.5t266.5 237.5l65 -14q-39 -137 -123 -217t-209 -80zM195 0v1094h79v-975l764 975h80v-1094h-80v977l-764 -977h-79z" glyph-name="afii10075" horiz-adv-x="1314" unicode="й"/><glyph d="M1028 0h-119l-626 563h-9v-563h-79v1092h79v-490h9l600 490h116l-626 -506z" glyph-name="afii10076" horiz-adv-x="1040" unicode="к"/><glyph d="M412 1020l-62 -563q-12 -119 -43 -215.5t-99.5 -171t-164.5 -74.5h-4v76q49 0 89 30.5t63.5 72.5t42 101.5t25.5 103.5t11 89l70 625h739v-1094h-80v1020h-587z" glyph-name="afii10077" horiz-adv-x="1273" unicode="л"/><glyph d="M293 1094l516 -1016l510 1016h100v-1094h-80v977l-485 -977h-88l-494 971v-971h-77v1094h98z" glyph-name="afii10078" horiz-adv-x="1615" unicode="м"/><glyph d="M274 606h750v488h82v-1094h-82v532h-750v-532h-79v1094h79v-488z" glyph-name="afii10079" horiz-adv-x="1300" unicode="н"/><glyph d="M670 -18q-236 0 -397.5 161.5t-161.5 399.5q0 242 160.5 405.5t400.5 163.5q238 0 398.5 -162t160.5 -399q0 -240 -159.5 -404.5t-401.5 -164.5zM668 1036q-203 0 -337 -141t-134 -346t135 -348.5t340 -143.5t340 141.5t135 346.5q0 207 -137 349t-342 142z" glyph-name="afii10080" horiz-adv-x="1341" unicode="о"/><glyph d="M1083 0h-79v1020h-730v-1020h-79v1094h888v-1094z" glyph-name="afii10081" horiz-adv-x="1277" unicode="п"/><glyph d="M274 1094v-297q57 139 180.5 227t280.5 88q231 0 381 -166t150 -397.5t-148.5 -398t-382.5 -166.5q-160 0 -282.5 87t-178.5 224v-834h-79v1633h79zM731 61q203 0 327 138.5t124 345.5v2q0 207 -126 347t-325 140q-203 0 -332 -144.5t-129 -338.5v-6q0 -197 131 -340.5 t330 -143.5z" glyph-name="afii10082" horiz-adv-x="1376" unicode="р"/><glyph d="M659 -18q-231 0 -389.5 161.5t-158.5 401t159.5 403.5t388.5 164q184 0 307.5 -89t170.5 -228l-76 -33q-98 274 -402 274q-199 0 -330.5 -143t-131.5 -344t134 -346.5t331 -145.5q295 0 401 279l76 -33q-49 -137 -172.5 -229t-307.5 -92z" glyph-name="afii10083" horiz-adv-x="1239" unicode="с"/><glyph d="M938 1020h-408v-1020h-86v1020h-405v74h899v-74z" glyph-name="afii10084" horiz-adv-x="974" unicode="т"/><glyph d="M1141 1094l-774 -1633h-86l284 602l-514 1031h90l467 -942l447 942h86z" glyph-name="afii10085" horiz-adv-x="1183" unicode="у"/><glyph d="M846 -500v613q-131 -131 -287 -131q-203 0 -321.5 156.5t-118.5 414.5q0 250 116.5 404.5t323.5 154.5q156 0 287 -131v623h80v-623q123 131 284 131q207 0 325 -155.5t118 -407.5q0 -256 -119 -411.5t-324 -155.5q-162 0 -284 131v-613h-80zM846 190v713 q-127 131 -281 131q-180 0 -271 -144.5t-91 -344.5q0 -205 89 -345.5t273 -140.5q156 0 281 131zM926 903v-713q121 -131 278 -131q184 0 273.5 140.5t89.5 351.5q0 125 -35 230.5t-120 179t-208 73.5q-151 0 -278 -131z" glyph-name="afii10086" horiz-adv-x="1769" unicode="ф"/><glyph d="M164 1094l383 -482l387 482h92l-430 -535l448 -559h-100l-397 502l-408 -502h-94l453 555l-435 539h101z" glyph-name="afii10087" horiz-adv-x="1091" unicode="х"/><glyph d="M1083 74h129v-412h-79v338h-938v1094h79v-1020h730v1020h79v-1020z" glyph-name="afii10088" horiz-adv-x="1316" unicode="ц"/><glyph d="M877 0v465q-68 -39 -183.5 -77t-220.5 -38q-168 0 -265 82t-97 242v420h79v-420q0 -129 80 -187.5t203 -58.5q98 0 211 35t193 88v543h79v-1094h-79z" glyph-name="afii10089" horiz-adv-x="1150" unicode="ч"/><glyph d="M911 74v1020h80v-1020h627v1020h80v-1094h-1503v1094h79v-1020h637z" glyph-name="afii10090" horiz-adv-x="1892" unicode="ш"/><glyph d="M274 1094v-1020h637v1020h80v-1020h627v1020h80v-1020h129v-412h-80v338h-1552v1094h79z" glyph-name="afii10091" horiz-adv-x="1931" unicode="щ"/><glyph d="M442 668h416q193 0 304.5 -85t111.5 -235q0 -154 -105.5 -251t-289.5 -97h-514v1020h-326v74h403v-426zM442 74h422q162 0 245 75.5t83 194.5q0 115 -86 182.5t-250 67.5h-414v-520z" glyph-name="afii10092" horiz-adv-x="1351" unicode="ъ"/><glyph d="M274 668h416q193 0 304.5 -85t111.5 -235q0 -154 -106.5 -251t-288.5 -97h-516v1094h79v-426zM1458 1094v-1094h-82v1094h82zM274 74h422q162 0 244 75.5t82 194.5q0 115 -86 182.5t-248 67.5h-414v-520z" glyph-name="afii10093" horiz-adv-x="1652" unicode="ы"/><glyph d="M274 668h416q193 0 304.5 -85t111.5 -235q0 -154 -106.5 -251t-288.5 -97h-516v1094h79v-426zM274 74h422q162 0 244 75.5t82 194.5q0 115 -86 182.5t-248 67.5h-414v-520z" glyph-name="afii10094" horiz-adv-x="1181" unicode="ь"/><glyph d="M588 1112q227 0 383.5 -165t156.5 -400q0 -240 -159.5 -402.5t-390.5 -162.5q-184 0 -306 91t-172 230l76 33q49 -129 152.5 -204t253.5 -75q193 0 325.5 140.5t136.5 334.5h-589v74h585q-20 182 -147 306t-309 124q-154 0 -256.5 -76.5t-149.5 -197.5l-76 33 q49 137 176.5 227t309.5 90z" glyph-name="afii10095" horiz-adv-x="1239" unicode="э"/><glyph d="M1085 1112q233 0 385 -163t152 -402.5t-153.5 -402t-385.5 -162.5q-221 0 -373.5 150.5t-162.5 379.5h-271v-512h-81v1094h81v-504h271q14 223 166.5 372.5t371.5 149.5zM1085.5 57q194.5 0 323.5 142.5t129 347.5t-131 347t-325.5 142t-323.5 -143t-129 -346 q0 -201 131 -345.5t325.5 -144.5z" glyph-name="afii10096" horiz-adv-x="1734" unicode="ю"/><glyph d="M94 0l350 438q-137 25 -227 111t-90 219q0 145 107.5 235.5t291.5 90.5h478v-1094h-80v432h-392l-337 -432h-101zM924 1020h-396q-164 0 -241.5 -75t-77.5 -179q0 -102 83 -182t243 -80h389v516z" glyph-name="afii10097" horiz-adv-x="1198" unicode="я"/><glyph d="M391 1450q0 35 23.5 59.5t56.5 24.5t56.5 -24.5t23.5 -59.5q0 -33 -23.5 -57.5t-56.5 -24.5t-56.5 24.5t-23.5 57.5zM715 1450q0 35 23.5 59.5t56 24.5t56 -24.5t23.5 -59.5q0 -33 -23.5 -57.5t-56 -24.5t-56 24.5t-23.5 57.5zM1139 532h-942q2 -193 131 -334t329 -141 q125 0 225.5 61.5t155.5 164.5l70 -45q-63 -117 -184 -186.5t-271 -69.5q-233 0 -387.5 166.5t-154.5 400.5v4q0 223 152.5 391t373.5 168q252 0 377 -162t125 -399v-19zM197 606h858q-4 80 -29 151.5t-73 136t-130 103.5t-190 39q-170 0 -298 -130t-138 -300z" glyph-name="afii10071" horiz-adv-x="1243" unicode="ё"/><glyph d="M672 1112q203 0 318.5 -126t115.5 -329v-911q0 -293 -279 -293q-43 0 -71 6v74q16 -2 65 -2q205 0 205 211v899q0 188 -97.5 291.5t-269.5 103.5q-162 0 -273.5 -115.5t-111.5 -291.5v-629h-79v1346h-160v71h160v252h79v-252h418v-71h-418v-494q47 119 154 189.5 t244 70.5z" glyph-name="afii10099" horiz-adv-x="1234" unicode="ђ"/><glyph d="M743 1632l-249 -352h-74l231 352h92zM274 0h-79v1094h694v-74h-615v-1020z" glyph-name="afii10100" horiz-adv-x="929" unicode="ѓ"/><glyph d="M1063 336l76 -33q-49 -137 -172 -229t-308 -92q-231 0 -389.5 161.5t-158.5 401t159.5 403.5t388.5 164q184 0 307.5 -89t170.5 -228l-76 -33q-98 274 -402 274q-182 0 -312 -124t-148 -306h585v-74h-589q6 -197 140 -336t327 -139q295 0 401 279z" glyph-name="afii10101" horiz-adv-x="1239" unicode="є"/><glyph d="M133 815q0 133 112.5 215t252.5 82q262 0 364 -229l-71 -39q-86 193 -297 192q-102 0 -190.5 -61.5t-88.5 -157.5q0 -98 66.5 -145t218.5 -78q195 -41 284.5 -110.5t89.5 -200.5q0 -133 -111.5 -217t-258.5 -84q-283 0 -404 256l72 38q55 -113 134 -166t198 -53 q111 0 201 62.5t90 161t-71 148.5t-245 89q-176 39 -261 102.5t-85 194.5z" glyph-name="afii10102" horiz-adv-x="991" unicode="ѕ"/><glyph d="M156 1472.5q0 32.5 23.5 57t56 24.5t56 -23.5t23.5 -58t-23.5 -58t-56 -23.5t-56 24.5t-23.5 57zM276 1094v-1094h-81v1094h81z" glyph-name="afii10103" horiz-adv-x="471" unicode="і"/><glyph d="M-2 1450q0 35 23.5 59.5t56.5 24.5t56.5 -24.5t23.5 -59.5q0 -33 -23.5 -57.5t-56.5 -24.5t-56.5 24.5t-23.5 57.5zM322 1450q0 35 22.5 59.5t55 24.5t56 -24.5t23.5 -59.5q0 -33 -23.5 -57.5t-56 -24.5t-55 24.5t-22.5 57.5zM279 1094v-1094h-84v1094h84z" glyph-name="afii10104" horiz-adv-x="473" unicode="ї"/><glyph d="M172 1472.5q0 34.5 23.5 58t56.5 23.5t56.5 -24.5t23.5 -57t-23.5 -57t-56.5 -24.5t-56.5 23.5t-23.5 58zM211 1094h80v-1348q0 -293 -279 -293q-43 0 -71 6v74q16 -2 65 -2q205 0 205 211v1352z" glyph-name="afii10105" horiz-adv-x="485" unicode="ј"/><glyph d="M412 1020l-62 -563q-12 -119 -43 -215.5t-99.5 -171t-164.5 -74.5h-4v76q49 0 89 30.5t63.5 72.5t42 101.5t25.5 103.5t11 89l70 625h739v-426h416q193 0 304.5 -85t111.5 -235q0 -154 -106.5 -251t-288.5 -97h-517v1020h-587zM1079 74h422q162 0 244 75.5t82 194.5 q0 115 -86 182.5t-248 67.5h-414v-520z" glyph-name="afii10106" horiz-adv-x="1986" unicode="љ"/><glyph d="M1024 637v457h82v-457h418q195 0 303 -78t108 -225q0 -154 -104.5 -244t-290.5 -90h-516v563h-750v-563h-79v1094h79v-457h750zM1106 74h422q162 0 242.5 69.5t80.5 186.5q0 233 -333 233h-412v-489z" glyph-name="afii10107" horiz-adv-x="2011" unicode="њ"/><glyph d="M1024 0v641q0 188 -96.5 291.5t-268.5 103.5q-162 0 -273.5 -115.5t-111.5 -291.5v-629h-79v1346h-160v71h160v252h79v-252h418v-71h-418v-494q45 119 153 189.5t245 70.5q203 0 318.5 -126t115.5 -329v-657h-82z" glyph-name="afii10108" horiz-adv-x="1284" unicode="ћ"/><glyph d="M813 1632l-250 -352h-74l232 352h92zM1028 0h-119l-626 563h-9v-563h-79v1092h79v-490h9l598 490h118l-626 -506z" glyph-name="afii10109" horiz-adv-x="1040" unicode="ќ"/><glyph d="M598 1280q-125 0 -210 81t-122 216l70 16q68 -240 262 -239q193 0 260 239l70 -16q-37 -135 -122 -216t-208 -81zM1141 1094l-774 -1633h-86l284 602l-514 1031h90l467 -942l447 942h86z" glyph-name="afii10110" horiz-adv-x="1183" unicode="ў"/><glyph d="M195 1094h79v-1020h730v1020h79v-1094h-403v-338h-82v338h-403v1094z" glyph-name="afii10193" horiz-adv-x="1277" unicode="џ"/><glyph d="M1112 1528h-790v-1528h-84v1604h790v307h84v-383z" glyph-name="afii10050" horiz-adv-x="1171" unicode="Ґ"/><glyph d="M889 1020h-615v-1020h-79v1094h616v313h78v-387z" glyph-name="afii10098" horiz-adv-x="929" unicode="ґ"/><glyph d="M1040 815h-12v-815h-84v815h-10l-811 -815h-119l838 842l-805 762h119l778 -748h10v748h84v-748h10l781 748h118l-804 -762l759 -764h90v-408h-84v330h-49z" glyph-name="uni0496" horiz-adv-x="1998" unicode="Җ"/><glyph d="M823 563h-8v-563h-80v563h-8l-580 -563h-114l604 586l-588 508h115l563 -492h8v492h80v-492h8l563 492h115l-588 -508l531 -512h90v-412h-82v338h-47z" glyph-name="uni0497" horiz-adv-x="1579" unicode="җ"/><glyph d="M1151 420q0 -174 -133 -300t-356 -136v-314h-84v316q-174 14 -299 117.5t-177 256.5l72 37q68 -170 184 -252q117 -84 267 -84q188 0 315 100.5t127 258.5q0 166 -115.5 262t-324.5 96h-203v78h201q180 0 293.5 101.5t113.5 246.5q0 141 -111.5 240.5t-295.5 99.5 q-137 0 -238 -69q-131 -86 -192 -263l-74 33q49 164 183 270.5t323 106.5q227 0 358 -125t131 -293q0 -121 -82 -230.5t-229 -148.5q170 -37 258 -148.5t88 -256.5z" glyph-name="uni0498" horiz-adv-x="1269" unicode="Ҙ"/><glyph d="M868 291q0 -119 -99 -209t-255 -98v-322h-80v322q-258 23 -360 254l71 36q109 -217 336 -217q127 0 216 68t89 170q0 98 -82.5 161.5t-218.5 63.5h-163v72h157q127 0 207 60.5t80 160.5q0 92 -79 157.5t-208 65.5q-221 0 -329 -215l-72 37q57 125 163.5 189.5t237.5 64.5 q158 0 263.5 -86t105.5 -209q0 -90 -60.5 -158.5t-158.5 -99.5q239 -63 239 -268z" glyph-name="uni0499" horiz-adv-x="976" unicode="ҙ"/><glyph d="M332 813h-8v-813h-86v1604h86v-746h8l827 746h123l-856 -764l819 -762h133v-408h-86v330h-88z" glyph-name="uni049A" horiz-adv-x="1380" unicode="Қ"/><glyph d="M283 563h-9v-563h-79v1092h79v-490h9l600 490h116l-626 -506l573 -512h129v-412h-80v338h-86z" glyph-name="uni049B" horiz-adv-x="1095" unicode="қ"/><glyph d="M1364 778h-1040v-778h-86v1604h86v-748h1040v748h86v-1526h172v-408h-86v330h-172v778z" glyph-name="uni04A2" horiz-adv-x="1722" unicode="Ң"/><glyph d="M1024 532h-750v-532h-79v1094h79v-488h750v488h82v-1020h129v-412h-82v338h-129v532z" glyph-name="uni04A3" horiz-adv-x="1339" unicode="ң"/><glyph d="M1550 522l74 -35q-31 -84 -84 -163.5t-134 -156.5t-201 -127t-259 -56v-314h-86v316q-324 16 -531.5 248.5t-207.5 566.5q0 344 223 582.5t565 238.5q145 0 270.5 -46t210.5 -122t142 -160t88 -174l-74 -35q-29 82 -79 157t-125.5 145.5t-188.5 113.5t-248 43 q-303 0 -500.5 -215t-197.5 -522q0 -309 197.5 -528.5t502.5 -219.5q141 0 259 48.5t194 126t119.5 148t70.5 140.5z" glyph-name="uni04AA" horiz-adv-x="1720" unicode="Ҫ"/><glyph d="M1063 336l76 -33q-45 -129 -158 -219t-281 -100l-2 -2v-320h-80v320l-2 2q-217 16 -361 174.5t-144 386.5q0 240 159.5 403.5t388.5 163.5q184 0 307.5 -89t170.5 -228l-76 -33q-98 274 -402 274q-199 0 -330.5 -143t-131.5 -344t134 -346.5t331 -145.5q295 0 401 279z " glyph-name="uni04AB" horiz-adv-x="1239" unicode="ҫ"/><glyph d="M590 1528h-541v76h1155v-76h-530v-1450h88v-408h-84v330h-88v1528z" glyph-name="uni04AC" horiz-adv-x="1255" unicode="Ҭ"/><glyph d="M444 1020h-405v74h899v-74h-408v-946h129v-412h-79v338h-136v1020z" glyph-name="uni04AD" horiz-adv-x="980" unicode="ҭ"/><glyph d="M705 760l-580 -760h-100l630 817l-606 787h101l555 -727l557 727h100l-604 -785l569 -741h133v-408h-86v330h-88z" glyph-name="uni04B2" horiz-adv-x="1472" unicode="Ҳ"/><glyph d="M547 502l-408 -502h-94l453 555l-435 539h101l383 -482l387 482h92l-430 -535l389 -485h131v-412h-82v338h-90z" glyph-name="uni04B3" horiz-adv-x="1155" unicode="ҳ"/><glyph d="M1180 0v762q-104 -61 -258 -113.5t-281 -52.5q-256 0 -385 117.5t-129 324.5v566h84v-568q0 -174 110.5 -269t315.5 -95q117 0 266.5 51t276.5 123v758h86v-1526h172v-408h-84v330h-174z" glyph-name="uni04B6" horiz-adv-x="1538" unicode="Ҷ"/><glyph d="M877 0v465q-86 -49 -200 -82t-204 -33q-166 0 -264 81t-98 243v420h79v-420q0 -125 78 -185.5t205 -60.5q98 0 210 34t194 89v543h79v-1020h129v-412h-79v338h-129z" glyph-name="uni04B7" horiz-adv-x="1189" unicode="ҷ"/><glyph d="M324 0h-86v1604h86v-1604z" glyph-name="uni04C0" horiz-adv-x="561" unicode="Ӏ"/><glyph d="M985 1772q-123 0 -208 80.5t-122 215.5l64 15q72 -238 266.5 -238t265.5 238l66 -15q-39 -137 -123 -216.5t-209 -79.5zM934 856h10v748h84v-748h10l781 748h118l-804 -762l837 -842h-121l-809 815h-12v-815h-84v815h-10l-811 -815h-119l838 842l-805 762h119z" glyph-name="uni04C1" horiz-adv-x="1972" unicode="Ӂ"/><glyph d="M774 1280q-123 0 -207 80t-121 217l64 14q72 -238 264 -237q197 0 268 237l66 -14q-39 -137 -124 -217t-210 -80zM1520 0h-115l-582 563h-8v-563h-80v563h-8l-580 -563h-114l604 586l-588 508h115l563 -492h8v492h80v-492h8l563 492h115l-588 -508z" glyph-name="uni04C2" horiz-adv-x="1552" unicode="ӂ"/><glyph d="M276 1094v-1094h-81v1094h81z" glyph-name="uni04CF" horiz-adv-x="471" unicode="ӏ"/><glyph d="M768 1772q-123 0 -208 80.5t-122 215.5l64 15q72 -238 266.5 -238t265.5 238l66 -15q-39 -135 -124 -215.5t-208 -80.5zM1524 0h-92l-199 457h-930l-201 -457h-88l709 1604h92zM1198 535l-432 976l-428 -976h860z" glyph-name="uni04D0" horiz-adv-x="1538" unicode="Ӑ"/><glyph d="M555 1280q-125 0 -209 80t-121 217l64 14q72 -238 266.5 -237.5t265.5 237.5l66 -14q-39 -135 -124 -216t-208 -81zM897 0v242q-61 -125 -173 -192.5t-243 -67.5q-158 0 -262 80.5t-104 230.5q0 156 128 234.5t300 78.5h354v76q0 166 -86 260t-248 94q-252 0 -364 -223 l-72 41q55 119 165.5 188.5t268.5 69.5q190 0 304 -110.5t114 -313.5v-688h-82zM899 532h-352q-137 0 -242.5 -58t-105.5 -179q0 -115 79.5 -176.5t204.5 -61.5q174 0 295 107.5t121 284.5v83z" glyph-name="uni04D1" horiz-adv-x="1157" unicode="ӑ"/><glyph d="M520 1921q0 35 22.5 58.5t55.5 23.5t56.5 -23.5t23.5 -58.5t-23.5 -58.5t-56.5 -23.5t-55.5 23.5t-22.5 58.5zM862 1921q0 35 22.5 58.5t55.5 23.5q35 0 58.5 -24.5t23.5 -57.5t-23.5 -57.5t-58.5 -24.5q-33 0 -55.5 23.5t-22.5 58.5zM1524 0h-92l-199 457h-930 l-201 -457h-88l709 1604h92zM1198 535l-432 976l-428 -976h860z" glyph-name="uni04D2" horiz-adv-x="1538" unicode="Ӓ"/><glyph d="M309 1450q0 35 23.5 59.5t56.5 24.5t56.5 -24.5t23.5 -59.5q0 -33 -23.5 -57.5t-56.5 -24.5t-56.5 24.5t-23.5 57.5zM633 1450q0 35 23.5 59.5t56 24.5t56.5 -24.5t24 -59.5q0 -33 -24 -57.5t-56.5 -24.5t-56 24.5t-23.5 57.5zM897 0v242q-61 -125 -173 -192.5 t-243 -67.5q-158 0 -262 80.5t-104 230.5q0 156 128 234.5t300 78.5h354v76q0 166 -86 260t-248 94q-252 0 -364 -223l-72 41q55 119 165.5 188.5t268.5 69.5q190 0 304 -110.5t114 -313.5v-688h-82zM899 532h-352q-137 0 -242.5 -58t-105.5 -179q0 -115 79.5 -176.5 t204.5 -61.5q174 0 295 107.5t121 284.5v83z" glyph-name="uni04D3" horiz-adv-x="1157" unicode="ӓ"/><glyph d="M1112 1528v-672h768v-78h-768v-700h848v-78h-932v457h-672l-276 -457h-92l970 1604h994v-76h-840zM401 535h627v993h-27z" glyph-name="uni04D4" horiz-adv-x="2086" unicode="Ӕ"/><glyph d="M885 805q-59 231 -322 231q-252 0 -364 -223l-72 41q55 119 165.5 188.5t268.5 69.5q270 0 373 -223q70 100 180.5 161.5t235.5 61.5q131 0 229 -47t155.5 -128t86 -178t28.5 -208v-19h-944q4 -193 134 -334t329 -141q125 0 225.5 61.5t155.5 164.5l70 -45 q-63 -117 -183 -186.5t-270 -69.5q-143 0 -261 67.5t-190 181.5q-61 -119 -176.5 -184t-253.5 -65h-4q-158 0 -262 80.5t-104 230.5q0 156 128 234.5t300 78.5h286q11 107 56 199zM905 606h858q-8 174 -109.5 302t-307.5 128q-172 0 -301.5 -130t-139.5 -300zM874 307 q-45 106 -47 225h-280q-137 0 -242.5 -58t-105.5 -179q0 -115 79.5 -176.5t204.5 -61.5q123 0 235.5 67.5t155.5 182.5z" glyph-name="uni04D5" horiz-adv-x="1955" unicode="ӕ"/><glyph d="M723 1772q-123 0 -208 80.5t-122 215.5l64 15q72 -238 266.5 -238t265.5 238l66 -15q-39 -137 -123 -216.5t-209 -79.5zM1130 856v-78h-806v-700h886v-78h-972v1604h962v-76h-876v-672h806z" glyph-name="uni04D6" horiz-adv-x="1337" unicode="Ӗ"/><glyph d="M623 1280q-123 0 -207 80t-121 217l61 14q72 -238 267 -237q197 0 268 237l63 -14q-39 -137 -122.5 -217t-208.5 -80zM1139 532h-942q2 -193 131 -334t329 -141q125 0 225.5 61.5t155.5 164.5l70 -45q-63 -117 -184 -186.5t-271 -69.5q-233 0 -387.5 166.5t-154.5 400.5 v4q0 223 152.5 391t373.5 168q252 0 377 -162t125 -399v-19zM197 606h858q-4 80 -29 151.5t-73 136t-130 103.5t-190 39q-170 0 -298 -130t-138 -300z" glyph-name="uni04D7" horiz-adv-x="1243" unicode="ӗ"/><glyph d="M735 1919q0 35 23.5 59.5t56.5 24.5t56.5 -24.5t23.5 -59.5q0 -33 -23.5 -57.5t-56.5 -24.5t-56.5 24.5t-23.5 57.5zM1079 1919q0 35 22.5 59.5t55.5 24.5t56.5 -24.5t23.5 -59.5q0 -33 -23.5 -57.5t-56.5 -24.5t-55.5 24.5t-22.5 57.5zM934 856h10v748h84v-748h10 l781 748h118l-804 -762l837 -842h-121l-809 815h-12v-815h-84v815h-10l-811 -815h-119l838 842l-805 762h119z" glyph-name="uni04DC" horiz-adv-x="1972" unicode="Ӝ"/><glyph d="M535 1450q0 35 23.5 59.5t56 24.5t56 -24.5t23.5 -59.5q0 -33 -23.5 -57.5t-56 -24.5t-56 24.5t-23.5 57.5zM858 1450q0 35 23.5 59.5t56.5 24.5t56.5 -24.5t23.5 -59.5q0 -33 -23.5 -57.5t-56.5 -24.5t-56.5 24.5t-23.5 57.5zM1520 0h-115l-582 563h-8v-563h-80v563h-8 l-580 -563h-114l604 586l-588 508h115l563 -492h8v492h80v-492h8l563 492h115l-588 -508z" glyph-name="uni04DD" horiz-adv-x="1552" unicode="ӝ"/><glyph d="M385 1919q0 35 23.5 59.5t56.5 24.5t56.5 -24.5t23.5 -59.5q0 -33 -23.5 -57.5t-56.5 -24.5t-56.5 24.5t-23.5 57.5zM727 1919q0 35 23.5 59.5t56.5 24.5t56.5 -24.5t23.5 -59.5q0 -33 -23.5 -57.5t-56.5 -24.5t-56.5 24.5t-23.5 57.5zM627 1622q227 0 358 -125t131 -293 q0 -121 -82 -230.5t-229 -148.5q170 -37 258 -148.5t88 -256.5q0 -180 -143.5 -308t-380.5 -128q-190 0 -329.5 106.5t-195.5 269.5l72 37q68 -170 184 -252q117 -84 267 -84q188 0 315 100.5t127 258.5q0 166 -115.5 262t-324.5 96h-203v78h201q180 0 293.5 101.5 t113.5 246.5q0 141 -111.5 240.5t-295.5 99.5q-137 0 -238 -69q-131 -86 -192 -263l-74 33q49 164 183.5 270.5t322.5 106.5z" glyph-name="uni04DE" horiz-adv-x="1269" unicode="Ӟ"/><glyph d="M223 1450q0 35 23.5 59.5t56.5 24.5t56.5 -24.5t23.5 -59.5q0 -33 -23.5 -57.5t-56.5 -24.5t-56.5 24.5t-23.5 57.5zM547 1450q0 35 23.5 59.5t56 24.5t56.5 -24.5t24 -59.5q0 -33 -24 -57.5t-56.5 -24.5t-56 24.5t-23.5 57.5zM479 -18q-141 0 -245.5 67.5t-159.5 188.5 l71 36q109 -217 336 -217q127 0 216 68t89 170q0 98 -82.5 161.5t-218.5 63.5h-163v72h157q127 0 207 60.5t80 160.5q0 92 -79 157.5t-208 65.5q-221 0 -329 -215l-72 37q57 125 163.5 189.5t237.5 64.5q158 0 263.5 -86t105.5 -209q0 -90 -60.5 -158.5t-158.5 -99.5 q240 -63 239 -268q0 -125 -110.5 -217t-278.5 -92z" glyph-name="uni04DF" horiz-adv-x="976" unicode="ӟ"/><glyph d="M512 1802v76h682v-76h-682zM1380 0v1495l-1036 -1495h-106v1604h86v-1493l1038 1493h102v-1604h-84z" glyph-name="uni04E2" horiz-adv-x="1703" unicode="Ӣ"/><glyph d="M313 1313v76h684v-76h-684zM1118 1094v-1094h-80v977l-764 -977h-79v1094h79v-975l764 975h80z" glyph-name="uni04E3" horiz-adv-x="1314" unicode="ӣ"/><glyph d="M600 1919q0 35 23.5 59.5t58.5 24.5q33 0 55.5 -24.5t22.5 -59.5q0 -33 -22.5 -57.5t-55.5 -24.5t-57.5 24.5t-24.5 57.5zM944 1919q0 35 23.5 59.5t56.5 24.5t56.5 -24.5t23.5 -59.5q0 -33 -23.5 -57.5t-56.5 -24.5t-56.5 24.5t-23.5 57.5zM1380 0v1495l-1036 -1495 h-106v1604h86v-1493l1038 1493h102v-1604h-84z" glyph-name="uni04E4" horiz-adv-x="1703" unicode="Ӥ"/><glyph d="M416 1450q0 35 23.5 59.5t56 24.5t56 -24.5t23.5 -59.5q0 -33 -23.5 -57.5t-56 -24.5t-56 24.5t-23.5 57.5zM739 1450q0 35 22.5 59.5t55.5 24.5t56.5 -24.5t23.5 -59.5q0 -33 -23.5 -57.5t-56.5 -24.5t-55.5 24.5t-22.5 57.5zM1118 1094v-1094h-80v977l-764 -977h-79 v1094h79v-975l764 975h80z" glyph-name="uni04E5" horiz-adv-x="1314" unicode="ӥ"/><glyph d="M659 1921q0 35 23 58.5t55.5 23.5t56 -23.5t23.5 -58.5t-23.5 -58.5t-56 -23.5t-55.5 23.5t-23 58.5zM1001 1921q0 35 23 58.5t55.5 23.5t56 -23.5t23.5 -58.5t-23.5 -58.5t-56 -23.5t-55.5 23.5t-23 58.5zM907 -16q-340 0 -563 236.5t-223 580.5t223 582.5t565 238.5 t565.5 -237.5t223.5 -579.5q0 -346 -224.5 -583.5t-566.5 -237.5zM907 1544q-303 0 -501.5 -215t-198.5 -522q0 -311 199.5 -529.5t504.5 -218.5q303 0 502 216.5t199 523.5t-200 526t-505 219z" glyph-name="uni04E6" horiz-adv-x="1818" unicode="Ӧ"/><glyph d="M432 1450q0 35 23.5 59.5t56.5 24.5t56.5 -24.5t23.5 -59.5q0 -33 -23.5 -57.5t-56.5 -24.5t-56.5 24.5t-23.5 57.5zM756 1450q0 35 23.5 59.5t56 24.5t56 -24.5t23.5 -59.5q0 -33 -23.5 -57.5t-56 -24.5t-56 24.5t-23.5 57.5zM670 -18q-236 0 -397.5 161.5t-161.5 399.5 q0 242 160.5 405.5t400.5 163.5q238 0 398.5 -162t160.5 -399q0 -240 -159.5 -404.5t-401.5 -164.5zM668 1036q-203 0 -337 -141t-134 -346t135 -348.5t340 -143.5t340 141.5t135 346.5q0 207 -137 349t-342 142z" glyph-name="uni04E7" horiz-adv-x="1341" unicode="ӧ"/><glyph d="M907 -16q-340 0 -563 236.5t-223 580.5t223 582.5t565 238.5t565.5 -237.5t223.5 -579.5q0 -346 -224.5 -583.5t-566.5 -237.5zM209 856h1401q-23 291 -218.5 489.5t-484.5 198.5q-291 0 -486.5 -198.5t-211.5 -489.5zM1612 778h-1405q10 -301 207.5 -510t496.5 -209 t496 209t205 510z" glyph-name="uni04E8" horiz-adv-x="1818" unicode="Ө"/><glyph d="M670 -18q-236 0 -397.5 161.5t-161.5 399.5q0 242 160.5 405.5t400.5 163.5q238 0 398.5 -162t160.5 -399q0 -240 -159.5 -404.5t-401.5 -164.5zM197 586h950q-16 193 -150.5 321.5t-329 128.5t-326.5 -128.5t-144 -321.5zM1147 512h-950q12 -193 146 -324t329 -131 q197 0 331 130t144 325z" glyph-name="uni04E9" horiz-adv-x="1341" unicode="ө"/><glyph d="M659 1921q0 35 23 58.5t55.5 23.5t56 -23.5t23.5 -58.5t-23.5 -58.5t-56 -23.5t-55.5 23.5t-23 58.5zM1001 1921q0 35 23 58.5t55.5 23.5t56 -23.5t23.5 -58.5t-23.5 -58.5t-56 -23.5t-55.5 23.5t-23 58.5zM907 -16q-340 0 -563 236.5t-223 580.5t223 582.5t565 238.5 t565.5 -237.5t223.5 -579.5q0 -346 -224.5 -583.5t-566.5 -237.5zM1610 856q-23 291 -218.5 489.5t-484.5 198.5q-291 0 -486.5 -198.5t-211.5 -489.5h1401zM207 778q10 -301 207.5 -510t496.5 -209t496 209t205 510h-1405z" glyph-name="uni04EA" horiz-adv-x="1818" unicode="Ӫ"/><glyph d="M432 1450q0 35 23.5 59.5t56.5 24.5t56.5 -24.5t23.5 -59.5q0 -33 -23.5 -57.5t-56.5 -24.5t-56.5 24.5t-23.5 57.5zM756 1450q0 35 23.5 59.5t56 24.5t56 -24.5t23.5 -59.5q0 -33 -23.5 -57.5t-56 -24.5t-56 24.5t-23.5 57.5zM670 -18q-236 0 -397.5 161.5t-161.5 399.5 q0 242 160.5 405.5t400.5 163.5q238 0 398.5 -162t160.5 -399q0 -240 -159.5 -404.5t-401.5 -164.5zM1147 586q-16 193 -150.5 321.5t-329 128.5t-326.5 -129t-144 -321h950zM197 512q12 -193 146 -324t329 -131q197 0 331 130t144 325h-950z" glyph-name="uni04EB" horiz-adv-x="1341" unicode="ӫ"/><glyph d="M659.5 1837q-32.5 0 -56 24.5t-23.5 57.5q0 35 23.5 59.5t56 24.5t55 -24.5t22.5 -59.5q0 -33 -22.5 -57.5t-55 -24.5zM1001.5 1837q-32.5 0 -56 24.5t-23.5 57.5q0 35 23.5 59.5t56 24.5t56 -24.5t23.5 -59.5q0 -33 -23.5 -57.5t-56 -24.5zM813 1622q340 0 561 -237.5 t221 -579.5q0 -346 -222 -583.5t-564 -237.5q-150 0 -276.5 47t-211.5 123.5t-141.5 159.5t-87.5 173l74 35q27 -74 71 -143.5t118.5 -147t193.5 -125t262 -47.5q299 0 493.5 208t204.5 511h-827v78h825q-18 289 -213.5 488.5t-482.5 199.5q-131 0 -241.5 -42t-187.5 -112.5 t-128 -145.5t-84 -159l-74 35q35 92 92.5 176t143.5 160t211 121t270 45z" glyph-name="uni04EC" horiz-adv-x="1716" unicode="Ӭ"/><glyph d="M440.5 1368q-32.5 0 -56.5 24.5t-24 57.5q0 35 24 59.5t56.5 24.5t56 -24.5t23.5 -59.5q0 -33 -23.5 -57.5t-56 -24.5zM762 1368q-33 0 -55.5 24.5t-22.5 57.5q0 35 22.5 59.5t55.5 24.5t56.5 -24.5t23.5 -59.5q0 -33 -23.5 -57.5t-56.5 -24.5zM588 1112 q227 0 383.5 -165t156.5 -400q0 -240 -159.5 -402.5t-390.5 -162.5q-184 0 -306 91t-172 230l76 33q49 -129 152.5 -204t253.5 -75q193 0 325.5 140.5t136.5 334.5h-589v74h585q-20 182 -147 306t-309 124q-154 0 -256.5 -76.5t-149.5 -197.5l-76 33q49 137 176.5 227 t309.5 90z" glyph-name="uni04ED" horiz-adv-x="1239" unicode="ӭ"/><glyph d="M379 1802v76h684v-76h-684zM49 74l43 65q102 -78 203 -78q82 0 148.5 29t116.5 84t82 103.5t69 121.5l-686 1205h96l633 -1121l546 1121h93l-605 -1229q-92 -190 -204.5 -290.5t-284.5 -100.5q-144 0 -250 90z" glyph-name="uni04EE" horiz-adv-x="1404" unicode="Ӯ"/><glyph d="M256 1313v76h682v-76h-682zM1141 1094l-774 -1633h-86l284 602l-514 1031h90l467 -942l447 942h86z" glyph-name="uni04EF" horiz-adv-x="1183" unicode="ӯ"/><glyph d="M465 1921q0 35 23.5 58.5t56.5 23.5t55.5 -23.5t22.5 -58.5t-22.5 -58.5t-55.5 -23.5t-56.5 23.5t-23.5 58.5zM807 1921q0 35 23.5 58.5t56.5 23.5t56.5 -24.5t23.5 -57.5t-23.5 -57.5t-56.5 -24.5t-56.5 23.5t-23.5 58.5zM49 74l43 65q102 -78 203 -78q82 0 148.5 29 t116.5 84t82 103.5t69 121.5l-686 1205h96l633 -1121l546 1121h93l-605 -1229q-92 -190 -204.5 -290.5t-284.5 -100.5q-144 0 -250 90z" glyph-name="uni04F0" horiz-adv-x="1404" unicode="Ӱ"/><glyph d="M358 1450q0 35 24 59.5t56.5 24.5t56 -24.5t23.5 -59.5q0 -33 -23.5 -57.5t-56 -24.5t-56.5 24.5t-24 57.5zM682 1450q0 35 23.5 59.5t56.5 24.5t56.5 -24.5t23.5 -59.5q0 -33 -23.5 -57.5t-56.5 -24.5t-56.5 24.5t-23.5 57.5zM1141 1094l-774 -1633h-86l284 602 l-514 1031h90l467 -942l447 942h86z" glyph-name="uni04F1" horiz-adv-x="1183" unicode="ӱ"/><glyph d="M836 2103l-248 -354h-76l231 354h93zM1128 2103l-247 -354h-74l229 354h92zM49 74l43 65q102 -78 203 -78q82 0 148.5 29t116.5 84t82 103.5t69 121.5l-686 1205h96l633 -1121l546 1121h93l-605 -1229q-92 -190 -204.5 -290.5t-284.5 -100.5q-144 0 -250 90z" glyph-name="uni04F2" horiz-adv-x="1404" unicode="Ӳ"/><glyph d="M741 1632l-247 -352h-74l229 352h92zM1034 1632l-248 -352h-73l229 352h92zM1141 1094l-774 -1633h-86l284 602l-514 1031h90l467 -942l447 942h86z" glyph-name="uni04F3" horiz-adv-x="1183" unicode="ӳ"/><glyph d="M444 1919q0 35 24 59.5t56.5 24.5t56 -24.5t23.5 -59.5q0 -33 -23.5 -57.5t-56 -24.5t-56.5 24.5t-24 57.5zM788 1919q0 35 23 59.5t55.5 24.5t56 -24.5t23.5 -59.5q0 -33 -23.5 -57.5t-56 -24.5t-55.5 24.5t-23 57.5zM1180 0v762q-104 -61 -258 -113.5t-281 -52.5 q-256 0 -385 117.5t-129 324.5v566h84v-568q0 -174 110.5 -269t315.5 -95q117 0 266.5 51t276.5 123v758h86v-1604h-86z" glyph-name="uni04F4" horiz-adv-x="1503" unicode="Ӵ"/><glyph d="M293 1450q0 35 23.5 59.5t56.5 24.5t56.5 -24.5t23.5 -59.5q0 -33 -23.5 -57.5t-56.5 -24.5t-56.5 24.5t-23.5 57.5zM616 1450q0 35 23 59.5t55.5 24.5t56 -24.5t23.5 -59.5q0 -33 -23.5 -57.5t-56 -24.5t-55.5 24.5t-23 57.5zM877 0v465q-68 -39 -183.5 -77t-220.5 -38 q-168 0 -265 82t-97 242v420h79v-420q0 -129 80 -187.5t203 -58.5q98 0 211 35t193 88v543h79v-1094h-79z" glyph-name="uni04F5" horiz-adv-x="1150" unicode="ӵ"/><glyph d="M760 1919q0 35 23.5 59.5t56 24.5t56.5 -24.5t24 -59.5q0 -33 -24 -57.5t-56.5 -24.5t-56 24.5t-23.5 57.5zM1104 1919q0 35 22.5 59.5t55 24.5t56.5 -24.5t24 -59.5q0 -33 -24 -57.5t-56.5 -24.5t-55 24.5t-22.5 57.5zM324 930h448q250 0 410.5 -112.5t160.5 -332.5 q0 -231 -157.5 -358t-403.5 -127h-544v1604h86v-674zM1784 0h-86v1604h86v-1604zM324 78h454q199 0 339 97t140 306q0 102 -43 178t-117.5 116t-156.5 58.5t-176 18.5h-440v-774z" glyph-name="uni04F8" horiz-adv-x="2021" unicode="Ӹ"/><glyph d="M586 1450q0 35 23.5 59.5t56 24.5t56 -24.5t23.5 -59.5q0 -33 -23.5 -57.5t-56 -24.5t-56 24.5t-23.5 57.5zM909 1450q0 35 22.5 59.5t55.5 24.5t56.5 -24.5t23.5 -59.5q0 -33 -23.5 -57.5t-56.5 -24.5t-55.5 24.5t-22.5 57.5zM274 668h416q193 0 304.5 -85t111.5 -235 q0 -154 -106.5 -251t-288.5 -97h-516v1094h79v-426zM1458 1094v-1094h-82v1094h82zM274 74h422q162 0 244 75.5t82 194.5q0 115 -86 182.5t-248 67.5h-414v-520z" glyph-name="uni04F9" horiz-adv-x="1708" unicode="ӹ"/><glyph d="M985 825q186 -31 281.5 -148.5t95.5 -250.5q0 -188 -146.5 -307t-431.5 -119h-2v-209h-82v209h-460v1604h460v221h82v-221q260 -4 383 -121t123 -281q0 -115 -72.5 -223.5t-230.5 -153.5zM702 1528h-378v-672h378v672zM1202 1198q0 143 -107.5 234.5t-314.5 95.5v-672 q209 2 315.5 97t106.5 245zM702 778h-378v-700h378v700zM780 78h8q236 0 362 93t126 255q0 156 -125 254t-354 98h-17v-700z" glyph-name="uni0E3F" horiz-adv-x="1486" unicode="฿"/><glyph d="M553 1802v76h682v-76h-682zM1642 748v-78q0 -293 -204.5 -489.5t-532.5 -196.5q-344 0 -564 233.5t-220 583.5q0 346 221 583.5t569 237.5q270 0 452.5 -147.5t250.5 -337.5l-74 -35q-29 80 -80 152.5t-125.5 140t-185.5 108.5t-240 41q-309 0 -505.5 -215t-196.5 -522 q0 -319 195.5 -533.5t506.5 -214.5q268 0 459 167t191 438v6h-740v78h823z" glyph-name="uni1E20" horiz-adv-x="1753" unicode="Ḡ"/><glyph d="M307 1313v76h684v-76h-684zM1180 1094v-1090q0 -279 -149.5 -415t-387.5 -136q-197 0 -323.5 84t-206.5 252l71 41q33 -66 66 -112t86 -92t130 -70.5t175 -24.5q211 0 335 119t124 350v307q-57 -137 -180 -224t-279 -87q-238 0 -383 163t-145 396t147.5 395t380.5 162 q156 0 278.5 -84t180.5 -221v287h80zM1104 553v4q0 195 -129 336t-332 141q-199 0 -322.5 -135t-123.5 -342v-2q0 -207 123.5 -344t322.5 -137q201 0 331 141t130 338z" glyph-name="uni1E21" horiz-adv-x="1374" unicode="ḡ"/><glyph d="M967 2103l-250 -354h-74l231 354h93zM324 1604v-746h10l825 746h123l-856 -764l903 -840h-123l-872 813h-10v-813h-86v1604h86z" glyph-name="uni1E30" horiz-adv-x="1327" unicode="Ḱ"/><glyph d="M281 578h-7v-578h-79v1667h79v-1049h5l598 476h120l-630 -496l659 -598h-117zM596 1280h-76l232 352h92z" glyph-name="uni1E31" horiz-adv-x="1038" unicode="ḱ"/><glyph d="M551 1923q0 35 22.5 58.5t57.5 23.5q33 0 55.5 -23.5t22.5 -58.5t-22.5 -58.5t-55.5 -23.5t-56.5 23.5t-23.5 58.5zM1124 428q0 -199 -138 -321.5t-351 -122.5q-367 0 -518 399l71 37q31 -74 66 -132.5t87 -113.5t128 -85t168 -30q166 0 284.5 96.5t118.5 270.5 q0 133 -102 218t-324 142q-244 63 -351 149.5t-107 258.5q0 186 140 307t335 121q186 0 307 -94t180 -240l-69 -39q-123 295 -422 295q-154 0 -270.5 -98t-116.5 -250q0 -135 90 -205.5t301 -124.5q244 -63 368.5 -165.5t124.5 -272.5z" glyph-name="uni1E60" horiz-adv-x="1251" unicode="Ṡ"/><glyph d="M412 1450q0 35 23.5 59.5t56 24.5t55 -24.5t22.5 -59.5q0 -33 -22.5 -57.5t-55 -24.5t-56 24.5t-23.5 57.5zM133 815q0 133 112.5 215t252.5 82q262 0 364 -229l-71 -39q-86 193 -297 192q-102 0 -190.5 -61.5t-88.5 -157.5q0 -98 66.5 -145t218.5 -78 q195 -41 284.5 -110.5t89.5 -200.5q0 -133 -111.5 -217t-258.5 -84q-283 0 -404 256l72 38q55 -113 134 -166t198 -53q111 0 201 62.5t90 161t-71 148.5t-245 89q-176 39 -261 102.5t-85 194.5z" glyph-name="uni1E61" horiz-adv-x="991" unicode="ṡ"/><glyph d="M1100 1749l-250 354h92l232 -354h-74zM158 1604l458 -1495l474 1495h79l478 -1495l458 1495h86l-499 -1604h-95l-469 1466l-469 -1466h-94l-497 1604h90z" glyph-name="Wgrave" horiz-adv-x="2258" unicode="Ẁ"/><glyph d="M846 1280l-248 352h90l232 -352h-74zM147 1094l340 -998l353 998h80l350 -998l348 998h80l-387 -1094h-82l-348 983l-353 -983h-82l-387 1094h88z" glyph-name="wgrave" horiz-adv-x="1757" unicode="ẁ"/><glyph d="M1413 2103l-248 -354h-73l231 354h90zM158 1604l458 -1495l474 1495h79l478 -1495l458 1495h86l-499 -1604h-95l-469 1466l-469 -1466h-94l-497 1604h90z" glyph-name="Wacute" horiz-adv-x="2258" unicode="Ẃ"/><glyph d="M1161 1632l-248 -352h-73l229 352h92zM147 1094l340 -998l353 998h80l350 -998l348 998h80l-387 -1094h-82l-348 983l-353 -983h-82l-387 1094h88z" glyph-name="wacute" horiz-adv-x="1757" unicode="ẃ"/><glyph d="M881 1921q0 35 22.5 58.5t55 23.5t56 -23.5t23.5 -58.5t-23.5 -58.5t-56 -23.5t-55 23.5t-22.5 58.5zM1223 1921q0 35 22.5 58.5t55 23.5t56 -23.5t23.5 -58.5t-23.5 -58.5t-56 -23.5t-55 23.5t-22.5 58.5zM158 1604l458 -1495l474 1495h79l478 -1495l458 1495h86 l-499 -1604h-95l-469 1466l-469 -1466h-94l-497 1604h90z" glyph-name="Wdieresis" horiz-adv-x="2258" unicode="Ẅ"/><glyph d="M639 1450q0 35 23.5 59.5t56.5 24.5t56.5 -24.5t23.5 -59.5q0 -33 -23.5 -57.5t-56.5 -24.5t-56.5 24.5t-23.5 57.5zM963 1450q0 35 22.5 59.5t55 24.5t56 -24.5t23.5 -59.5q0 -33 -23.5 -57.5t-56 -24.5t-55 24.5t-22.5 57.5zM147 1094l340 -998l353 998h80l350 -998 l348 998h80l-387 -1094h-82l-348 983l-353 -983h-82l-387 1094h88z" glyph-name="wdieresis" horiz-adv-x="1757" unicode="ẅ"/><glyph d="M860 1749l-237 291l-240 -291h-78l273 354h90l270 -354h-78zM1178 1604v-78l-1018 -1448h1022v-78h-1119v78l1020 1450h-987v76h1082z" glyph-name="uni1E90" horiz-adv-x="1257" unicode="Ẑ"/><glyph d="M745 1280l-237 291l-240 -291h-80l275 352h90l270 -352h-78zM934 1022l-758 -948h760v-74h-858v74l760 946h-742v74h838v-72z" glyph-name="uni1E91" horiz-adv-x="1021" unicode="ẑ"/><glyph d="M455 1749h-66q-2 119 43 186.5t125 67.5q88 0 188 -105q74 -76 125 -75q106 0 111 178h66q2 -117 -43.5 -185.5t-124.5 -68.5q-51 0 -88 21.5t-95 78.5q-80 80 -133 80q-104 0 -108 -178zM1200 1528h-876v-672h806v-78h-806v-700h886v-78h-972v1604h962v-76z" glyph-name="uni1EBC" horiz-adv-x="1337" unicode="Ẽ"/><glyph d="M362 1280h-65q-2 119 43 186.5t125 67.5q88 0 188 -104q74 -76 125 -76q106 0 111 178h65q2 -117 -43 -185.5t-125 -68.5q-51 0 -87.5 21.5t-94.5 78.5q-80 80 -133 80q-105 0 -109 -178zM1139 532h-942q2 -193 131 -334t329 -141q125 0 225.5 61.5t155.5 164.5l70 -45 q-63 -117 -184 -186.5t-271 -69.5q-233 0 -387.5 166.5t-154.5 400.5v4q0 223 152.5 391t373.5 168q252 0 377 -162t125 -399v-19zM197 606h858q-4 80 -29 151.5t-73 136t-130 103.5t-190 39q-170 0 -298 -130t-138 -300z" glyph-name="uni1EBD" horiz-adv-x="1243" unicode="ẽ"/><glyph d="M711 1749l-250 354h92l231 -354h-73zM1305 1604h100l-629 -916v-688h-84v688l-629 916h103l569 -838z" glyph-name="Ygrave" horiz-adv-x="1468" unicode="Ỳ"/><glyph d="M580 1280l-250 352h92l231 -352h-73zM1143 1094l-776 -1633h-86l284 602l-514 1031h92l467 -942l447 942h86z" glyph-name="ygrave" horiz-adv-x="1185" unicode="ỳ"/><glyph d="M1104 612h-940v74h940v-74z" glyph-name="endash" horiz-adv-x="1267" unicode="–"/><glyph d="M1950 612h-1786v74h1786v-74z" glyph-name="emdash" horiz-adv-x="2113" unicode="—"/><glyph d="M248 1384q39 0 61.5 -22.5t22.5 -61t-25.5 -63.5t-60.5 -25q-47 0 -76 35t-29 96v9q0 158 152 268l47 -43q-119 -94 -127 -199q15 6 35 6z" glyph-name="quoteleft" horiz-adv-x="481" unicode="‘"/><glyph d="M250 1444q-39 0 -61.5 22.5t-22.5 61.5t25.5 63.5t60.5 24.5q47 0 75.5 -35t28.5 -96v-8q0 -158 -151 -269l-47 43q119 94 127 199q-17 -6 -35 -6z" glyph-name="quoteright" horiz-adv-x="485" unicode="’"/><glyph d="M256 -10q-39 0 -61.5 22.5t-22.5 61.5t25.5 63.5t60.5 24.5q47 0 75.5 -35t28.5 -96v-8q0 -158 -151 -269l-47 43q119 94 127 199q-17 -6 -35 -6z" glyph-name="quotesinglbase" horiz-adv-x="536" unicode="‚"/><glyph d="M248 1384q39 0 61.5 -22.5t22.5 -61t-25.5 -63.5t-60.5 -25q-47 0 -76 35t-29 96v9q0 158 152 268l47 -43q-119 -94 -127 -199q15 6 35 6zM555 1384q39 0 61.5 -22.5t22.5 -61t-25.5 -63.5t-60.5 -25q-47 0 -75.5 35t-28.5 96v9q0 158 151 268l47 -43q-119 -94 -127 -199 q15 6 35 6z" glyph-name="quotedblleft" horiz-adv-x="786" unicode="“"/><glyph d="M250 1444q-39 0 -61.5 22.5t-22.5 61.5t25.5 63.5t60.5 24.5q47 0 75.5 -35t28.5 -96v-8q0 -158 -151 -269l-47 43q119 94 127 199q-17 -6 -35 -6zM555 1444q-39 0 -61.5 22.5t-22.5 61.5t25.5 63.5t60.5 24.5q47 0 76 -35t29 -96v-8q0 -158 -152 -269l-47 43 q119 94 127 199q-15 -6 -35 -6z" glyph-name="quotedblright" horiz-adv-x="790" unicode="”"/><glyph d="M256 -10q-39 0 -61.5 22.5t-22.5 61.5t25.5 63.5t60.5 24.5q47 0 75.5 -35t28.5 -96v-8q0 -158 -151 -269l-47 43q119 94 127 199q-17 -6 -35 -6zM559 -10q-39 0 -61.5 22.5t-22.5 61.5t25.5 63.5t60.5 24.5q47 0 76 -35t29 -96v-8q0 -158 -152 -269l-47 43 q119 94 127 199q-17 -6 -35 -6z" glyph-name="quotedblbase" horiz-adv-x="841" unicode="„"/><glyph d="M590 1518h80v-490h413v-74h-413v-954h-80v954h-414v74h414v490z" glyph-name="dagger" horiz-adv-x="1259" unicode="†"/><glyph d="M590 1024h-453v74h453v420h80v-420h452v-74h-452v-948h452v-76h-452v-422h-80v422h-453v76h453v948z" glyph-name="daggerdbl" horiz-adv-x="1259" unicode="‡"/><glyph d="M526.5 389q-147.5 0 -252 105.5t-104.5 253t104.5 255t252 107.5t252 -107.5t104.5 -255t-104.5 -253t-252 -105.5z" glyph-name="bullet" horiz-adv-x="1052" unicode="•"/><glyph d="M252 -16q-37 0 -62.5 26.5t-25.5 63.5t25.5 62.5t62.5 25.5t63.5 -25.5t26.5 -62.5t-26.5 -63.5t-63.5 -26.5zM725 -16q-35 0 -61.5 26.5t-26.5 63.5t26.5 62.5t61.5 25.5q37 0 63.5 -25.5t26.5 -62.5t-26.5 -63.5t-63.5 -26.5zM1200 -16q-37 0 -62.5 26.5t-25.5 63.5 t25.5 62.5t62.5 25.5t63.5 -25.5t26.5 -62.5t-26.5 -63.5t-63.5 -26.5z" glyph-name="ellipsis" horiz-adv-x="1452" unicode="…"/><glyph d="M442.5 899q-149.5 0 -255 105.5t-105.5 255t105.5 255t255 105.5t255 -105.5t105.5 -255t-105.5 -255t-255 -105.5zM1360 1604h88l-1040 -1604h-93zM442.5 1550q-118.5 0 -204.5 -85t-86 -205.5t86 -205.5t204.5 -85t204.5 85t86 205.5t-86 205.5t-204.5 85zM1327.5 -10 q-149.5 0 -255 105.5t-105.5 255t105.5 255t255 105.5t255 -105.5t105.5 -255t-105.5 -255t-255 -105.5zM2160.5 -10q-149.5 0 -256 105.5t-106.5 255t106.5 255t256 105.5t254 -105.5t104.5 -255t-104.5 -255t-254 -105.5zM1327 639q-121 0 -206 -85t-85 -204 q0 -121 85 -206t206 -85t206 85t85 206t-85 205t-206 84zM2160.5 639q-120.5 0 -205.5 -84t-85 -205t85 -206t205.5 -85t204.5 85t84 206t-84 205t-204.5 84z" glyph-name="perthousand" horiz-adv-x="2600" unicode="‰"/><glyph d="M109 616l370 365l53 -49l-321 -316l321 -309l-53 -49z" glyph-name="guilsinglleft" horiz-adv-x="694" unicode="‹"/><glyph d="M483 616l-321 316l51 49l373 -365l-373 -358l-51 49z" glyph-name="guilsinglright" horiz-adv-x="694" unicode="›"/><glyph d="M481 723h2q35 59 99.5 121.5t115 104.5t89 116t38.5 164q0 131 -92 223t-235 92q-119 0 -214.5 -75.5t-138.5 -204.5l-73 36q51 150 167.5 236t258.5 86q178 0 295.5 -113.5t117.5 -279.5q0 -125 -54 -212t-167 -181q-119 -100 -163 -169t-46 -173l-2 -117h-82v854h84 v-508zM358 63.5q0 34.5 24 58t56.5 23.5t56 -24.5t23.5 -57t-23.5 -57t-56 -24.5t-56.5 23.5t-24 58z" glyph-name="uni203D" horiz-adv-x="1005" unicode="‽"/><glyph d="M973 1604l-12 -379l348 127l20 -64l-358 -110l229 -287l-53 -39l-209 293l-209 -293l-53 39l229 287l-358 110l20 64l348 -127l-12 379h70zM504 731l-12 -379l348 127l20 -61l-358 -113l229 -287l-53 -38l-209 292l-211 -292l-51 38l227 287l-358 113l20 61l348 -127 l-10 379h70zM1444 731l-12 -379l348 127l20 -61l-358 -113l229 -287l-53 -38l-211 292l-209 -292l-51 38l227 287l-358 113l20 61l348 -127l-10 379h70z" glyph-name="uni2042" horiz-adv-x="1875" unicode="⁂"/><glyph d="M1073 1604h88l-1038 -1604h-92z" glyph-name="fraction" horiz-adv-x="1191" unicode="⁄"/><glyph d="M559 1604l-10 -379l346 127l23 -64l-361 -110l229 -287l-53 -39l-209 293l-209 -293l-53 39l230 287l-359 110l21 64l348 -127l-10 379h67zM559 731l-10 -379l346 127l23 -61l-361 -113l229 -287l-53 -38l-209 292l-209 -292l-53 38l230 287l-359 113l21 61l348 -127 l-10 379h67z" glyph-name="uni2051" horiz-adv-x="1050" unicode="⁑"/><glyph d="M1165 256l58 -41q-47 -109 -141.5 -173.5t-211.5 -64.5q-84 0 -201.5 53.5t-193.5 53.5q-106 0 -282 -84l-43 76q168 109 246.5 212t78.5 242v17h-334v76h320q-18 63 -64 141l-6 16q-10 16 -34.5 58.5t-37.5 66.5h-178v76h138q-47 109 -48 197q0 168 139.5 306t340.5 138 q186 0 301.5 -92t158.5 -227l-71 -35q-37 125 -136.5 200.5t-250.5 75.5q-158 0 -278 -110.5t-120 -255.5q0 -90 56 -197h559v-76h-518q8 -16 30.5 -54t33.5 -58.5t26.5 -52t27 -60.5t17.5 -57h383v-76h-371v-12q0 -244 -229 -406v-2q88 33 170 33q76 0 191.5 -53.5 t182.5 -53.5q193 0 291 203z" glyph-name="lira" horiz-adv-x="1304" unicode="₤"/><glyph d="M1051 596h-658v-596h-82v596h-184v76h184v289h-184v73h184v570h101l413 -570h672v570h82v-570h184v-73h-184v-289h184v-76h-184v-596h-94zM729 1034l-336 461v-461h336zM995 672l-211 289h-391v-289h602zM1497 672v289h-616l211 -289h405zM1497 596h-350l350 -479v479z " glyph-name="uni20A6" horiz-adv-x="1890" unicode="₦"/><glyph d="M1391 754h-459l-242 -754h-90l-233 752h-246v71h221l-242 781h88l240 -783h449l245 783h80l248 -783h448l240 783h86l-244 -781h224v-71h-246l-234 -752h-92zM1368 821l-207 649l-207 -649h414zM854 754h-403l198 -648zM1878 754h-405l206 -650z" glyph-name="uni20A9" horiz-adv-x="2324" unicode="₩"/><glyph d="M1212 410v446q0 199 -106.5 307.5t-321.5 108.5h-460v-1272h-86v1348h544q516 0 516 -492v-446h-86zM1782 1348v-856q0 -492 -516 -492h-545v932h86v-856h459q217 0 323.5 108.5t106.5 307.5v856h86z" glyph-name="afii57636" horiz-adv-x="2019" unicode="₪"/><glyph d="M1087 0v299q-55 -137 -180 -226t-280 -89q-238 0 -384.5 165.5t-146.5 399t149.5 398.5t381.5 165q160 0 281.5 -86t178.5 -225v545h-428v71h428v250h80v-250h121v-71h-121v-1346h-80zM631 61q199 0 330 143.5t131 340.5v6q0 195 -129 339t-332 144q-201 0 -327 -137 t-126 -344v-2q0 -209 126 -349.5t327 -140.5zM1167 -352h-1022v73h1022v-73z" glyph-name="dong" horiz-adv-x="1413" unicode="₫"/><glyph d="M1698 522l74 -35q-31 -86 -87.5 -168.5t-141.5 -160.5t-213 -126t-277 -48q-283 0 -489 166.5t-269 433.5h-193v78h177q-10 76 -11 139q0 66 11 143h-177v78h193q68 266 273.5 433t488.5 167q145 0 270 -46t210 -122t142.5 -160t87.5 -174l-73 -35q-29 82 -79 157 t-126 145.5t-188.5 113.5t-247.5 43q-244 0 -425.5 -146.5t-244.5 -375.5h834l-27 -78h-823q-12 -68 -13 -137q0 -74 13 -145h739l-27 -78h-694q66 -231 245 -378t425 -147q141 0 259 48.5t193.5 126t119.5 148t71 140.5z" glyph-name="Euro" horiz-adv-x="1863" unicode="€"/><glyph d="M1114 782v-77l-399 -179v-526h-84v487l-402 -180v80l402 180v256l-402 -180v80l402 178v625h-541v78h1155v-78h-530v-586l399 178v-78l-399 -180v-256z" glyph-name="uni20AE" horiz-adv-x="1325" unicode="₮"/><glyph d="M1473 1094h-164q-16 -193 -169 -315t-435 -122h-328v-657h-86v1094h-180v77h180v433h432q289 0 431 -123t155 -310h164v-77zM377 1169h848q-14 156 -136 257.5t-374 101.5h-338v-359zM377 737h330q248 0 374.5 100.5t141.5 256.5h-846v-357z" glyph-name="uni20B1" horiz-adv-x="1548" unicode="₱"/><glyph d="M147 1020h893q66 72 66 197q0 156 -109.5 240.5t-271.5 84.5q-158 0 -277.5 -92t-150.5 -244l-78 27q35 172 180.5 279.5t325.5 107.5q190 0 328.5 -105.5t138.5 -291.5q0 -123 -59 -203h114v-76h-1100v76zM1247 604h-897q-74 -92 -74 -201q0 -170 117 -256t293 -86 q180 0 310 113t157 289l80 -21q-29 -201 -185.5 -328.5t-361.5 -127.5q-209 0 -351 104.5t-142 302.5q0 106 67 211h-113v78h1100v-78z" glyph-name="uni20B4" horiz-adv-x="1400" unicode="₴"/><glyph d="M117 1526v78h1155v-78h-1155zM1272 1165h-531v-1165h-86v1165h-538v78h1155v-78z" glyph-name="uni20B8" horiz-adv-x="1386" unicode="₸"/><glyph d="M696 1534v-2q133 -39 205 -138.5t80 -211.5h215v-76h-217q-12 -170 -133 -279.5t-340 -136.5l442 -690h-102l-432 680h-267v78h236q246 0 373 101.5t139 246.5h-748v76h748q-8 145 -129 245.5t-371 100.5h-248v76h1049v-72z" glyph-name="uni20B9" horiz-adv-x="1292" unicode="₹"/><glyph d="M1128 682l78 -10q-43 -270 -263 -471t-529 -201h-60v621l-4 -5l-225 -100v80l229 102v256l-4 -4l-225 -100v80l229 102v572h86v-535l488 221v-80l-488 -219v-256l488 221v-79l-488 -220v-579q270 2 458.5 185t229.5 419z" glyph-name="uni20BA" horiz-adv-x="1284" unicode="₺"/><glyph d="M319 0v299h-198v76h198v284h-198v76h198v869h365q156 0 273.5 -39t184 -106.5t98.5 -148.5t32 -173q0 -209 -152.5 -343.5t-451.5 -134.5h-265v-284h412v-76h-412v-299h-84zM403 737h265q264 0 392 114t128 284q0 166 -122 279.5t-388 113.5h-275v-791z" glyph-name="uni20BD" horiz-adv-x="1353" unicode="₽"/><glyph d="M387 649v-305q0 -281 250 -281q53 0 102 13v-70q-57 -14 -108 -14q-324 0 -324 344v237l-186 -174l-49 52l235 219v606q0 145 55 229q76 117 218 117q131 0 191 -81t60 -212q0 -170 -94 -314.5t-319 -338.5zM387 1284v-539q205 190 286 315.5t81 266.5q0 225 -176 225 q-100 0 -152 -92q-39 -70 -39 -176z" glyph-name="afii61289" horiz-adv-x="907" unicode="ℓ"/><glyph d="M1421 1604h84v-1604h-96l-1085 1491v-1491h-84v1604h100l1081 -1483v1483zM2138 592q-166 0 -277.5 112.5t-111.5 278.5q0 168 111.5 282.5t277.5 114.5t277.5 -113.5t111.5 -279.5t-110.5 -280.5t-278.5 -114.5zM2136 1309q-133 0 -222 -93.5t-89 -228.5t90 -230 t223 -95q135 0 224 93t89 228q0 137 -90 231.5t-225 94.5zM2490 307v-71h-731v71h731z" glyph-name="afii61352" horiz-adv-x="2646" unicode="№"/><glyph d="M729 1604v-72h-283v-852h-81v852h-283v72h647zM981 680h-76v924h123l367 -832l354 832h131v-924h-80v856h-4l-369 -856h-69l-373 848h-4v-848z" glyph-name="trademark" horiz-adv-x="2074" unicode="™"/><glyph d="M434 827v-581q86 -92 217 -140.5t264 -48.5q213 0 371 89.5t246 252.5l65 -37q-88 -176 -266 -278t-416 -102q-365 0 -576.5 236.5t-211.5 596.5q0 344 220 575.5t568 231.5q344 0 563.5 -226.5t223.5 -568.5h-1268zM1399 899v459q-88 92 -222.5 141t-265.5 49 q-279 0 -477 -186l-2 -463h967z" glyph-name="estimated" horiz-adv-x="1792" unicode="℮"/><glyph d="M334 672v850l-223 -131l-33 55l262 158h70v-932h-76zM1331 1604l-1040 -1604h-90l1042 1604h88zM1313 -23q-119 0 -205 64.5t-121 173.5l72 31q29 -88 96.5 -141.5t159.5 -53.5q102 0 173 53.5t71 135.5q0 90 -66 142t-180 52h-111v68h113q98 0 160.5 52t62.5 138 q0 74 -61.5 127t-161.5 53q-76 0 -141 -41q-78 -55 -111 -151l-72 31q33 104 119 169.5t207 65.5q129 0 213 -72.5t84 -179.5q0 -78 -52.5 -141.5t-125.5 -81.5q88 -18 143 -81.5t55 -156.5q0 -104 -91 -180t-230 -76z" glyph-name="onethird" horiz-adv-x="1746" unicode="⅓"/><glyph d="M113 741l327 271q119 100 173.5 171.5t54.5 151.5q0 92 -63.5 152.5t-162.5 60.5q-80 0 -139 -41q-76 -51 -113 -155l-71 30q31 102 117 171t204 69q135 0 220 -83t85 -202q0 -88 -51 -170q-51 -78 -182 -186l-291 -240h533v-71h-641v71zM1608 1604l-1041 -1604h-92 l1045 1604h88zM1589 -23q-119 0 -205 64.5t-120 173.5l71 31q29 -88 96.5 -141.5t159.5 -53.5q102 0 173 53.5t71 135.5q0 90 -65.5 142t-180.5 52h-110v68h112q98 0 161 52t63 138q0 74 -61.5 127t-162.5 53q-76 0 -141 -41q-78 -55 -111 -151l-71 31q33 104 119 169.5 t206 65.5q129 0 213 -72.5t84 -179.5q0 -78 -52 -141.5t-126 -81.5q88 -18 143.5 -81.5t55.5 -156.5q0 -104 -91.5 -180t-230.5 -76z" glyph-name="twothirds" horiz-adv-x="2023" unicode="⅔"/><glyph d="M410 672h-76v850l-223 -131l-33 55l262 158h70v-932zM1243 1604h88l-1040 -1604h-90zM1323 -18q-150 0 -254 68.5t-104 193.5q0 96 72.5 156.5t170.5 76.5q-94 27 -153.5 85.5t-59.5 131.5q0 123 98.5 190.5t227.5 67.5q127 0 227.5 -67.5t100.5 -190.5q0 -156 -213 -217 q98 -16 170.5 -76.5t72.5 -156.5q0 -123 -105.5 -192.5t-250.5 -69.5zM1321 883q-113 0 -182.5 -54.5t-69.5 -132.5q0 -80 71.5 -133t180.5 -53t181.5 53t72.5 133q0 78 -71.5 132.5t-182.5 54.5zM1321 442q-119 0 -201 -57t-82 -143q0 -84 81 -138.5t202 -54.5t201 52.5 t80 140.5q0 84 -82 142t-199 58z" glyph-name="oneeighth" horiz-adv-x="1779" unicode="⅛"/><glyph d="M424 653q-119 0 -205 64.5t-121 173.5l72 31q29 -88 96.5 -141.5t159.5 -53.5q102 0 173 53.5t71 134.5q0 90 -65.5 142.5t-180.5 52.5h-111v68h113q98 0 160.5 52t62.5 138q0 74 -61.5 127t-161.5 53q-76 0 -141 -41q-78 -55 -111 -151l-72 30q33 104 119 170t207 66 q129 0 213 -72.5t84 -179.5q0 -78 -52 -141.5t-126 -81.5q88 -18 143 -82t55 -156q0 -104 -91 -180t-230 -76zM1548 1604l-1040 -1604h-90l1042 1604h88zM1540 -18q-150 0 -254 68.5t-104 193.5q0 96 72.5 156.5t170.5 76.5q-94 27 -153.5 85.5t-59.5 131.5 q0 123 98.5 190.5t227.5 67.5q127 0 227.5 -67.5t100.5 -190.5q0 -156 -213 -217q98 -16 170.5 -76.5t72.5 -156.5q0 -123 -105.5 -192.5t-250.5 -69.5zM1538 883q-113 0 -182.5 -54.5t-69.5 -132.5q0 -80 72 -133t180.5 -53t181 53t72.5 133q0 78 -71.5 132.5t-182.5 54.5z M1538 442q-119 0 -201 -57t-82 -143q0 -84 81 -138.5t202 -54.5t201 52.5t80 140.5q0 84 -82 142t-199 58z" glyph-name="threeeighths" horiz-adv-x="1988" unicode="⅜"/><glyph d="M256 1534l-57 -377q90 102 229 103q137 0 221 -81t84 -212q0 -137 -93 -225.5t-232 -88.5q-111 0 -197 61.5t-123 172.5l70 33q33 -90 98.5 -141.5t153.5 -51.5q106 0 176.5 66.5t70.5 171t-66.5 164t-178.5 59.5q-127 0 -213 -105l-76 31l72 490h501v-70h-440z M1534 1604l-1040 -1604h-93l1045 1604h88zM1526 -18q-152 0 -256.5 68.5t-104.5 193.5q0 96 74 156.5t172 76.5q-94 27 -153.5 85.5t-59.5 131.5q0 123 98.5 190.5t227.5 67.5q127 0 226 -68.5t99 -189.5q0 -156 -211 -217q98 -16 171 -76.5t73 -156.5q0 -123 -105.5 -192.5 t-250.5 -69.5zM1522 883q-111 0 -180.5 -54.5t-69.5 -132.5q0 -80 71.5 -133t180 -53t181.5 53t73 133q0 78 -71.5 132.5t-184.5 54.5zM1522 442q-117 0 -199 -57t-82 -143q0 -84 81 -138.5t202 -54.5t200.5 53.5t79.5 139.5q0 84 -81.5 142t-200.5 58z" glyph-name="fiveeighths" horiz-adv-x="1974" unicode="⅝"/><glyph d="M305 672h-84l418 862h-551v70h627v-80zM1182 1604h88l-1041 -1604h-90zM1264 -18q-152 0 -256.5 68.5t-104.5 193.5q0 96 74 156.5t172 76.5q-94 27 -153.5 85.5t-59.5 131.5q0 123 98.5 190.5t227.5 67.5q127 0 226 -68.5t99 -189.5q0 -156 -211 -217q98 -16 171 -76.5 t73 -156.5q0 -123 -105.5 -192.5t-250.5 -69.5zM1260 883q-111 0 -180.5 -54.5t-69.5 -132.5q0 -80 71.5 -133t180 -53t181.5 53t73 133q0 78 -71.5 132.5t-184.5 54.5zM1260 442q-117 0 -199 -57t-82 -143q0 -84 81 -138.5t201.5 -54.5t200.5 53.5t80 139.5q0 84 -81.5 142 t-200.5 58z" glyph-name="seveneighths" horiz-adv-x="1710" unicode="⅞"/><glyph d="M633 223l-55 -53l-541 561v27l541 561l55 -53l-467 -484h1120v-75h-1120z" glyph-name="arrowleft" horiz-adv-x="1359" unicode="←"/><glyph d="M160 776l-54 53l560 541h26l561 -541l-53 -53l-483 467v-1120h-76v1120z" glyph-name="arrowup" horiz-adv-x="1359" unicode="↑"/><glyph d="M727 1266l53 53l543 -561v-27l-543 -561l-53 53l467 484h-1122v75h1122z" glyph-name="arrowright" horiz-adv-x="1359" unicode="→"/><glyph d="M1200 717l53 -53l-561 -541h-26l-560 541l54 53l481 -465v1120h76l2 -1122z" glyph-name="arrowdown" horiz-adv-x="1359" unicode="↓"/><glyph d="M338 397h-76l14 781l19 18l778 12v-73l-670 -13l791 -792l-51 -54l-793 793z" glyph-name="uni2196" horiz-adv-x="1359" unicode="↖"/><glyph d="M285 1135l2 73l778 -12l18 -18l15 -781h-76l-12 672l-793 -793l-53 54l792 792z" glyph-name="uni2197" horiz-adv-x="1359" unicode="↗"/><glyph d="M1016 1087h76l-15 -778l-18 -18l-778 -15l-2 76l671 10l-792 793l55 53l791 -790z" glyph-name="uni2198" horiz-adv-x="1359" unicode="↘"/><glyph d="M1079 352v-76l-778 15l-18 18l-15 778h76l12 -669l793 790l51 -53l-790 -793z" glyph-name="uni2199" horiz-adv-x="1359" unicode="↙"/><glyph d="M2066 965q0 -264 -172 -425t-460 -161h-1235l467 -483l-56 -54l-540 561v27l540 559l56 -51l-467 -483h1233q246 0 399.5 135t153.5 375q0 248 -151 378t-409 130h-397v75h402q299 0 467.5 -158.5t168.5 -424.5z" glyph-name="uni21A9" horiz-adv-x="2170" unicode="↩"/><glyph d="M1325 0v596q0 240 -121 336t-379 96h-624l467 -483l-56 -53l-540 561v26l540 559l56 -53l-467 -481h633q295 0 434 -123t139 -387v-594h-82z" glyph-name="uni21B0" horiz-adv-x="1546" unicode="↰"/><glyph d="M139 0v594q0 264 139.5 387t434.5 123h633l-465 481l53 53l541 -559v-26l-541 -561l-53 53l465 483h-623q-260 0 -382 -96t-122 -336v-596h-80z" glyph-name="uni21B1" horiz-adv-x="1546" unicode="↱"/><glyph d="M1407 1604v-594q0 -264 -139.5 -386t-433.5 -122h-633l467 -484l-56 -53l-540 561v27l540 559l56 -51l-467 -483h624q258 0 379 96t121 336v594h82z" glyph-name="uni21B2" horiz-adv-x="1544" unicode="↲"/><glyph d="M219 1604v-594q0 -240 121 -336t381 -96h625l-467 483l53 51l541 -559v-27l-541 -561l-53 53l467 484h-635q-295 0 -434.5 121.5t-139.5 386.5v594h82z" glyph-name="uni21B3" horiz-adv-x="1544" unicode="↳"/><glyph d="M76 1604h594q264 0 387 -139.5t123 -434.5v-633l483 467l51 -53l-559 -543h-27l-561 543l54 53l483 -467v625q0 260 -96.5 381t-335.5 121h-596v80z" glyph-name="uni21B4" horiz-adv-x="1792" unicode="↴"/><glyph d="M1186 754q0 -344 -150.5 -557t-423.5 -213q-217 0 -357 149.5t-140 374.5q0 215 149.5 360.5t374.5 145.5q262 0 461 -189q-4 334 -156.5 526.5t-417.5 192.5q-135 0 -288 -57l-33 74q160 61 319 61q324 0 493 -236.5t169 -631.5zM1102 723q-135 135 -266 182 q-90 31 -195 31q-74 0 -147.5 -24.5t-141 -74t-110.5 -135.5t-43 -194q0 -199 122.5 -324t292.5 -125q129 0 227.5 61.5t153 163t81 212t26.5 227.5z" glyph-name="partialdiff" horiz-adv-x="1323" unicode="∂"/><glyph d="M1583 0h-1509l708 1604h92zM195 76h1263l-633 1435z" glyph-name="uni2206" horiz-adv-x="1656" unicode="∆"/><glyph d="M342 1528h-266v76h1231v-76h-267v-1528h-84v1528h-530v-1528h-84v1528z" glyph-name="product" horiz-adv-x="1382" unicode="∏"/><glyph d="M113 1524v80h983v-76h-883l653 -705l-682 -745h916v-78h-1014v84l676 739z" glyph-name="summation" horiz-adv-x="1214" unicode="∑"/><glyph d="M170 807h993v-76h-993v76z" glyph-name="minus" horiz-adv-x="1331" unicode="−"/><glyph d="M274 1186h-231v74h291l411 -1156l611 1858h82l-647 -1962h-91z" glyph-name="radical" horiz-adv-x="1472" unicode="√"/><glyph d="M1927 663.5q0 -176.5 -114.5 -291t-280.5 -114.5q-51 0 -103.5 18.5t-89 39t-89 67.5t-76 70.5t-77 83t-65.5 73.5q-14 -16 -69.5 -76.5t-78 -84t-75.5 -69.5t-91 -66.5t-92.5 -38t-109.5 -17.5q-162 0 -273.5 114.5t-111.5 291t114.5 293t280.5 116.5q51 0 103.5 -18.5 t91.5 -40t89 -65.5t76.5 -71.5t77 -83t68.5 -73.5q18 18 68.5 74.5t76 83t76 71.5t88 66.5t92 39t107.5 17.5q164 0 275.5 -116.5t111.5 -293zM981 666q-6 8 -40 45t-45 50t-44 48t-51.5 50t-50 43t-56 41t-55.5 28.5t-60.5 21.5t-58.5 6q-135 0 -224 -99t-89 -236.5 t89 -232.5t224 -95q55 0 107.5 18.5t108 63.5t84 72.5t88 94.5t73.5 81zM1855 664q0 135 -90 235t-227 100q-51 0 -101.5 -18t-107.5 -66.5t-83.5 -73t-91 -96t-73.5 -79.5q14 -14 72.5 -81t88.5 -94.5t84 -72.5t105.5 -63.5t106.5 -18.5q133 0 225 95.5t92 232.5z" glyph-name="infinity" horiz-adv-x="2060" unicode="∞"/><glyph d="M330 -102v1267q0 201 98 314.5t291 128.5v-72q-168 -25 -238.5 -115t-70.5 -254v-1267q0 -201 -98.5 -314.5t-291.5 -128.5v74q166 23 238 113t72 254z" glyph-name="integral" horiz-adv-x="735" unicode="∫"/><glyph d="M266 1110q-37 0 -63.5 26.5t-26.5 63.5t26.5 62.5t63.5 25.5t62.5 -25.5t25.5 -62.5t-25.5 -63.5t-62.5 -26.5zM266 164q-37 0 -63.5 25.5t-26.5 62.5t26.5 63.5t63.5 26.5t62.5 -26.5t25.5 -63.5t-25.5 -62.5t-62.5 -25.5z" glyph-name="uni2236" horiz-adv-x="532" unicode="∶"/><glyph d="M395 1139q111 0 264 -109q49 -33 74 -48t65 -31.5t74 -16.5q86 0 175 88l49 -49q-86 -117 -226 -117q-90 0 -231 94q-61 41 -86 56.5t-73 36t-87 20.5q-90 0 -174 -88l-49 49q84 115 225 115zM395 684q106 0 264 -109q53 -37 75 -50t63 -30.5t75 -17.5q86 0 175 88 l49 -49q-90 -117 -226 -117q-88 0 -231 97q-57 39 -85 56t-75 35.5t-86 18.5q-90 0 -174 -88l-49 51q84 115 225 115z" glyph-name="approxequal" horiz-adv-x="1261" unicode="≈"/><glyph d="M324 291l112 198h-268v78h311l230 406h-541v78h582l155 272l64 -29l-142 -243h283v-78h-319l-232 -406h551v-78h-596l-129 -231z" glyph-name="notequal" horiz-adv-x="1280" unicode="≠"/><glyph d="M150 725v80l1007 469v-84l-924 -424l924 -422v-86zM150 74h1009v-74h-1009v74z" glyph-name="lessequal" horiz-adv-x="1349" unicode="≤"/><glyph d="M190 258v84l926 424l-926 422v86l1010 -469v-80zM188 74h1012v-74h-1012v74z" glyph-name="greaterequal" horiz-adv-x="1349" unicode="≥"/><glyph d="M1298 211q-66 -70 -163 -70q-94 0 -165 71t-71 165v162h-369v-162q0 -94 -69 -164q-68 -72 -166 -72q-96 0 -165 70t-69 166t68 164q70 70 166 69h160v369h-158q-94 0 -166 72q-70 70 -70 163q0 96 70 165t166 69q92 0 164 -68q70 -74 69 -166v-161h369v161 q0 96 69.5 165t166 69t165 -68.5t68.5 -165t-69.5 -166t-163.5 -69.5h-160v-369h160q98 0 163 -69q70 -66 70 -164q0 -92 -70 -166zM455 1053v161q0 63 -47 115q-47 47 -111 47q-68 0 -116 -47t-48 -115q0 -66 49 -113.5t115 -47.5h158zM1247 1329q-43 47 -112 47 q-68 0 -114 -47t-46 -115v-161h160q63 0 112 49t49 112q0 70 -49 115zM530 979v-369h369v369h-369zM455 539h-160q-66 0 -115 -50q-47 -47 -47 -112.5t47 -113.5t115 -48q70 0 113 47q47 47 47 115v162zM1249 489q-49 49 -114 50h-160v-162q0 -68 46 -115t113.5 -47 t114.5 47t47 115q0 65 -47 112z" glyph-name="uni2318" horiz-adv-x="1429" unicode="⌘"/><glyph d="M207 0v1456h1452v-1456h-1452z" glyph-name="filledbox" horiz-adv-x="1859" unicode="■"/><glyph d="M1659 1456v-1456h-1452v1456h1452zM289 78h1288v1302h-1288v-1302z" glyph-name="H22073" horiz-adv-x="1957" unicode="□"/><glyph d="M0 0l862 1495l854 -1495h-1716z" glyph-name="triagup" horiz-adv-x="1716" unicode="▲"/><glyph d="M858 1475l844 -1475h-1688zM150 78h1415l-707 1237z" glyph-name="uni25B3" horiz-adv-x="1716" unicode="△"/><glyph d="M696 0l-598 805l598 799h86l598 -799l-598 -805h-86zM1274 805l-535 721l-534 -721l534 -723z" glyph-name="lozenge" horiz-adv-x="1466" unicode="◊"/><glyph d="M833.5 -29q-315.5 0 -537.5 221.5t-222 536.5t222 538.5t537.5 223.5t536.5 -222t221 -540q0 -315 -221 -536.5t-536.5 -221.5zM834 1413q-283 0 -480.5 -200.5t-197.5 -483.5t197.5 -482.5t480.5 -199.5q279 0 475 201t196 481q0 283 -196 483.5t-475 200.5z" glyph-name="circle" horiz-adv-x="1665" unicode="○"/><glyph d="M74 729q0 317 221 539.5t536.5 222.5t537.5 -223.5t222 -538.5t-222 -536.5t-537.5 -221.5t-536.5 221.5t-221 536.5z" glyph-name="H18533" horiz-adv-x="1665" unicode="●"/><glyph d="M549 545l-500 362h619l190 588l191 -588h618l-500 -362l191 -588l-500 362l-502 -358z" glyph-name="uni2605" horiz-adv-x="1716" unicode="★"/><glyph d="M1894 1845l-235 -407v-1438h-1452v1456h1372l250 428zM289 1380v-1302h1288v1220l-606 -1042l-496 594l64 51l422 -508l573 987h-1245z" glyph-name="uni2611" horiz-adv-x="1957" unicode="☑"/><glyph d="M1659 1456v-1456h-1452v1456h1452zM289 78h1288v1302h-1288v-1302zM932 782l371 379l53 -51l-373 -383l373 -377l-53 -55l-371 377l-377 -385l-53 55l377 385l-375 383l53 53z" glyph-name="uni2612" horiz-adv-x="1859" unicode="☒"/><glyph d="M1591 729q0 -315 -221 -536.5t-536.5 -221.5t-537.5 221.5t-222 536.5t222 538.5t537.5 223.5t536.5 -222.5t221 -539.5zM1505 729q0 283 -196.5 483.5t-474.5 200.5q-283 0 -480.5 -200.5t-197.5 -483.5t197.5 -482.5t480.5 -199.5q279 0 475 200.5t196 481.5zM756 940 q0 -45 -32 -77t-77 -32t-76.5 32t-31.5 77t31.5 77t76.5 32t77 -32t32 -77zM1126 940q0 -45 -31.5 -77t-76.5 -32t-77 32t-32 77t32 77t77 32t76.5 -32t31.5 -77zM1155 340q-14 119 -105.5 202t-216 83t-216 -83t-105.5 -202h-72q14 164 132 263t261.5 99t261 -99 t132.5 -263h-72z" glyph-name="uni2639" horiz-adv-x="1665" unicode="☹"/><glyph d="M1591 729q0 -315 -221 -536.5t-536.5 -221.5t-537.5 221.5t-222 536.5t222 538.5t537.5 223.5t536.5 -222.5t221 -539.5zM1505 729q0 283 -196.5 483.5t-474.5 200.5q-283 0 -480.5 -200.5t-197.5 -483.5t197.5 -482.5t480.5 -199.5q279 0 475 200.5t196 481.5zM756 940 q0 -45 -32 -77t-77 -32t-76.5 32t-31.5 77t31.5 77t76.5 32t77 -32t32 -77zM1126 940q0 -45 -31.5 -77t-76.5 -32t-77 32t-32 77t32 77t77 32t76.5 -32t31.5 -77zM1155 680h72q-14 -164 -132 -263.5t-261 -99.5q-145 0 -262 98.5t-132 264.5h72q14 -119 105.5 -202t216 -83 t216 83t105.5 202z" glyph-name="smileface" horiz-adv-x="1665" unicode="☺"/><glyph d="M1591 729q0 -315 -221 -536.5t-536.5 -221.5t-537.5 221.5t-222 536.5t222 538.5t537.5 223.5t536.5 -222.5t221 -539.5zM756 940q0 45 -32 77t-77 32t-76.5 -32t-31.5 -77t31.5 -77t76.5 -32t77 32t32 77zM1126 940q0 45 -31.5 77t-76.5 32t-77 -32t-32 -77t32 -77 t77 -32t76.5 32t31.5 77zM1227 680h-72q-14 -119 -105.5 -202t-216 -83t-216 83t-105.5 202h-72q14 -166 131 -264.5t263 -98.5q143 0 261 99.5t132 263.5z" glyph-name="invsmileface" horiz-adv-x="1665" unicode="☻"/><glyph d="M6 983q0 199 134 334t333 135q119 0 217 -57.5t148 -159.5q49 106 149 161.5t221 55.5q195 0 328 -137t133 -332q0 -125 -55 -253t-139 -232.5t-200 -208t-219.5 -177t-217.5 -141.5q-115 68 -218.5 141.5t-219 177t-199.5 208t-139.5 232.5t-55.5 253z" glyph-name="heart" horiz-adv-x="1785" unicode="♥"/><glyph d="M76 590l57 55l483 -534l1174 1296l55 -55l-1231 -1362z" glyph-name="uni2713" horiz-adv-x="1929" unicode="✓"/><glyph d="M770 780l635 641l51 -53l-635 -641l649 -645l-53 -55l-649 647l-641 -645l-51 53l641 645l-639 641l51 53z" glyph-name="uni2715" horiz-adv-x="1546" unicode="✕"/><glyph d="M647 1032q0 -35 -23.5 -58.5t-56 -23.5t-56.5 24.5t-24 57.5t24 57.5t56.5 24.5t56 -23.5t23.5 -58.5zM524 373h-2q-35 -59 -99.5 -122t-114.5 -105t-89 -115.5t-39 -163.5q0 -131 92.5 -223.5t235.5 -92.5q119 0 214 76t138 205l74 -37q-51 -150 -168 -235.5t-258 -85.5 q-178 0 -296 113.5t-118 279.5q0 125 54.5 212t166.5 181q119 100 163 169t46 173l2 117h82v-854h-84v508z" glyph-name="uni2E18" horiz-adv-x="1005" unicode="⸘"/><glyph d="M946 1020v-731q0 -121 43 -171t162 -50q31 0 88 8v-76q-41 -8 -94 -8q-152 0 -215.5 68.5t-63.5 220.5v739h-528v-1020h-82v1020h-201v74h201v268q0 135 77 223t208 88q55 0 108 -20v-76q-51 18 -108 18q-90 0 -146.5 -59t-56.5 -176v-266h528v313h80v-313h293v-74h-293z " glyph-name="uniE09D" horiz-adv-x="1318" unicode=""/><glyph d="M874 283q0 -125 -97 -206t-234 -93v-193h-82v193q-248 14 -361 254l72 38q98 -203 293 -217v463q-168 37 -250 100.5t-82 192.5q0 123 98.5 203t229.5 92v195h82v-195q227 -18 319 -227l-71 -39q-78 174 -252 190v-448q172 -39 253.5 -109.5t81.5 -193.5zM215 817 q0 -92 59.5 -139t190.5 -76v432q-96 -8 -173 -67.5t-77 -149.5zM539 504v-445q102 10 179 70.5t77 151t-58.5 139.5t-197.5 84z" glyph-name="uniF653" horiz-adv-x="991" unicode=""/><glyph d="M123 -295q-33 0 -52.5 19.5t-19.5 52.5q0 35 21.5 56.5t52.5 21.5q41 0 65.5 -31t24.5 -84v-6q0 -141 -131 -234l-43 41q102 74 111 168q-9 -4 -29 -4z" glyph-name="uniF6C3" horiz-adv-x="0" unicode=""/><glyph d="M645 -18q-225 0 -374.5 163.5t-149.5 403.5q0 238 151.5 399.5t372.5 161.5q223 0 376 -162t153 -399q0 -240 -150 -403.5t-379 -163.5zM645 1034q-190 0 -316 -140t-126 -343q0 -199 121.5 -346.5t320.5 -147.5q201 0 324 147.5t123 346.5q0 203 -129.5 343t-317.5 140z " glyph-name="uniF730" horiz-adv-x="1292" unicode=""/><glyph d="M440 0h-80v1008l-266 -156l-35 59l306 183h75v-1094z" glyph-name="uniF731" horiz-adv-x="645" unicode=""/><glyph d="M115 70l411 366q127 113 177.5 193t50.5 157q0 104 -74 176t-195 72q-86 0 -153 -45q-88 -57 -131 -184l-74 31q37 121 132 197.5t228 76.5q152 0 250.5 -93t98.5 -231q0 -94 -50 -176q-53 -92 -208 -229l-342 -305h608v-76h-729v70z" glyph-name="uniF732" horiz-adv-x="966" unicode=""/><glyph d="M471 -18q-133 0 -231.5 74.5t-139.5 193.5l68 33q47 -117 127 -174q76 -53 174 -54q123 0 206 65.5t83 166.5q0 106 -75 168.5t-210 62.5h-123v72l121 2q117 0 190.5 65.5t73.5 157.5q0 90 -72.5 154.5t-193.5 64.5q-88 0 -156 -45q-86 -57 -131 -180l-69 31 q37 119 132 193.5t226 74.5q158 0 251 -88t93 -205q0 -82 -53 -154.5t-152 -99.5q113 -25 171.5 -100.5t58.5 -173.5q0 -127 -101.5 -216t-267.5 -89z" glyph-name="uniF733" horiz-adv-x="966" unicode=""/><glyph d="M793 1094v-764h168v-74h-168v-256h-80v256h-639v86l633 752h86zM160 330h553v657z" glyph-name="uniF734" horiz-adv-x="1056" unicode=""/><glyph d="M293 1020l-68 -449q98 111 256 111q164 0 265.5 -93t101.5 -247q0 -158 -109.5 -259t-267.5 -101q-125 0 -217 67q-102 70 -148 195l68 37q45 -115 127 -172q72 -53 172 -54q113 0 203 78t90 207q0 127 -83 197.5t-206 70.5q-162 0 -270 -133l-68 27l88 592h574v-74h-508 z" glyph-name="uniF735" horiz-adv-x="962" unicode=""/><glyph d="M524 -18q-199 0 -319 168q-78 109 -78 333q0 268 119 446.5t346 178.5q164 0 305 -137l-43 -60q-131 123 -262 123q-125 0 -221 -76q-160 -131 -166 -460q39 76 103.5 124t117.5 63t104 15q156 0 263.5 -103t107.5 -244.5t-106.5 -256t-270.5 -114.5zM520 629 q-115 0 -209 -80t-94 -199q0 -123 92 -210t211 -87q125 0 213 89t88 208t-88 199t-213 80z" glyph-name="uniF736" horiz-adv-x="1011" unicode=""/><glyph d="M795 1004l-478 -1004h-90l488 1020h-645v74h725v-90z" glyph-name="uniF737" horiz-adv-x="868" unicode=""/><glyph d="M948 293q0 -141 -121.5 -227t-287.5 -86q-172 0 -294 85t-122 228q0 109 84 183.5t194 88.5q-109 25 -175 93.5t-66 158.5q0 141 113.5 218t263.5 77q147 0 261.5 -78t114.5 -217q0 -195 -241 -252q109 -14 192.5 -87.5t83.5 -184.5zM834 819q0 92 -84 154.5t-215 62.5 q-133 0 -214 -62.5t-81 -154.5q0 -94 85 -157.5t212 -63.5t212 62.5t85 158.5zM866 291q0 100 -96 168.5t-235.5 68.5t-234.5 -68.5t-95 -168.5q0 -102 96 -169t235.5 -67t234.5 67t95 169z" glyph-name="uniF738" horiz-adv-x="1073" unicode=""/><glyph d="M700 190q102 145 109 394q-55 -109 -148.5 -155t-177.5 -46q-160 0 -266 101.5t-106 252.5q0 141 109.5 256t268.5 115q199 0 320 -168q78 -109 78 -334q0 -266 -117 -445t-340 -179q-100 0 -171 36.5t-140 106.5l43 59q74 -70 134 -99.5t136 -29.5q168 0 268 135z M492 1034q-123 0 -211 -89t-88 -208q0 -123 87 -202.5t212 -79.5q119 0 212 81.5t93 202.5t-93 208t-212 87z" glyph-name="uniF739" horiz-adv-x="1011" unicode=""/><glyph d="M575 1280l-237 291l-240 -291h-78l273 352h90l270 -352h-78z" glyph-name="glyph638" horiz-adv-x="669"/><glyph d="M561 1913q0 84 60.5 144.5t144.5 60.5t144.5 -60.5t60.5 -144.5q0 -86 -60.5 -145.5t-144.5 -59.5t-144.5 59.5t-60.5 145.5zM766 2048q-57 0 -95 -38t-38 -97q0 -57 38 -96t95 -39t95 38.5t38 96.5q0 55 -39 95t-94 40zM1524 0h-92l-199 457h-930l-201 -457h-88 l709 1604h92zM1198 535l-432 976l-428 -976h860z" glyph-name="Aring.aalt" horiz-adv-x="1538"/><glyph d="M2220 78v-78h-1243q-371 0 -614.5 224.5t-243.5 576.5q0 346 243.5 574.5t614.5 228.5h1233v-76h-856v-672h786v-78h-786v-700h866zM1270 1528h-293q-332 0 -551 -205t-219 -520.5t221 -520t553 -204.5h289v1450z" glyph-name="OE.aalt" horiz-adv-x="2347"/><glyph d="M1753 0h-846q-342 0 -564 234.5t-222 574.5q0 342 220 576.5t560 234.5q338 0 559 -234.5t221 -574.5q0 -250 -124.5 -447.5t-348.5 -285.5v-4l545 4v-78zM899 1542q-301 0 -497.5 -212t-196.5 -517q0 -307 198.5 -521t507.5 -214q117 0 217 33q213 72 341 263t128 433 q0 305 -197.5 520t-500.5 215z" glyph-name="Q.aalt" horiz-adv-x="1814"/><glyph d="M909 1620q342 0 565.5 -236.5t223.5 -578.5q0 -346 -224.5 -582.5t-566.5 -236.5q-340 0 -563 235.5t-223 579.5t223 581.5t565 237.5zM207 807q0 -317 203 -531l989 1063q-199 203 -492 203q-303 0 -501.5 -214t-198.5 -521zM911 61q303 0 502 215.5t199 522.5 q0 274 -162 479l-983 -1057q192 -160 444 -160z" glyph-name="glyph642" horiz-adv-x="1818"/><glyph d="M1104 0v299q-57 -137 -181 -226t-282 -89q-236 0 -382 165.5t-146 399t149.5 398.5t378.5 165q160 0 281.5 -86t181.5 -225v293h78v-1094h-78zM645 61q201 0 331 143.5t130 340.5v6q0 195 -129 339t-332 144q-199 0 -324.5 -137t-125.5 -344v-2q0 -209 125.5 -349.5 t324.5 -140.5z" glyph-name="a.ss01" horiz-adv-x="1376"/><glyph d="M946 1632l-248 -352h-73l229 352h92zM1104 0v299q-57 -137 -181 -226t-282 -89q-236 0 -382 165.5t-146 399t149.5 398.5t378.5 165q160 0 281.5 -86t181.5 -225v293h78v-1094h-78zM645 61q201 0 331 143.5t130 340.5v6q0 195 -129 339t-332 144q-199 0 -324.5 -137 t-125.5 -344v-2q0 -209 125.5 -349.5t324.5 -140.5z" glyph-name="aacute.aalt" horiz-adv-x="1376"/><glyph d="M887 1608h59q0 -152 -85 -240t-220 -88q-137 0 -222 88t-85 240h59q6 -117 69.5 -185.5t178.5 -68.5t178.5 69.5t67.5 184.5zM1104 0v299q-57 -137 -181 -226t-282 -89q-236 0 -382 165.5t-146 399t149.5 398.5t378.5 165q160 0 281.5 -86t181.5 -225v293h78v-1094h-78z M645 61q201 0 331 143.5t130 340.5v6q0 195 -129 339t-332 144q-199 0 -324.5 -137t-125.5 -344v-2q0 -209 125.5 -349.5t324.5 -140.5z" glyph-name="abreve.aalt" horiz-adv-x="1376"/><glyph d="M969 1614l-273 -354h-90l-270 354h78l237 -291l240 291h78zM1104 0v299q-57 -137 -181 -226t-282 -89q-236 0 -382 165.5t-146 399t149.5 398.5t378.5 165q160 0 281.5 -86t181.5 -225v293h78v-1094h-78zM645 61q201 0 331 143.5t130 340.5v6q0 195 -129 339t-332 144 q-199 0 -324.5 -137t-125.5 -344v-2q0 -209 125.5 -349.5t324.5 -140.5z" glyph-name="glyph646" horiz-adv-x="1376"/><glyph d="M883 1280l-238 291l-237 -291h-80l270 352h92l273 -352h-80zM1104 0v299q-57 -137 -181 -226t-282 -89q-236 0 -382 165.5t-146 399t149.5 398.5t378.5 165q160 0 281.5 -86t181.5 -225v293h78v-1094h-78zM645 61q201 0 331 143.5t130 340.5v6q0 195 -129 339t-332 144 q-199 0 -324.5 -137t-125.5 -344v-2q0 -209 125.5 -349.5t324.5 -140.5z" glyph-name="acircumflex.aalt" horiz-adv-x="1376"/><glyph d="M399 1450q0 35 23.5 59.5t56.5 24.5t55.5 -24.5t22.5 -59.5q0 -33 -22.5 -57.5t-55.5 -24.5t-56.5 24.5t-23.5 57.5zM723 1450q0 35 22.5 59.5t55.5 24.5t56.5 -24.5t23.5 -59.5q0 -33 -23.5 -57.5t-56.5 -24.5t-55.5 24.5t-22.5 57.5zM1104 0v299q-57 -137 -181 -226 t-282 -89q-236 0 -382 165.5t-146 399t149.5 398.5t378.5 165q160 0 281.5 -86t181.5 -225v293h78v-1094h-78zM645 61q201 0 331 143.5t130 340.5v6q0 195 -129 339t-332 144q-199 0 -324.5 -137t-125.5 -344v-2q0 -209 125.5 -349.5t324.5 -140.5z" glyph-name="adieresis.aalt" horiz-adv-x="1376"/><glyph d="M641 1280l-248 352h92l232 -352h-76zM1104 1094h78v-1094h-78v299q-57 -137 -181 -226t-282 -89q-236 0 -382 165.5t-146 399t149.5 398.5t378.5 165q160 0 281.5 -86t181.5 -225v293zM645 61q201 0 331 143.5t130 340.5v6q0 195 -129 339t-332 144q-199 0 -324.5 -137 t-125.5 -344v-2q0 -209 125.5 -349.5t324.5 -140.5z" glyph-name="agrave.aalt" horiz-adv-x="1376"/><glyph d="M303 1313v76h682v-76h-682zM1104 0v299q-57 -137 -181 -226t-282 -89q-236 0 -382 165.5t-146 399t149.5 398.5t378.5 165q160 0 281.5 -86t181.5 -225v293h78v-1094h-78zM645 61q201 0 331 143.5t130 340.5v6q0 195 -129 339t-332 144q-199 0 -324.5 -137t-125.5 -344 v-2q0 -209 125.5 -349.5t324.5 -140.5z" glyph-name="amacron.aalt" horiz-adv-x="1376"/><glyph d="M1008 -250q0 -94 72.5 -136t170.5 -36v-72q-29 -6 -57 -6q-113 0 -190.5 61.5t-77.5 170.5q0 135 178 268v299q-57 -137 -181 -226t-282 -89q-236 0 -382 165.5t-146 399t149.5 398.5t378.5 165q160 0 281.5 -86t181.5 -225v293h78v-1094q-68 -51 -121 -117.5t-53 -132.5 zM645 61q201 0 331 143.5t130 340.5v6q0 195 -129 339t-332 144q-199 0 -324.5 -137t-125.5 -344v-2q0 -209 125.5 -349.5t324.5 -140.5z" glyph-name="aogonek.aalt" horiz-adv-x="1376"/><glyph d="M440 1442q0 84 60.5 144.5t144.5 60.5t144.5 -60.5t60.5 -144.5q0 -86 -60.5 -145.5t-144.5 -59.5t-144.5 59.5t-60.5 145.5zM643 1579q-57 0 -94 -39t-37 -98q0 -57 37 -96t94 -39t96 38.5t39 96.5q0 55 -40 96t-95 41zM1104 0v299q-57 -137 -181 -226t-282 -89 q-236 0 -382 165.5t-146 399t149.5 398.5t378.5 165q160 0 281.5 -86t181.5 -225v293h78v-1094h-78zM645 61q201 0 331 143.5t130 340.5v6q0 195 -129 339t-332 144q-199 0 -324.5 -137t-125.5 -344v-2q0 -209 125.5 -349.5t324.5 -140.5z" glyph-name="aring.ss01" horiz-adv-x="1376"/><glyph d="M383 1280h-66q-2 119 43.5 186.5t124.5 67.5q88 0 189 -104q74 -76 125 -76q106 0 110 178h66q2 -117 -43 -185.5t-125 -68.5q-51 0 -88 21.5t-94 78.5q-80 80 -133 80q-105 0 -109 -178zM1104 0v299q-57 -137 -181 -226t-282 -89q-236 0 -382 165.5t-146 399 t149.5 398.5t378.5 165q160 0 281.5 -86t181.5 -225v293h78v-1094h-78zM645 61q201 0 331 143.5t130 340.5v6q0 195 -129 339t-332 144q-199 0 -324.5 -137t-125.5 -344v-2q0 -209 125.5 -349.5t324.5 -140.5z" glyph-name="atilde.aalt" horiz-adv-x="1376"/><glyph d="M266 1667v-1378q0 -121 41 -171t156 -50q31 0 88 8v-76q-41 -8 -92 -8q-147 0 -211 69.5t-64 219.5v1386h82z" glyph-name="l.aalt" horiz-adv-x="563"/><glyph d="M354 932l275 135v-86l-275 -133v-559q0 -121 41 -171t156 -50q31 0 88 8v-76q-41 -8 -92 -8q-147 0 -211 69.5t-64 219.5v526l-209 -102v86l209 102v774h82v-735z" glyph-name="lslash.aalt" horiz-adv-x="712"/><glyph d="M1122 1094l-612 -1366q-125 -274 -354 -275q-33 0 -62 6v74q33 -4 60 -4q182 0 282 227l111 244l-492 1094h90l447 -1002l442 1002h88z" glyph-name="y.aalt" horiz-adv-x="1175"/><glyph d="M356 1442q0 84 60.5 144.5t144.5 60.5q86 0 146.5 -60.5t60.5 -144.5q0 -86 -60.5 -145.5t-146.5 -59.5q-84 0 -144.5 59.5t-60.5 145.5zM561 1579q-57 0 -95 -39t-38 -98q0 -57 38 -96t95 -39t96 38.5t39 96.5q0 55 -40 96t-95 41zM897 0v242q-61 -125 -173 -192.5 t-243 -67.5q-158 0 -262 80.5t-104 230.5q0 156 128 234.5t300 78.5h354v76q0 166 -86 260t-248 94q-252 0 -364 -223l-72 41q55 119 165.5 188.5t268.5 69.5q190 0 304 -110.5t114 -313.5v-688h-82zM899 532h-352q-137 0 -242.5 -58t-105.5 -179q0 -115 79.5 -176.5 t204.5 -61.5q174 0 295 107.5t121 284.5v83z" glyph-name="aring.ss05" horiz-adv-x="1157"/><glyph d="M156 1472.5q0 32.5 23.5 57t56 24.5t56 -23.5t23.5 -58t-23.5 -58t-56 -23.5t-56 24.5t-23.5 57zM276 1094v-1094h-81v1094h81z" glyph-name="i.aalt" horiz-adv-x="471"/><glyph d="M135 0v-330h-84v408h90l633 1526h92l633 -1526h92v-408h-84v330h-1372zM819 1505l-588 -1427h1178z" glyph-name="afii10021.aalt" horiz-adv-x="1642"/><glyph d="M684 1604h92l666 -1604h-92l-621 1505l-620 -1505h-91z" glyph-name="afii10029.aalt" horiz-adv-x="1460"/><glyph d="M158 0v-338h-80v412h96l451 1020h84l450 -1020h96v-412h-81v338h-1016zM666 1006l-406 -932h811z" glyph-name="afii10069.aalt" horiz-adv-x="1331"/><glyph d="M612 -20q-203 0 -318.5 126.5t-115.5 327.5v660h80v-643q0 -188 97.5 -292t269.5 -104q162 0 273.5 116t111.5 294v629h80v-1094h-80v242q-45 -119 -153 -190.5t-245 -71.5z" glyph-name="afii10074.aalt" horiz-adv-x="1284"/><glyph d="M633 1280q-123 0 -208 81t-122 216l64 14q72 -238 266 -237.5t266 237.5l66 -14q-39 -137 -123 -217t-209 -80zM612 -20q-203 0 -318.5 126.5t-115.5 327.5v660h80v-643q0 -188 97.5 -292t269.5 -104q162 0 273.5 116t111.5 294v629h80v-1094h-80v242 q-45 -119 -153 -190.5t-245 -71.5z" glyph-name="afii10075.aalt" horiz-adv-x="1284"/><glyph d="M541 1094h84l485 -1094h-90l-436 1006l-439 -1006h-88z" glyph-name="afii10077.aalt" horiz-adv-x="1167"/><glyph d="M672 1112q203 0 318.5 -126t115.5 -329v-657h-82v641q0 188 -96.5 291.5t-268.5 103.5q-162 0 -273.5 -115.5t-111.5 -291.5v-629h-79v1094h79v-242q45 119 153 189.5t245 70.5z" glyph-name="afii10081.aalt" horiz-adv-x="1284"/><glyph d="M1010 0v242q-45 -119 -152.5 -190.5t-245.5 -71.5q-203 0 -318.5 126.5t-115.5 327.5v660h80v-643q0 -188 97.5 -292t269.5 -104q162 0 273.5 116t111.5 294v629h80v-1020h129v-412h-80v338h-129z" glyph-name="afii10088.aalt" horiz-adv-x="1323"/><glyph d="M1024 1094v-660q0 -176 89 -277.5t243 -101.5q133 0 241.5 112t108.5 282v645h80v-1094h-80v225q-39 -98 -133 -171.5t-227 -73.5q-150 0 -244 78.5t-133 203.5q-45 -117 -146.5 -199.5t-238.5 -82.5q-199 0 -302.5 125.5t-103.5 320.5v668h80v-658q0 -178 89 -279.5 t247 -101.5q135 0 241.5 109.5t106.5 281.5v648h82z" glyph-name="afii10090.aalt" horiz-adv-x="1980"/><glyph d="M1706 0v225q-39 -98 -133 -171.5t-225 -73.5q-152 0 -246 77.5t-133 204.5q-45 -117 -146.5 -199.5t-238.5 -82.5q-199 0 -302.5 125.5t-103.5 320.5v668h80v-658q0 -178 89 -279.5t247 -101.5q135 0 241.5 109.5t106.5 281.5v648h82v-660q0 -176 89 -277.5t243 -101.5 q133 0 241.5 112t108.5 282v645h80v-1020h129v-412h-80v338h-129z" glyph-name="afii10091.aalt" horiz-adv-x="2019"/><glyph d="M782 1620q129 0 238.5 -47t184.5 -127t128 -185.5t78 -221t25 -234.5t-25 -234.5t-78 -221t-128 -186.5t-184.5 -129t-238.5 -48q-160 0 -287.5 71.5t-205.5 190.5t-119 261t-41 291.5t41 292t119 262.5t205.5 192.5t287.5 72.5zM780 1542q-139 0 -250.5 -66.5t-178 -175 t-101.5 -235.5t-35 -258q0 -311 156 -526l768 1108q-144 153 -359 153zM784 61q139 0 251 67t178.5 176.5t101.5 236.5t35 258q0 307 -156 524l-770 -1106q149 -156 360 -156z" glyph-name="zero.zero" horiz-adv-x="1564"/><glyph d="M274.5 1188q-36.5 0 -63.5 26.5t-27 63.5q0 35 27 61.5t63.5 26.5t62 -26.5t25.5 -61.5q0 -37 -25.5 -63.5t-62 -26.5zM274.5 240q-36.5 0 -63.5 26.5t-27 63.5t27 62.5t63.5 25.5t62 -25.5t25.5 -62.5t-25.5 -63.5t-62 -26.5z" glyph-name="colon.aalt" horiz-adv-x="548"/><glyph d="M362 1540q0 -33 -23.5 -57.5t-56 -24.5t-56 23.5t-23.5 58.5t23.5 58.5t56 23.5t56 -24.5t23.5 -57.5zM319 1178l5 -1178h-86l4 1178h77z" glyph-name="exclamdown.aalt" horiz-adv-x="559"/><glyph d="M647 1540q0 -35 -23.5 -58.5t-56 -23.5t-56.5 24.5t-24 57.5t24 57.5t56.5 24.5t56 -23.5t23.5 -58.5zM524 881h-2q-35 -59 -99.5 -122t-114.5 -105t-89 -115.5t-39 -163.5q0 -131 92.5 -223.5t235.5 -92.5q119 0 214 76t138 205l74 -37q-51 -150 -168 -235.5t-258 -85.5 q-178 0 -296 113.5t-118 279.5q0 125 54.5 212t166.5 181q119 100 163 169t46 173l2 117h82v-854h-84v508z" glyph-name="uni2E18.aalt" horiz-adv-x="1005"/><glyph d="M645 1540q0 -35 -23.5 -58.5t-56.5 -23.5t-56.5 24.5t-23.5 57.5t23.5 57.5t56.5 24.5t56.5 -23.5t23.5 -58.5zM606 1227v-119q0 -123 -48 -201t-155 -170l-61 -51q-78 -68 -121 -138.5t-43 -172.5q0 -131 92 -223.5t236 -92.5q119 0 214 76t138 205l74 -37 q-51 -150 -168 -235.5t-258 -85.5q-178 0 -296 113.5t-118 279.5q0 125 55.5 214t165.5 179q119 96 164 167t45 175v117h84z" glyph-name="questiondown.aalt" horiz-adv-x="1001"/><glyph d="M285 1188q-37 0 -62.5 26.5t-25.5 63.5q0 35 25.5 61.5t62.5 26.5t63.5 -26.5t26.5 -61.5q0 -37 -26.5 -63.5t-63.5 -26.5zM281 246q-39 0 -61.5 22.5t-22.5 61.5t25.5 63.5t60.5 24.5q47 0 75.5 -35t28.5 -96v-8q0 -158 -151 -269l-48 43q119 94 127 199q-16 -6 -34 -6z " glyph-name="semicolon.aalt" horiz-adv-x="561"/><glyph d="M412 430l-35 -217q-18 -115 -4 -187.5t96 -106.5t254 -34h35v-71h-49q-152 0 -246 29.5t-130 84t-44 128t10 161.5l33 227q25 164 -54 244t-208 80h-21v72h21q129 0 207.5 78.5t54.5 242.5l-33 228q-18 88 -10 161.5t44 128t130 84t246 29.5h49v-72h-35 q-172 0 -254 -33.5t-96.5 -106.5t4.5 -185l35 -219q12 -43 6 -100.5t-22.5 -112t-71 -99.5t-140.5 -59v-2q86 -14 140.5 -60.5t71 -100.5t22.5 -112.5t-6 -99.5z" glyph-name="braceleft.aalt" horiz-adv-x="837"/><glyph d="M459 213l-33 217q-12 41 -6 99.5t22.5 112.5t70.5 100t138 61v2q-84 14 -138 59t-70.5 99.5t-22.5 112t6 100.5l33 219q18 113 4 185.5t-95 106t-253 33.5h-35v72h47q154 0 248 -29.5t130 -84t44 -128t-10 -161.5l-33 -228q-27 -164 53 -242.5t209 -78.5h18v-72h-18 q-129 0 -209 -80t-53 -244l33 -227q18 -88 10 -161.5t-44 -128t-130 -84t-248 -29.5h-47v71h35q172 0 253 34t95 106.5t-4 187.5z" glyph-name="braceright.aalt" horiz-adv-x="835"/><glyph d="M770 -186h-530v1978h530v-72h-453v-1835h453v-71z" glyph-name="bracketleft.aalt" horiz-adv-x="854"/><glyph d="M614 -186h-532v71h453v1835h-453v72h532v-1978z" glyph-name="bracketright.aalt" horiz-adv-x="854"/><glyph d="M727 1815l35 -56q-555 -330 -555 -946v-20q0 -614 555 -945l-35 -55q-291 164 -447.5 419t-156.5 574v33q0 319 156.5 574.5t447.5 421.5z" glyph-name="parenleft.aalt" horiz-adv-x="819"/><glyph d="M57 1759l33 56q291 -166 448.5 -421t157.5 -575v-33q0 -319 -157.5 -574t-448.5 -419l-33 55q555 330 555 945v20q0 616 -555 946z" glyph-name="parenright.aalt" horiz-adv-x="819"/><glyph d="M1956 756h-1786v73h1786v-73z" glyph-name="emdash.aalt" horiz-adv-x="2125"/><glyph d="M1110 756h-940v73h940v-73z" glyph-name="endash.aalt" horiz-adv-x="1280"/><glyph d="M770 758h-600v78h600v-78z" glyph-name="hyphen.aalt" horiz-adv-x="937"/><glyph d="M119 795l373 364l53 -49l-324 -315l324 -310l-53 -49zM549 795l373 364l51 -49l-322 -315l322 -310l-51 -49z" glyph-name="guillemotleft.aalt" horiz-adv-x="1144"/><glyph d="M494 795l-322 315l51 49l375 -364l-375 -359l-51 49zM924 795l-324 315l53 49l373 -364l-373 -359l-53 49z" glyph-name="guillemotright.aalt" horiz-adv-x="1144"/><glyph d="M119 795l373 364l51 -49l-322 -315l322 -310l-51 -49z" glyph-name="guilsinglleft.aalt" horiz-adv-x="714"/><glyph d="M494 795l-322 315l51 49l373 -364l-373 -359l-51 49z" glyph-name="guilsinglright.aalt" horiz-adv-x="714"/><glyph d="M1073 336l76 -33q-47 -133 -163 -223t-290 -98v-191h-80v193q-213 20 -354 179t-141 382q0 225 142.5 385t352.5 180v195h80v-193q174 -8 290 -95t161 -222l-76 -33q-98 274 -401 274q-199 0 -331 -143t-132 -344t134 -346.5t331 -145.5q295 0 401 279z" glyph-name="cent.ss08" horiz-adv-x="1249"/><glyph d="M1124 428q0 -188 -126 -310t-324 -132v-215h-78v215q-336 18 -479 397l71 37q31 -74 66 -132.5t87 -113.5t128 -85t168 -30q166 0 284.5 96.5t118.5 270.5q0 133 -102 218t-324 142q-244 63 -351 149.5t-107 258.5q0 178 128 297t312 129v205h78v-205 q168 -12 278.5 -103.5t165.5 -228.5l-69 -39q-123 295 -422 295q-154 0 -270.5 -98t-116.5 -250q0 -135 90 -205.5t301 -124.5q244 -63 368.5 -165.5t124.5 -272.5z" glyph-name="dollar.ss08" horiz-adv-x="1247"/><glyph d="M819 401q-143 0 -236.5 103.5t-93.5 247.5q0 174 118 309t298 135q96 0 178 -50t115 -147h2l33 191h82l-94 -569q-10 -53 10 -99.5t88 -46.5q98 0 177 99.5t110 218.5q16 70 16 131q0 274 -194.5 449t-477.5 175q-311 0 -531 -225t-220 -535q0 -315 209.5 -523 t529.5 -208q115 0 238.5 42t209.5 112l41 -61q-88 -76 -227 -121t-262 -45q-350 0 -581.5 227t-231.5 575q0 342 241.5 589t581.5 247q311 0 530.5 -193.5t219.5 -500.5q0 -111 -48 -238t-141 -211q-88 -78 -202 -78q-88 0 -130 55.5t-36 112.5h-2q-39 -68 -128.5 -118 t-191.5 -50zM922 1122q-154 0 -253.5 -107.5t-99.5 -262.5q0 -113 75 -194t190 -81q129 0 225 89t115 218q6 49 6 74q0 111 -74.5 187.5t-183.5 76.5z" glyph-name="at.aalt" horiz-adv-x="1787"/><glyph d="M356 1280q-123 0 -208 81t-121 216l63 14q72 -238 266.5 -237.5t266.5 237.5l65 -14q-39 -137 -123 -217t-209 -80z" glyph-name="glyph691" horiz-adv-x="712"/><glyph d="M748 -14q-272 0 -445.5 177t-173.5 464q0 276 170 458.5t450.5 182.5t448.5 -182.5t168 -459t-169.5 -458.5t-448.5 -182zM748 1194q-260 0 -396.5 -168t-136.5 -399q0 -276 174 -439l653 924q-124 82 -294 82zM1278 627q0 270 -170 434l-655 -922q121 -80 295 -80 q133 0 237.5 48.5t166.5 130t94 181t32 208.5z" glyph-name="glyph692" horiz-adv-x="1495"/></font>
</defs>
</svg>
