<svg xmlns="http://www.w3.org/2000/svg" width="201.094" height="175.031" viewBox="0 0 201.094 175.031">
  <metadata><?xpacket begin="﻿" id="W5M0MpCehiHzreSzNTczkc9d"?>
<x:xmpmeta xmlns:x="adobe:ns:meta/" x:xmptk="Adobe XMP Core 5.6-c140 79.160451, 2017/05/06-01:08:21        ">
   <rdf:RDF xmlns:rdf="http://www.w3.org/1999/02/22-rdf-syntax-ns#">
      <rdf:Description rdf:about=""/>
   </rdf:RDF>
</x:xmpmeta>
                                                                                                    
                                                                                                    
                                                                                                    
                                                                                                    
                                                                                                    
                                                                                                    
                                                                                                    
                                                                                                    
                                                                                                    
                                                                                                    
                                                                                                    
                                                                                                    
                                                                                                    
                                                                                                    
                                                                                                    
                                                                                                    
                                                                                                    
                                                                                                    
                                                                                                    
                                                                                                    
                           
<?xpacket end="w"?></metadata>
<defs>
    <style>
      .cls-1 {
        fill: #fff;
        fill-rule: evenodd;
      }
    </style>
  </defs>
  <path id="Color_Fill_1" data-name="Color Fill 1" class="cls-1" d="M100,106s7.014,9.913,16,10,18-9,18-9,24,13.933,24,16c3.483,6.279,1.5,14.039,0,15s-80.017.865-82,0-6.1-7.666,0-16C80.7,117.508,100,106,100,106Zm17,1c17.857,1.775,21.775-22.712,22-26s1.1-33.008-21-33c-22.125.008-24.589,29.279-24.156,34.049C93.56,85.207,99.143,105.225,117,107Zm-64,9c-1.3,3.016,2.383,5.131,5,4,1.19-.533,24-26,24-26S60.032,67.323,59,67c-3.5-1.257-6.71,1.482-6,4,1.266,1.609,15,18,15,18s-56.578-.648-60,0c-4.341,1.164-3.446,8.69,0,9,2.551,0.2,59,0,59,0S54.3,112.984,53,116ZM35,59c-0.833,4.109,3.693,8.284,10,4,4.035-3.633,13.958-44.209,71-47,66.239-2.643,79.442,67.5,80,76-0.64,9.485-15.242,81.2-77,79s-70.787-45.6-75-48-8.564-1.474-9,3c0.59,2.775,15.27,54.749,85,55,75.4,1.743,87.107-83,86-89,1.577-6.267-6.365-86.072-90-86C45.529,9.577,35.833,54.891,35,59Z" transform="translate(-5.063 -6)"/>
</svg>
