<?xml version="1.0" encoding="utf-8"?>
<!-- Generator: Adobe Illustrator 23.0.1, SVG Export Plug-In . SVG Version: 6.00 Build 0)  -->
<svg version="1.1" id="Layer_1" xmlns="http://www.w3.org/2000/svg" xmlns:xlink="http://www.w3.org/1999/xlink" x="0px" y="0px"
	 viewBox="0 0 201.1 175" style="enable-background:new 0 0 201.1 175;" xml:space="preserve">
<style type="text/css">
	.st0{fill-rule:evenodd;clip-rule:evenodd;fill:#FFFFFF;}
</style>
<path id="Color_Fill_1" class="st0" d="M92,101.8c1.6-1,3.7-0.7,5,0.7c2.7,2.9,7.9,7.5,13.9,7.5c6.4,0.1,12.8-4.5,16-7.2
	c1.3-1.1,3.1-1.2,4.5-0.4c6.1,3.6,21.5,12.9,21.5,14.5c3.5,6.3,1.5,14,0,15c-1.5,1-79.9,0.9-81.9,0c-2-0.9-6-7.5-0.3-15.6
	c0.2-0.2,0.3-0.4,0.6-0.6C75.1,112.2,86.5,105.1,92,101.8z M111.8,101c17.8,1.8,21.8-22.7,22-26c0.2-3.3,1.1-33-21-33
	c-22.1,0-24.6,29.3-24.1,34C88.4,79.2,94,99.2,111.8,101z M47.9,110c-1.3,3,2.4,5.1,5,4c1-0.4,15.9-17,21.7-23.5
	c1.3-1.5,1.3-3.6,0.1-5.1c-5.6-6.7-20-24.1-20.8-24.4c0,0-0.1,0-0.1,0c-3.6-1.2-6.6,3.2-4.1,6.2c1.9,2.3,5,6,7.7,9.3
	c2.2,2.6,0.3,6.5-3.1,6.5C38.4,82.8,5.5,82.5,2.9,83c-4.3,1.2-3.4,8.7,0,9c1.9,0.2,34.7,0.1,50.5,0c3.3,0,5.2,3.9,3.1,6.4
	C52.9,102.9,48.6,108.3,47.9,110z M29.9,53c-0.8,4,3.5,8.1,9.5,4.3c0.4-0.3,0.8-0.6,1.1-1.1c4.5-6.6,16-43.6,70.3-46.2
	c57.5-2.3,75.6,58.3,79.2,73.1c0.5,2.1,0.5,4.3,0,6.4c-3.7,15-22.4,77.4-76.2,75.5c-61.7-2.2-70.7-45.6-74.9-48
	c-3.8-2.2-7.8-1.6-8.8,1.9c-0.2,0.7-0.2,1.4,0,2c2.2,7.5,18.9,53.8,84.7,54.1c55.1,1.3,75.8-48.4,82.8-73.9
	c2.7-10,2.8-20.6,0.1-30.6C191,45.5,170.6-0.1,110.8,0C40.4,3.6,30.7,48.9,29.9,53z"/>
</svg>
