<svg id="Layer_1" data-name="Layer 1" xmlns="http://www.w3.org/2000/svg" viewBox="0 0 203.56 325.97"><defs><style>.cls-1{fill:#f7f8f8;}</style></defs><title>logo</title><path id="path0" class="cls-1" d="M323.81,230.41c-.22.09-2.83.52-5.8,1s-8.46,1.36-12.2,2-9.14,1.56-12,2-7,1.14-9.2,1.55-7,1.23-10.6,1.81c-22.49,3.6-22.55,3.63-22.57,11.42,0,8.13,1.44,9.21,10.62,7.75,8.81-1.39,16.8-.22,19.52,2.88,2.95,3.36,2.55,5.53-7.76,42.17-2.45,8.7-4.3,14-5.25,15.17-1.13,1.35-4.41,2.68-36.08,14.63-7.21,2.71-8.14,4.39-6.29,11.3,2,7.6,4.48,8.45,13.83,4.77,23.82-9.36,23.29-9.39,20.14,1.4-.79,2.71-1.94,6.82-2.56,9.13s-1.76,6.36-2.53,9-2.34,8-3.47,12l-4.2,14.6c-1.18,4.07-3.13,10.91-4.35,15.2s-4.22,14.82-6.68,23.4-5,17.49-5.63,19.8-1.87,6.54-2.73,9.4c-2.38,7.93-4.35,14.76-5.59,19.4-1.43,5.33-3.16,11.43-7.71,27.2-2,6.93-4,14.13-4.53,16s-1.8,6.58-2.93,10.48c-4.3,14.82-4.18,14.92,18,14.92,21.16,0,18.28,2,24.4-17,13.11-40.73,15.3-46.46,24.11-63A429.7,429.7,0,0,1,297,432.6c22.4-32.42,44.16-53.49,56.05-54.28,6.7-.45,8.31,4.57,5.37,16.78-3.56,14.77-6.05,24.19-10.85,40.9-.89,3.08-1.87,6.59-2.18,7.8s-1.46,5.17-2.54,8.8-2.72,9.12-3.63,12.2-2.09,7.25-2.6,9.27-1.42,5.26-2,7.2c-1.17,3.81-1.59,5.4-6.48,24.73-6,23.8-6.59,28.41-4.32,35,6.66,19.16,29.89,20.32,51.22,2.56A158.25,158.25,0,0,0,404.8,510.6c5.54-8.22,5.15-11.43-1.79-14.83-4.89-2.39-7-1.57-11.65,4.54-12.56,16.48-21.67,24.31-24.72,21.26-1.34-1.34-.26-5.88,8-33.57,1.18-4,3.34-11.25,4.82-16.2s3.08-10.53,3.59-12.4,1.54-5.38,2.31-7.8,1.79-5.84,2.25-7.6,1.55-5.54,2.42-8.4c14.95-49.63,16.63-63,9.57-76.62-12.64-24.28-45.25-19.51-76.51,11.19-5.21,5.12-11.36,12-19.9,22.19-.57.68-4.49,5.83-8.72,11.44-12.16,16.13-13,15.54-6.85-5,.85-2.86,2.38-8.08,3.39-11.6s2.82-9.55,4-13.4,2.44-8.17,2.81-9.6,1.34-4.85,2.18-7.6,3.2-10.85,5.23-18c5-17.48,4.45-16.63,11.68-19.35,1.38-.52,5.12-2,8.31-3.23,8.65-3.4,13.74-5.38,22.6-8.79,4.4-1.69,10.43-4,13.4-5.19s6.7-2.61,8.3-3.21c4.84-1.84,5.48-3.38,3.9-9.48-2.14-8.32-4.4-9.36-13-6-5.46,2.11-16.58,6.33-24.4,9.26l-10.51,4c-8.3,3.18-9,2.42-6.09-6.95.75-2.42,2.28-7.64,3.42-11.6,1.74-6.1,6-20.52,10.8-36.76,1.84-6.18,1.47-8.46-1.64-10.2-1.38-.78-6.7-1.18-8.18-.63" transform="translate(-205.06 -230.15)"/></svg>